<svg id="flat" height="512" viewBox="0 0 512 512" width="512" xmlns="http://www.w3.org/2000/svg"><path d="m490.105 184.282-104-28.363-4.21 15.435 64.615 17.623-6.271 25.083 15.522 3.88 6.188-24.753 16.39 4.47-6.1 24.4 15.522 3.88 8-32a8 8 0 0 0 -5.656-9.655z" fill="#045f9c"/><path d="m160 127.084h40v45.716h-40z" fill="#efd66a"/><path d="m360 109.657h-105.414l17.414-69.657h88z" fill="#2993ce"/><path d="m208 120h-16v-96a8 8 0 0 1 8-8h24v16h-16z" fill="#0a4566"/><path d="m360 200h-208v-24l40-16v-24h-32v-8.916a23.084 23.084 0 0 1 23.084-23.084h176.916z" fill="#dd1c4b"/><path d="m24 240h464v248h-464z" fill="#feac4f"/><circle cx="192" cy="216" fill="#0a4566" r="24"/><circle cx="192" cy="216" fill="#2993ce" r="8"/><path d="m184 488 32-248h-56l-64 248z" fill="#d68029"/><path d="m200 488 32-248h-56l-64 248z" fill="#66af8d"/><path d="m384 488-64-248h-56l32 248z" fill="#d68029"/><path d="m400 488-64-248h-56l32 248z" fill="#66af8d"/><path d="m348.284 112a68.283 68.283 0 0 0 -48.284 20 68.283 68.283 0 0 0 -20 48.284v19.716h80v-88z" fill="#89103c"/><path d="m216 136h16v24h-16z" fill="#af1e4b"/><path d="m288 200h-16v-19.716a76.284 76.284 0 0 1 76.284-76.284h51.716v16h-51.716a60.285 60.285 0 0 0 -60.284 60.284z" fill="#c3e0ed"/><path d="m248 136h16v24h-16z" fill="#af1e4b"/><path d="m317.657 82.343-32-32-11.314 11.314 10.343 10.343-27.581 27.581-1.105 4.419h19.314l20.686-20.686 10.343 10.343z" fill="#89103c"/><path d="m184 48h32v32h-32z" fill="#045f9c"/><path d="m24 296 40-56h48l-88 232z" fill="#66af8d"/><path d="m488.447 319.026-56.447-79.026h-48l94.069 248h9.931z" fill="#d68029"/><path d="m488 296-40-56h-48l88 232z" fill="#66af8d"/><rect fill="#66af8d" height="80" rx="24" width="48" x="24" y="120"/><path d="m40 176h16v64h-16z" fill="#d68029"/><rect fill="#66af8d" height="80" rx="24" width="48" x="72" y="120"/><path d="m88 176h16v64h-16z" fill="#d68029"/><g fill="#2d7a54"><path d="m256 440a8 8 0 0 1 -7.589-5.47l-2.941-8.821a14.179 14.179 0 0 0 -13.47-9.709v-16a30.162 30.162 0 0 1 24 11.857 30.162 30.162 0 0 1 24-11.857v16a14.179 14.179 0 0 0 -13.47 9.709l-2.941 8.821a8 8 0 0 1 -7.589 5.47z"/><path d="m256 384a8 8 0 0 1 -7.589-5.47l-2.941-8.821a14.179 14.179 0 0 0 -13.47-9.709v-16a30.162 30.162 0 0 1 24 11.857 30.162 30.162 0 0 1 24-11.857v16a14.179 14.179 0 0 0 -13.47 9.709l-2.941 8.821a8 8 0 0 1 -7.589 5.47z"/><path d="m256 496a8 8 0 0 1 -7.589-5.47l-2.941-8.821a14.179 14.179 0 0 0 -13.47-9.709v-16a30.162 30.162 0 0 1 24 11.857 30.162 30.162 0 0 1 24-11.857v16a14.179 14.179 0 0 0 -13.47 9.709l-2.941 8.821a8 8 0 0 1 -7.589 5.47z"/><path d="m72 488a8 8 0 0 1 -7.589-5.47l-2.941-8.821a14.179 14.179 0 0 0 -13.47-9.709v-16a30.162 30.162 0 0 1 24 11.857 30.162 30.162 0 0 1 24-11.857v16a14.179 14.179 0 0 0 -13.47 9.709l-2.941 8.821a8 8 0 0 1 -7.589 5.47z"/><path d="m96 424a8 8 0 0 1 -7.589-5.47l-2.941-8.821a14.179 14.179 0 0 0 -13.47-9.709v-16a30.162 30.162 0 0 1 24 11.857 30.162 30.162 0 0 1 24-11.857v16a14.179 14.179 0 0 0 -13.47 9.709l-2.941 8.821a8 8 0 0 1 -7.589 5.47z"/><path d="m440 488a8 8 0 0 1 -7.589-5.47l-2.941-8.821a14.179 14.179 0 0 0 -13.47-9.709v-16a30.162 30.162 0 0 1 24 11.857 30.162 30.162 0 0 1 24-11.857v16a14.179 14.179 0 0 0 -13.47 9.709l-2.941 8.821a8 8 0 0 1 -7.589 5.47z"/><path d="m416 424a8 8 0 0 1 -7.589-5.47l-2.941-8.821a14.179 14.179 0 0 0 -13.47-9.709v-16a30.162 30.162 0 0 1 24 11.857 30.162 30.162 0 0 1 24-11.857v16a14.179 14.179 0 0 0 -13.47 9.709l-2.941 8.821a8 8 0 0 1 -7.589 5.47z"/><path d="m256 328a7.976 7.976 0 0 1 -5.657-2.343l-16-16 11.314-11.314 10.343 10.344 10.343-10.344 11.314 11.314-16 16a7.976 7.976 0 0 1 -5.657 2.343z"/><path d="m112 360a7.976 7.976 0 0 1 -5.657-2.343l-16-16 11.314-11.314 10.343 10.344 10.343-10.344 11.314 11.314-16 16a7.976 7.976 0 0 1 -5.657 2.343z"/><path d="m400 360a7.976 7.976 0 0 1 -5.657-2.343l-16-16 11.314-11.314 10.343 10.344 10.343-10.344 11.314 11.314-16 16a7.976 7.976 0 0 1 -5.657 2.343z"/><path d="m128 264h16v16h-16z"/><path d="m112 296h16v16h-16z"/><path d="m248 264h16v16h-16z"/><path d="m368 264h16v16h-16z"/><path d="m384 296h16v16h-16z"/></g><circle cx="360" cy="192" fill="#0a4566" r="48"/><circle cx="360" cy="192" fill="#2993ce" r="16"/></svg>