<svg id="Capa_1" enable-background="new 0 0 512 512" height="512" viewBox="0 0 512 512" width="512" xmlns="http://www.w3.org/2000/svg"><g><g><g><path d="m88.806 256.457 11.346-68.013 20.833-57.038c4.616-12.637-3.382-26.36-16.652-28.574-10.215-1.704-20.193 4.119-23.734 13.851l-23.704 65.151-11.247 67.424z" fill="#f9a08f"/><path d="m81.83 223.173v-68.953l11.164-59.688c2.474-13.224-7.673-25.444-21.126-25.444-10.356 0-19.24 7.386-21.131 17.568l-12.661 68.163v68.355h43.754z" fill="#fdb0a0"/><path d="m92.101 442.913v-19.27c0-8.123-2.957-15.968-8.318-22.07l-65.209-74.219c-7.138-8.123-11.074-18.568-11.074-29.381v-128.542l12.661-68.163c1.891-10.182 10.775-17.568 21.131-17.568 13.454 0 23.6 12.22 21.126 25.444l-11.164 59.689v85.23l84.972 84.972 62.558 23.359v80.52h-106.683z" fill="#ffcec0"/><path d="m92.219 243.543 9.221-47.23c2.657-13.609-6.819-26.605-20.588-28.237-11.55-1.369-22.401 5.798-25.676 16.958l-17.911 61.031c-2.563 8.183-1.237 17.089 3.599 24.171l70.846 103.748h87.074v-21.455c0-58.284-106.565-108.986-106.565-108.986z" fill="#ffcec0"/><path d="m92.22 243.548 9.22-47.23c2.66-13.61-6.82-26.61-20.59-28.24-.95-.11-1.89-.17-2.82-.17-9.06 0-17.32 5.17-21.32 13.21 10.85 3.87 17.68 15.21 15.37 27.02l-7.399 37.901c-1.063 5.447 1.55 10.948 6.449 13.555 25.034 13.322 98.29 56.433 98.29 104.754v78.57h29.36v-90.39c0-58.28-106.56-108.98-106.56-108.98z" fill="#fdb0a0"/></g><g><path d="m423.194 256.457-11.346-68.013-20.833-57.038c-4.616-12.637 3.382-26.36 16.652-28.574 10.215-1.704 20.193 4.119 23.734 13.851l23.704 65.151 11.247 67.424z" fill="#f9a08f"/><path d="m430.17 223.173v-68.953l-11.164-59.688c-2.474-13.224 7.673-25.444 21.126-25.444 10.356 0 19.24 7.386 21.131 17.568l12.661 68.163v68.355h-43.754z" fill="#fdb0a0"/><path d="m419.899 442.913v-19.27c0-8.123 2.957-15.968 8.318-22.07l65.209-74.219c7.138-8.124 11.074-18.568 11.074-29.382v-128.541l-12.661-68.163c-1.891-10.182-10.775-17.568-21.131-17.568-13.454 0-23.6 12.22-21.126 25.444l11.164 59.689v85.23l-84.972 84.972-62.558 23.359v80.52h106.683z" fill="#ffcec0"/><path d="m504.5 169.428v128.54c0 10.82-3.94 21.26-11.07 29.39l-65.21 74.22c-5.36 6.1-8.32 13.94-8.32 22.07v19.27h-26.24v-19.27c0-8.13 2.96-15.97 8.32-22.07l65.21-74.22c7.14-8.13 11.07-18.57 11.07-29.39v-128.54l-12.66-68.16c-1-5.37-3.94-9.96-8.02-13.1 3.6-2.79 8.14-4.47 13.13-4.47 10.35 0 19.24 7.39 21.13 17.57z" fill="#fdb0a0"/><path d="m419.781 243.543-9.221-47.23c-2.657-13.609 6.819-26.605 20.588-28.237 11.55-1.369 22.401 5.798 25.676 16.958l17.911 61.031c2.563 8.183 1.237 17.089-3.599 24.171l-70.846 103.746h-87.074v-21.455c0-58.282 106.565-108.984 106.565-108.984z" fill="#ffcec0"/></g></g><g><g><path d="m382.982 190.301v15.308c0 4.044-1.898 7.853-5.116 10.288l-15.665 11.869c-1.664 1.265-3.631 2.118-5.708 2.448l-21.208 3.48c-32.156 5.281-57.104 30.959-61.437 63.252-.778 5.796-6.494 9.561-12.136 8.021-105.93-28.914-118.066-119.218-117.167-164.472.104-5.249 4.423-9.432 9.673-9.417l34.717.098 79.948-21.043 22.872 3.713c4.319.701 7.977 3.548 9.751 7.537l7.248 16.449 68.024 41.425c3.852 2.352 6.204 6.533 6.204 11.044z" fill="#fff2e3"/><path d="m382.984 190.305v15.304c0 4.042-1.904 7.85-5.123 10.288l-15.656 11.871c-1.668 1.262-3.636 2.117-5.711 2.449l-21.207 3.476c-32.158 5.283-57.108 30.96-61.439 63.257-.663 4.909-4.866 8.363-9.571 8.363-.845 0-1.711-.107-2.567-.342-11.935-3.251-22.672-7.294-32.34-11.956 1.123.332 2.267.652 3.412.962.898.246 1.807.364 2.695.364 4.919 0 9.336-3.625 10.02-8.769 4.545-33.848 30.682-60.755 64.38-66.294l22.233-3.647c2.171-.342 4.235-1.23 5.978-2.556l16.416-12.448c3.369-2.545 5.358-6.534 5.358-10.78v-16.042c0-1.968-.428-3.871-1.208-5.593l18.127 11.047c3.85 2.351 6.203 6.533 6.203 11.046z" fill="#fee7c9"/><path d="m346.891 161.056c-20.886 70.273-77.983 15.838-114.098 49.269-22.693 21.004-50.37 21.538-69.92 18.138-15.988-31.73-18.779-65.439-18.33-87.972.107-5.251 4.427-9.432 9.678-9.411l34.714.096 79.951-21.046 22.864 3.711c4.321.706 7.978 3.551 9.753 7.539l7.251 16.448z" fill="#3f5959"/><path d="m382.984 190.305v15.304c0 4.042-1.904 7.85-5.123 10.288l-15.656 11.871c0-17.186-4.514-20.045-15.314-33.356-7.328-9.03-6.395-23.207 0-33.356l29.891 18.202c3.849 2.352 6.202 6.534 6.202 11.047z" fill="#fcac8d"/><path d="m382.984 190.305v15.304c0 4.042-1.904 7.85-5.123 10.288l-15.656 11.871c0-13.496-2.781-18.159-9.219-25.987l1.519-1.155c3.369-2.545 5.358-6.534 5.358-10.78v-16.042c0-1.968-.428-3.861-1.208-5.582l18.127 11.037c3.849 2.351 6.202 6.533 6.202 11.046z" fill="#f9a08f"/><path d="m255.011 100.623c7.426 11.093 8.25 24.677 3.384 36.102-1.959 4.599-6.502 7.638-11.5 7.696-12.422.142-24.662-5.79-32.089-16.885-7.426-11.095-8.245-24.673-3.379-36.102 1.958-4.599 6.5-7.641 11.498-7.699 12.417-.145 24.66 5.795 32.086 16.888z" fill="#3f5959"/></g><g><path d="m222.103 161.546h-15.416c-5.906 0-10.694-4.788-10.694-10.694v-23.069c0-5.906 4.788-10.694 10.694-10.694h15.416c5.906 0 10.694 4.788 10.694 10.694v23.069c.001 5.906-4.787 10.694-10.694 10.694z" fill="#fcc16d"/><path d="m232.793 127.786v23.068c0 5.903-4.78 10.694-10.694 10.694h-15.411c-.503 0-1.005-.032-1.487-.107 5.197-.727 9.197-5.197 9.197-10.587v-23.068c0-5.401-4-9.86-9.197-10.587.481-.075.984-.107 1.487-.107h15.411c5.913 0 10.694 4.78 10.694 10.694z" fill="#fca62f"/><g><path d="m175.526 302.708c-3.217 2.61-3.709 7.333-1.1 10.55 11.186 13.789 16.857 27.001 16.857 39.27v90.386c0 4.142 3.357 7.5 7.5 7.5s7.5-3.358 7.5-7.5v-90.386c0-15.798-6.799-32.189-20.209-48.72-2.607-3.216-7.329-3.71-10.548-1.1z"/><path d="m108.889 186.29 19.141-52.311c2.968-8.125 2.172-17.071-2.183-24.545s-11.747-12.576-20.279-14c-1.679-.28-3.374-.397-5.064-.38 1.288-8.228-.988-16.563-6.329-22.995-5.525-6.655-13.656-10.471-22.306-10.471-10.738 0-20.411 5.898-25.425 15.078-1.685-.302-3.406-.465-5.151-.465-13.966 0-25.955 9.966-28.506 23.698l-12.66 68.163c-.085.451-.127.909-.127 1.369v128.542c0 12.642 4.596 24.834 12.939 34.332l65.209 74.219c4.16 4.736 6.452 10.816 6.452 17.12v19.27c0 4.142 3.357 7.5 7.5 7.5s7.5-3.358 7.5-7.5v-19.27c0-9.95-3.617-19.546-10.184-27.021l-65.208-74.219c-5.937-6.758-9.208-15.435-9.208-24.431v-127.852l12.534-67.483c1.232-6.628 7.018-11.438 13.758-11.438 4.175 0 8.099 1.842 10.766 5.054s3.757 7.408 2.989 11.512l-11.165 59.688c-.085.455-.128.917-.128 1.379v27.229c0 .341.031.674.075 1.003l-13.743 46.827c-3.241 10.419-1.572 21.558 4.584 30.572l50.379 73.775c1.452 2.127 3.806 3.271 6.2 3.271 1.457 0 2.929-.423 4.223-1.307 3.421-2.336 4.3-7.002 1.964-10.423l-50.379-73.775c-3.563-5.218-4.523-11.669-2.635-17.699.014-.043.026-.087.039-.13l17.911-61.031c2.253-7.675 9.654-12.564 17.597-11.622 4.564.541 8.569 2.884 11.276 6.598 2.708 3.714 3.714 8.243 2.833 12.754l-9.221 47.23c-.655 3.358 1.047 6.736 4.137 8.208.323.154 32.667 15.68 60.879 38.818 3.2 2.625 7.928 2.161 10.555-1.043 2.627-3.203 2.16-7.928-1.043-10.555-23.063-18.915-48.068-32.655-58.713-38.146l8.129-41.638c.744-3.81.755-7.697.088-11.459zm-49.589-19.681 10.491-56.086c1.59-8.503-.667-17.196-6.193-23.852-1.087-1.309-2.278-2.504-3.551-3.586 2.521-3.984 6.946-6.498 11.822-6.498 4.175 0 8.099 1.842 10.766 5.054s3.757 7.408 2.989 11.512l-11.165 59.688c-.085.455-.128.917-.128 1.379v6.404c-5.524.647-10.69 2.745-15.031 5.985zm30.03-4.085v-7.609l8.328-44.52c1.777-.408 3.629-.468 5.441-.166 4.118.687 7.686 3.149 9.788 6.756s2.485 7.925 1.053 11.846l-14.591 39.949c-2.917-2.698-6.321-4.823-10.019-6.256z"/><path d="m403.109 186.302c-.665 3.758-.653 7.642.09 11.448l8.128 41.629c-22.212 11.418-105.61 57.967-105.61 113.148v90.072c0 4.107 3.165 7.688 7.27 7.811 4.247.127 7.73-3.278 7.73-7.497v-90.386c0-26.951 27.242-53.055 50.095-70.207 25.744-19.321 51.934-31.88 52.194-32.005 3.09-1.472 4.793-4.85 4.138-8.208l-9.134-46.779c-.898-4.598-.008-9.438 2.757-13.221 2.717-3.718 6.734-6.059 11.311-6.589 7.99-.925 15.412 4.339 17.677 12.057l17.785 60.601c.013.043.025.086.039.129 1.889 6.031.928 12.482-2.635 17.7l-50.204 73.519c-2.315 3.39-1.721 8.131 1.599 10.546 3.436 2.5 8.233 1.653 10.612-1.831l50.379-73.775c6.155-9.013 7.824-20.152 4.584-30.573l-13.851-47.196c.117-.526.183-1.071.183-1.633v-26.229c0-.462-.043-.924-.128-1.378l-11.1-59.34c-.656-3.506-.123-7.183 1.747-10.22 2.598-4.218 7.101-6.695 11.943-6.695 6.74 0 12.526 4.81 13.758 11.438l12.534 67.484v127.851c0 8.996-3.271 17.673-9.209 24.432l-65.207 74.219c-6.567 7.475-10.185 17.071-10.185 27.021v18.955c0 4.107 3.165 7.688 7.27 7.811 4.247.127 7.73-3.278 7.73-7.497v-19.27c0-6.304 2.292-12.384 6.452-17.12l65.209-74.219c8.344-9.498 12.939-21.69 12.939-34.332v-128.544c0-.459-.042-.917-.126-1.368l-12.66-68.163c-2.551-13.732-14.54-23.698-28.506-23.698-1.745 0-3.466.163-5.151.465-5.013-9.182-14.682-15.078-25.425-15.078-8.649 0-16.78 3.816-22.306 10.471-5.341 6.432-7.617 14.768-6.329 22.996-1.691-.017-3.386.1-5.064.38-8.532 1.424-15.924 6.526-20.279 14-2.593 4.451-3.924 9.424-3.946 14.448-.022 5.236 5.133 8.918 10.044 7.1l.092-.034c2.978-1.102 4.814-3.969 4.864-7.143.037-2.368.679-4.714 1.905-6.818 2.103-3.607 5.67-6.069 9.788-6.756 1.812-.303 3.664-.243 5.441.166l8.328 44.52v7.609c-3.698 1.432-7.102 3.558-10.018 6.257l-2.207-6.043c-1.409-3.857-5.61-6.135-9.508-4.842-4.033 1.338-6.137 5.731-4.69 9.694zm34.561-25.678v-6.404c0-.462-.043-.924-.128-1.379l-11.165-59.688c-.768-4.104.322-8.3 2.989-11.512s6.591-5.054 10.766-5.054c4.878 0 9.301 2.514 11.822 6.498-1.273 1.082-2.464 2.277-3.551 3.586-5.526 6.655-7.783 15.349-6.193 23.852l10.491 56.085c-4.341-3.238-9.507-5.337-15.031-5.984z"/><path d="m334.202 172.864c-10.532 20.063-25.599 20.12-49.306 18.554-18.69-1.237-39.871-2.635-57.198 13.403-20.525 18.998-45.88 19.327-63.54 16.253-4.08-.711-7.965 2.023-8.674 6.104-.71 4.081 2.022 7.965 6.104 8.675 5.733.998 12.156 1.685 18.979 1.684 18.158 0 39.128-4.869 57.32-21.707 12.591-11.654 28.83-10.582 46.02-9.444 18.205 1.202 38.374 2.529 53.674-12.774.961 1.971 2.111 3.833 3.485 5.527 1.418 1.747 2.729 3.317 3.938 4.765 6.591 7.892 8.941 10.727 9.538 19.032l-20.472 3.359c-7.728 1.269-15.221 3.64-22.273 7.047-3.729 1.802-5.292 6.286-3.49 10.016 1.294 2.678 3.971 4.239 6.758 4.239 1.095 0 2.206-.241 3.258-.749 5.756-2.781 11.872-4.716 18.177-5.751l21.171-3.473c3.273-.521 6.409-1.863 9.061-3.877l15.661-11.866c5.066-3.833 8.091-9.915 8.091-16.269v-15.308c0-7.072-3.753-13.756-9.802-17.45l-66.013-40.2-6.309-14.318c-2.819-6.337-8.577-10.782-15.401-11.892l-22.872-3.713c-1.037-.167-2.097-.117-3.11.15l-1.938.51c-1.059-2.404-2.317-4.731-3.794-6.938-8.494-12.689-22.618-20.219-37.869-20.219-.179 0-.358.001-.537.003-7.993.093-15.181 4.906-18.313 12.262-2.981 7.004-4.156 14.519-3.473 21.996-5.91 1.932-10.481 6.812-11.999 12.896l-1.077.283-33.735-.095c-.008 0-.015 0-.021 0-4.133 0-7.488 3.344-7.5 7.479-.012 4.142 3.337 7.509 7.479 7.521l34.296.096v12.178c0 10.032 8.162 18.194 18.194 18.194h15.416c10.032 0 18.194-8.162 18.194-18.194v-23.068c0-10.033-8.162-18.195-18.194-18.195h-6.05c-.548-5.165.211-10.371 2.273-15.217.789-1.854 2.672-3.114 4.685-3.138 10.381-.126 20.003 4.949 25.768 13.561 4.774 7.132 6.313 15.665 4.334 24.024-.955 4.031 1.539 8.072 5.569 9.027.581.138 1.162.203 1.734.203 3.397 0 6.476-2.324 7.292-5.773 1.121-4.734 1.452-9.581 1.044-14.354l.501-.132 21.3 3.458c1.813.294 3.346 1.484 4.091 3.158l7.248 16.449c.618 1.404 1.652 2.584 2.962 3.382l32.266 19.649c-1.031 2.605-2.45 6.306-2.921 8.977zm-108.904-45.081v23.068c0 1.761-1.433 3.194-3.194 3.194h-15.416c-1.762 0-3.194-1.433-3.194-3.194v-23.068c0-1.762 1.433-3.195 3.194-3.195h15.416c1.761 0 3.194 1.433 3.194 3.195zm147.573 57.875c1.635.998 2.611 2.734 2.611 4.643v15.308c0 1.682-.801 3.292-2.146 4.31l-5.108 3.87c-2.019-7.864-6.054-12.726-11.712-19.501-1.168-1.398-2.434-2.914-3.803-4.601-3.533-4.353-4.379-11.194-2.494-17.821z"/><path d="m291.927 257.016c-3.342-2.448-8.035-1.722-10.481 1.62-8.028 10.964-13.226 23.866-15.03 37.311-.551 4.105 2.331 7.88 6.437 8.431.338.045.674.067 1.007.067 3.698 0 6.918-2.737 7.424-6.503 1.472-10.969 5.713-21.496 12.265-30.444 2.445-3.342 1.721-8.035-1.622-10.482z"/></g></g></g></g></svg>