<svg clip-rule="evenodd" fill-rule="evenodd" height="512" image-rendering="optimizeQuality" shape-rendering="geometricPrecision" text-rendering="geometricPrecision" viewBox="0 0 2667 2667" width="512" xmlns="http://www.w3.org/2000/svg"><g id="Layer_x0020_1"><circle cx="1333" cy="1333" fill="#7ed63f" r="1333"/><path d="m804 2010c-176 0-319-144-319-320 0-177 146-321 320-319l1204-5c77 0 78 117 1 118l-1209 4c-110 1-199 92-199 202 0 112 91 202 202 202 112 0 202-90 202-202 0-77 118-77 118 0 0 176-144 320-320 320zm568-24c-123 0-223-100-223-222 0-123 100-222 223-222l756-3c77 0 77 117 0 117l-758 3c-57 0-103 48-103 105 0 58 47 105 105 105s105-47 105-105c0-77 117-77 117 0 0 122-100 222-222 222zm751-858-756-3c-123 0-222-100-222-222 0-123 99-223 222-223 210 0 287 281 163 281-32 0-58-26-58-58 0-58-47-105-105-105s-105 47-105 105c0 57 46 104 103 105l758 3c77 0 77 117 0 117zm-118 172-1210-4c-174-2-315-145-315-320 0-176 143-319 319-319s320 143 320 319c0 78-118 77-118 0 0-111-90-202-202-202-111 0-202 91-202 202 0 110 89 202 200 202l1208 5c77 0 77 117 0 117z" fill="#fff"/></g></svg>