<svg enable-background="new 0 0 256 256" height="512" viewBox="0 0 256 256" width="512" xmlns="http://www.w3.org/2000/svg"><g id="Layer_65"><g><g><g><path d="m249.425 137.627-2.819-.345c-4.361-.526-8.365 1.018-11.182 3.774-1.21 1.184-3.18 1.193-4.388.008-2.449-2.401-5.799-3.884-9.501-3.884s-7.052 1.483-9.501 3.884c-1.206 1.182-3.176 1.182-4.381 0-2.449-2.401-5.799-3.884-9.501-3.884s-7.052 1.483-9.501 3.884c-1.206 1.182-3.176 1.182-4.381 0-2.449-2.401-5.799-3.884-9.501-3.884s-7.052 1.483-9.501 3.884c-1.206 1.182-3.176 1.182-4.381 0-2.45-2.401-5.799-3.884-9.501-3.884s-7.052 1.483-9.501 3.884c-1.206 1.182-3.176 1.182-4.381 0-2.449-2.401-5.799-3.884-9.501-3.884s-7.052 1.483-9.501 3.884c-1.206 1.182-3.176 1.182-4.381 0-2.449-2.401-5.799-3.884-9.501-3.884s-7.052 1.483-9.501 3.884c-1.206 1.182-3.176 1.182-4.381 0-2.449-2.401-5.799-3.884-9.501-3.884s-7.052 1.483-9.501 3.884c-1.206 1.182-3.176 1.182-4.381 0-2.449-2.401-5.799-3.884-9.501-3.884s-7.052 1.483-9.501 3.884c-1.206 1.182-3.176 1.182-4.381 0-2.449-2.401-5.799-3.884-9.501-3.884s-7.052 1.483-9.501 3.884c-1.209 1.185-3.179 1.176-4.389-.008-2.817-2.756-6.821-4.3-11.182-3.774l-2.74.337c-2.371.291-4.153 2.305-4.153 4.695v106.264c0 2.719 2.204 4.923 4.923 4.923h241.155c2.719 0 4.923-2.204 4.923-4.923v-106.347c-.007-2.343-1.755-4.319-4.082-4.604z" fill="#87d147"/></g></g><g><g><path d="m246.606 207.282c-4.361-.526-8.365 1.018-11.182 3.774-1.21 1.184-3.18 1.193-4.389.008-2.449-2.401-5.799-3.884-9.501-3.884s-7.052 1.483-9.501 3.884c-1.206 1.182-3.176 1.182-4.381 0-2.449-2.401-5.799-3.884-9.501-3.884-3.065 0-5.879 1.028-8.15 2.74v.686c0 1.598-1.296 2.894-2.894 2.894h-118.213c-1.598 0-2.894-1.296-2.894-2.894v-.686c-2.271-1.712-5.086-2.74-8.15-2.74-3.702 0-7.052 1.483-9.501 3.884-1.206 1.182-3.176 1.182-4.381 0-2.449-2.401-5.799-3.884-9.501-3.884s-7.052 1.483-9.501 3.884c-1.209 1.185-3.179 1.176-4.389-.008-2.817-2.756-6.821-4.3-11.182-3.774l-6.895.847v40.448c0 2.719 2.204 4.923 4.923 4.923h241.155c2.719 0 4.923-2.204 4.923-4.923v-40.451z" fill="#b2e26d"/></g></g><g><g><path d="m2.5 237v11.577c0 2.719 2.204 4.923 4.923 4.923h64.234v-16.5z" fill="#818182"/></g></g><g><g><path d="m83.344 237h89.313v16.5h-89.313z" fill="#818182"/></g></g><g><g><path d="m184.344 237v16.5h64.234c2.719 0 4.923-2.204 4.923-4.923v-11.577z" fill="#818182"/></g></g><g><g><circle cx="52.609" cy="35.558" fill="#f5c84c" r="19.243"/></g></g><g><g><path d="m164.543 73.836c-2.256-.719-3.649-3.115-3.021-5.398.351-1.277.539-2.622.539-4.011 0-6.72-4.388-12.503-10.56-14.458-2.306-.73-3.571-3.199-2.953-5.537.573-2.169.676-4.528.189-6.968-1.179-5.907-5.953-10.657-11.87-11.791-9.703-1.859-18.186 5.527-18.186 14.895 0 1.389.188 2.733.539 4.01.626 2.276-.751 4.68-3.001 5.394-6.168 1.958-10.552 7.738-10.552 14.456 0 1.389.188 2.734.539 4.011.628 2.283-.765 4.679-3.021 5.398-6.47 2.063-10.972 8.334-10.499 15.477.534 8.069 7.613 14.156 15.7 14.156h50.954c8.087 0 15.166-6.088 15.7-14.156.475-7.144-4.027-13.415-10.497-15.478z" fill="#b2e26d"/></g></g><g><g><path d="m233.005 65.134c-2.919-.931-4.72-4.031-3.908-6.984.454-1.652.698-3.392.698-5.189 0-8.694-5.677-16.175-13.662-18.704-2.983-.945-4.62-4.138-3.82-7.163.741-2.806.875-5.858.245-9.014-1.526-7.642-7.701-13.787-15.355-15.253-12.553-2.405-23.527 7.151-23.527 19.269 0 1.796.243 3.535.697 5.187.809 2.944-.972 6.054-3.882 6.978-7.979 2.533-13.651 10.011-13.651 18.701v.014c3.21 2.793 5.222 6.905 5.222 11.451 0 1.39-.188 2.734-.54 4.011-.628 2.283.765 4.679 3.021 5.399 6.47 2.063 10.971 8.334 10.499 15.476-.523 7.899-7.32 13.883-15.192 14.133.17.004.337.024.508.024h65.918c10.461 0 19.62-7.875 20.311-18.314.611-9.24-5.212-17.353-13.582-20.022z" fill="#87d147"/></g></g><g><g><path d="m188.369 103.469v37.819c.094-.073.193-.139.28-.224 2.45-2.401 5.799-3.884 9.501-3.884.727 0 1.435.073 2.13.183v-33.894z" fill="#c18e6b"/></g></g><g><g><path d="m127.909 103.469v33.715c.031 0 .06-.004.091-.004 3.702 0 7.052 1.483 9.501 3.884.636.623 1.483.908 2.32.874v-38.469z" fill="#c18e6b"/></g></g><g><g><path d="m187.106 158.5h-118.212c-1.598 0-2.894 1.296-2.894 2.894v5.212c0 1.598 1.296 2.894 2.894 2.894h118.212c1.598 0 2.894-1.296 2.894-2.894v-5.212c0-1.598-1.296-2.894-2.894-2.894z" fill="#dae6f1"/></g></g><g><g><path d="m187.106 180.5h-118.212c-1.598 0-2.894 1.296-2.894 2.894v5.212c0 1.598 1.296 2.894 2.894 2.894h118.212c1.598 0 2.894-1.296 2.894-2.894v-5.212c0-1.598-1.296-2.894-2.894-2.894z" fill="#dae6f1"/></g></g><g><g><path d="m83.344 213.5h89.313v11h-89.313z" fill="#c7d7e5"/></g></g><g><g><path d="m187.106 202.5h-118.212c-1.598 0-2.894 1.296-2.894 2.894v5.212c0 1.598 1.296 2.894 2.894 2.894h118.212c1.598 0 2.894-1.296 2.894-2.894v-5.212c0-1.598-1.296-2.894-2.894-2.894z" fill="#edf4fc"/></g></g><g><g><path d="m172.656 213.5h11.688v40h-11.688z" fill="#dae6f1"/></g></g><g><g><path d="m71.656 213.5h11.688v40h-11.688z" fill="#dae6f1"/></g></g><g><g><path d="m172.656 169.5h11.688v11h-11.688z" fill="#c7d7e5"/></g></g><g><g><path d="m172.656 191.5h11.688v11h-11.688z" fill="#c7d7e5"/></g></g><g><g><path d="m71.656 169.5h11.688v11h-11.688z" fill="#c7d7e5"/></g></g><g><g><path d="m71.656 191.5h11.688v11h-11.688z" fill="#c7d7e5"/></g></g><g><g><path d="m20.97 88.1h-2.4v-2.3c0-1.8-1.4-3.2-3.2-3.2-1.7 0-3.2 1.4-3.2 3.1v2.4h-2.3c-1.8 0-3.2 1.4-3.2 3.2-.1 1.7 1.3 3.2 3.2 3.2h2.3v2.3c0 1.8 1.4 3.2 3.2 3.2 1.7 0 3.2-1.4 3.2-3.1v-2.4h2.3c1.8 0 3.2-1.4 3.2-3.2 0-1.7-1.4-3.2-3.1-3.2z" fill="#70d6f9"/></g></g><g><g><path d="m233.052 120.2c-3.1-.6-5.6-3-6.2-6.1 0-.1-.3-.1-.3 0-.6 3.1-3.1 5.5-6.2 6.1-.1 0-.1.2 0 .3 3.1.6 5.6 3 6.2 6.1 0 .1.3.1.3 0 .6-3.1 3.1-5.5 6.2-6.1.1-.1.1-.3 0-.3z" fill="#87d147"/></g></g><g><g><path d="m150.052 9.2c-3.1-.6-5.6-3-6.2-6.1 0-.1-.3-.1-.3 0-.6 3.1-3.1 5.5-6.2 6.1-.1 0-.1.2 0 .3 3.1.6 5.6 3 6.2 6.1 0 .1.3.1.3 0 .6-3.1 3.1-5.5 6.2-6.1.1-.1.1-.3 0-.3z" fill="#f5c84c"/></g></g><g><g><g><path d="m52.609 13.815c-11.989 0-21.743 9.754-21.743 21.743s9.754 21.743 21.743 21.743 21.743-9.754 21.743-21.743-9.753-21.743-21.743-21.743zm0 38.487c-9.232 0-16.743-7.511-16.743-16.743s7.511-16.743 16.743-16.743 16.743 7.511 16.743 16.743-7.51 16.743-16.743 16.743z"/></g></g></g><g><g><path d="m52.609 0c-1.381 0-2.5 1.119-2.5 2.5v3.947c0 1.381 1.119 2.5 2.5 2.5s2.5-1.119 2.5-2.5v-3.947c0-1.381-1.119-2.5-2.5-2.5z"/></g></g><g><g><path d="m52.609 62.17c-1.381 0-2.5 1.119-2.5 2.5v3.947c0 1.381 1.119 2.5 2.5 2.5s2.5-1.119 2.5-2.5v-3.947c0-1.381-1.119-2.5-2.5-2.5z"/></g></g><g><g><path d="m33.792 13.206-2.791-2.791c-.977-.977-2.559-.977-3.535 0s-.977 2.559 0 3.535l2.791 2.791c.488.488 1.128.732 1.768.732s1.279-.244 1.768-.732c.976-.976.976-2.558-.001-3.535z"/></g></g><g><g><path d="m77.754 57.167-2.791-2.792c-.977-.977-2.56-.976-3.536-.001-.977.977-.977 2.56-.001 3.536l2.791 2.792c.488.488 1.129.732 1.769.732s1.279-.244 1.768-.731c.975-.976.975-2.559 0-3.536z"/></g></g><g><g><path d="m23.498 33.059h-3.947c-1.381 0-2.5 1.119-2.5 2.5s1.119 2.5 2.5 2.5h3.947c1.381 0 2.5-1.119 2.5-2.5s-1.119-2.5-2.5-2.5z"/></g></g><g><g><path d="m85.668 33.059h-3.947c-1.381 0-2.5 1.119-2.5 2.5s1.119 2.5 2.5 2.5h3.947c1.381 0 2.5-1.119 2.5-2.5s-1.119-2.5-2.5-2.5z"/></g></g><g><g><path d="m33.792 54.374c-.977-.975-2.56-.976-3.536.001l-2.791 2.792c-.976.977-.976 2.56.001 3.536.488.487 1.128.731 1.768.731s1.28-.244 1.769-.732l2.791-2.792c.975-.976.975-2.559-.002-3.536z"/></g></g><g><g><path d="m77.753 10.415c-.977-.977-2.559-.977-3.535 0l-2.791 2.791c-.977.977-.977 2.559 0 3.535.488.488 1.128.732 1.768.732s1.279-.244 1.768-.732l2.791-2.791c.975-.976.975-2.558-.001-3.535z"/></g></g><g><g><path d="m112.27 0c-1.878 0-3.4 1.522-3.4 3.4s1.522 3.4 3.4 3.4 3.4-1.522 3.4-3.4-1.522-3.4-3.4-3.4z" fill="#fc657e"/></g></g><g><g><path d="m34.337 109.2c-1.878 0-3.4 1.522-3.4 3.4s1.522 3.4 3.4 3.4 3.4-1.522 3.4-3.4-1.523-3.4-3.4-3.4z" fill="#f5c84c"/></g></g><g><g><g><path d="m165.303 71.455c-1.006-.321-1.633-1.399-1.37-2.354.417-1.515.629-3.088.629-4.675 0-7.742-4.945-14.51-12.305-16.842-.995-.314-1.574-1.442-1.291-2.516.695-2.634.771-5.357.224-8.095-1.378-6.905-6.944-12.434-13.851-13.757-5.285-1.011-10.654.342-14.734 3.715-4.082 3.375-6.423 8.345-6.423 13.636 0 1.581.211 3.153.629 4.672.263.958-.354 2.033-1.347 2.349-7.354 2.333-12.296 9.1-12.296 16.838 0 1.583.211 3.155.629 4.674.263.955-.365 2.034-1.37 2.354-7.742 2.468-12.772 9.88-12.233 18.023.613 9.247 8.605 16.49 18.194 16.49h50.954c9.591 0 17.583-7.244 18.194-16.491.539-8.142-4.491-15.553-12.233-18.021zm7.245 17.692c-.439 6.629-6.24 11.821-13.206 11.821h-50.954c-6.966 0-12.766-5.192-13.206-11.82-.387-5.845 3.218-11.161 8.765-12.93 3.545-1.131 5.641-4.919 4.672-8.443-.299-1.087-.45-2.213-.45-3.349 0-5.549 3.54-10.4 8.808-12.072 3.538-1.122 5.627-4.909 4.656-8.439-.299-1.087-.45-2.213-.45-3.347 0-3.795 1.68-7.36 4.608-9.781 2.31-1.91 5.102-2.905 8.048-2.905.843 0 1.699.081 2.56.246 4.931.945 8.904 4.894 9.889 9.825.396 1.985.344 3.95-.154 5.84-.971 3.672 1.057 7.432 4.615 8.559 5.272 1.671 8.814 6.523 8.814 12.075 0 1.139-.151 2.265-.449 3.348-.97 3.525 1.126 7.313 4.671 8.444 5.545 1.768 9.15 7.085 8.763 12.928z"/></g></g></g><g><g><path d="m233.764 62.752c-1.693-.539-2.705-2.307-2.257-3.938.523-1.898.788-3.868.788-5.854 0-9.694-6.191-18.169-15.407-21.088-1.683-.532-2.631-2.352-2.158-4.141.871-3.297.965-6.71.279-10.143-1.727-8.645-8.693-15.563-17.336-17.219-6.62-1.271-13.346.428-18.454 4.65-5.111 4.226-8.043 10.448-8.043 17.074 0 1.983.265 3.951.787 5.85.441 1.607-.579 3.409-2.229 3.933-8.837 2.804-15.017 10.926-15.378 20.211-.054 1.38 1.021 2.542 2.4 2.596 1.375.038 2.542-1.021 2.596-2.4.279-7.187 5.06-13.472 11.895-15.641 4.205-1.335 6.689-5.832 5.536-10.024-.403-1.467-.607-2.988-.607-4.523 0-5.13 2.271-9.948 6.229-13.22 3.955-3.271 9.178-4.581 14.327-3.595 6.668 1.277 12.042 6.617 13.375 13.287.534 2.68.464 5.333-.211 7.887-1.154 4.372 1.254 8.846 5.482 10.185 7.128 2.258 11.917 8.817 11.917 16.321 0 1.537-.205 3.06-.608 4.527-1.151 4.187 1.344 8.685 5.559 10.027 7.498 2.391 12.37 9.576 11.848 17.475-.594 8.96-8.42 15.979-17.816 15.979h-65.918c-1.381 0-2.5 1.119-2.5 2.5s1.119 2.5 2.5 2.5h65.918c12.021 0 22.038-9.07 22.805-20.649.673-10.196-5.625-19.476-15.319-22.567z"/></g></g><g><g><path d="m128.944 121.587-9.068-9.068c-.977-.977-2.559-.977-3.535 0s-.977 2.559 0 3.535l9.068 9.068c.488.488 1.128.732 1.768.732s1.279-.244 1.768-.732c.976-.976.976-2.559-.001-3.535z"/></g></g><g><g><g><path d="m249.729 135.146-2.823-.346c-4.909-.587-9.726 1.038-13.23 4.47-.241.234-.657.24-.891.01-3.025-2.966-7.021-4.6-11.251-4.6s-8.226 1.634-11.251 4.599c-.233.23-.646.233-.882.001-3.025-2.966-7.021-4.6-11.251-4.6s-8.226 1.634-11.251 4.599c-.232.23-.646.233-.882.001-3.025-2.966-7.021-4.6-11.251-4.6s-8.226 1.634-11.251 4.6c-.234.23-.646.23-.881 0-3.025-2.966-7.021-4.6-11.251-4.6s-8.226 1.634-11.251 4.599c-.233.23-.646.233-.882.001-3.025-2.966-7.021-4.6-11.251-4.6s-8.226 1.634-11.251 4.599c-.232.23-.646.233-.882.001-3.025-2.966-7.021-4.6-11.251-4.6s-8.226 1.634-11.251 4.599c-.235.231-.647.23-.881.001-3.025-2.966-7.021-4.6-11.251-4.6s-8.226 1.634-11.251 4.599c-.233.23-.646.233-.882.001-3.025-2.966-7.021-4.6-11.251-4.6s-8.226 1.634-11.251 4.599c-.232.23-.646.233-.882.001-3.025-2.966-7.021-4.6-11.251-4.6s-8.226 1.634-11.251 4.599c-.233.232-.649.228-.891-.009-3.507-3.432-8.329-5.061-13.235-4.469l-2.74.337c-3.618.444-6.347 3.529-6.347 7.175v106.264c0 4.093 3.33 7.423 7.423 7.423h241.154c4.093 0 7.423-3.33 7.423-7.423v-106.346c0-3.601-2.695-6.647-6.271-7.085zm1.271 113.431c0 1.336-1.087 2.423-2.423 2.423h-241.154c-1.336 0-2.423-1.087-2.423-2.423v-106.264c0-1.125.842-2.076 1.958-2.213l2.735-.336c.458-.056.915-.083 1.368-.083 2.902 0 5.676 1.116 7.766 3.161 2.176 2.132 5.714 2.135 7.888.007 2.085-2.044 4.838-3.17 7.751-3.17s5.666 1.126 7.751 3.171c2.174 2.129 5.708 2.127 7.882-.001 2.085-2.044 4.838-3.17 7.751-3.17s5.666 1.126 7.751 3.171c2.174 2.129 5.708 2.127 7.882-.001 2.085-2.044 4.838-3.17 7.751-3.17s5.666 1.126 7.751 3.17c2.173 2.13 5.708 2.128 7.881 0 2.085-2.044 4.838-3.17 7.751-3.17s5.666 1.126 7.751 3.171c2.174 2.129 5.708 2.127 7.882-.001 2.085-2.044 4.838-3.17 7.751-3.17s5.666 1.126 7.751 3.171c2.174 2.129 5.708 2.127 7.882-.001 2.085-2.044 4.838-3.17 7.751-3.17s5.666 1.126 7.751 3.171c2.175 2.13 5.71 2.127 7.881-.001 2.085-2.044 4.838-3.17 7.751-3.17s5.666 1.126 7.751 3.171c2.174 2.129 5.708 2.127 7.882-.001 2.085-2.044 4.838-3.17 7.751-3.17s5.666 1.126 7.751 3.171c2.175 2.129 5.709 2.127 7.882-.001 2.085-2.044 4.838-3.17 7.751-3.17s5.666 1.126 7.751 3.17c2.17 2.127 5.708 2.126 7.888-.007 2.416-2.366 5.746-3.483 9.13-3.079l2.818.345c1.071.131 1.879 1.044 1.879 2.123v106.346z"/></g></g></g><g><g><path d="m200.281 101.896c-1.381 0-2.5 1.119-2.5 2.5v32.167c0 1.381 1.119 2.5 2.5 2.5s2.5-1.119 2.5-2.5v-32.167c0-1.381-1.119-2.5-2.5-2.5z"/></g></g><g><g><path d="m188.369 101.854c-1.381 0-2.5 1.119-2.5 2.5v36.271c0 1.381 1.119 2.5 2.5 2.5s2.5-1.119 2.5-2.5v-36.271c0-1.38-1.119-2.5-2.5-2.5z"/></g></g><g><g><path d="m139.82 102.208c-1.381 0-2.5 1.119-2.5 2.5v36.87c0 1.381 1.119 2.5 2.5 2.5s2.5-1.119 2.5-2.5v-36.87c0-1.381-1.119-2.5-2.5-2.5z"/></g></g><g><g><path d="m127.909 102.125c-1.381 0-2.5 1.119-2.5 2.5v31.479c0 1.381 1.119 2.5 2.5 2.5s2.5-1.119 2.5-2.5v-31.479c0-1.381-1.119-2.5-2.5-2.5z"/></g></g><g><g><path d="m67.044 207.588c-2.717-1.902-5.896-2.908-9.194-2.908-4.23 0-8.226 1.634-11.251 4.599-.232.23-.646.232-.882.001-3.025-2.966-7.021-4.6-11.251-4.6s-8.226 1.634-11.251 4.599c-.233.231-.65.226-.89-.008-3.507-3.434-8.332-5.065-13.236-4.47l-6.077.747c-1.371.169-2.345 1.416-2.177 2.786.169 1.371 1.417 2.347 2.786 2.177l6.072-.746c3.388-.412 6.717.714 9.134 3.078 2.176 2.131 5.714 2.136 7.888.007 2.085-2.044 4.838-3.17 7.751-3.17s5.666 1.126 7.751 3.171c1.087 1.064 2.514 1.597 3.94 1.596 1.428 0 2.854-.532 3.941-1.597 2.085-2.044 4.838-3.17 7.751-3.17 2.267 0 4.454.693 6.325 2.004 1.133.793 2.691.518 3.482-.613.793-1.132.519-2.691-.612-3.483z"/></g></g><g><g><path d="m252.985 205.545-6.079-.745c-4.909-.585-9.726 1.038-13.231 4.471-.239.233-.656.238-.89.009-3.025-2.966-7.021-4.6-11.251-4.6s-8.226 1.634-11.251 4.599c-.233.23-.646.232-.882.001-3.025-2.966-7.021-4.6-11.251-4.6-3.282 0-6.448.996-9.156 2.882-1.133.789-1.412 2.348-.623 3.48s2.346 1.41 3.48.623c1.865-1.299 4.043-1.985 6.299-1.985 2.913 0 5.666 1.126 7.751 3.171 1.087 1.064 2.514 1.597 3.94 1.596 1.428 0 2.854-.532 3.941-1.597 2.085-2.044 4.838-3.17 7.751-3.17s5.666 1.126 7.751 3.171c2.173 2.128 5.711 2.124 7.888-.008 2.416-2.365 5.745-3.484 9.13-3.079l6.075.744c1.361.175 2.617-.806 2.785-2.178.169-1.37-.806-2.617-2.177-2.785z"/></g></g><g><g><g><path d="m187.106 156h-118.212c-2.974 0-5.394 2.42-5.394 5.394v5.213c0 2.974 2.42 5.394 5.394 5.394h118.213c2.974 0 5.394-2.42 5.394-5.394v-5.213c-.001-2.974-2.421-5.394-5.395-5.394zm.394 10.606c0 .217-.177.394-.394.394h-118.212c-.217 0-.394-.177-.394-.394v-5.213c0-.217.177-.394.394-.394h118.213c.217 0 .394.177.394.394v5.213z"/></g></g></g><g><g><g><path d="m187.106 178h-118.212c-2.974 0-5.394 2.42-5.394 5.394v5.213c0 2.974 2.42 5.394 5.394 5.394h118.213c2.974 0 5.394-2.42 5.394-5.394v-5.213c-.001-2.974-2.421-5.394-5.395-5.394zm.394 10.606c0 .217-.177.394-.394.394h-118.212c-.217 0-.394-.177-.394-.394v-5.213c0-.217.177-.394.394-.394h118.213c.217 0 .394.177.394.394v5.213z"/></g></g></g><g><g><path d="m171.688 222h-86.855c-1.381 0-2.5 1.119-2.5 2.5s1.119 2.5 2.5 2.5h86.854c1.381 0 2.5-1.119 2.5-2.5s-1.119-2.5-2.499-2.5z"/></g></g><g><g><g><path d="m187.106 200h-118.212c-2.974 0-5.394 2.42-5.394 5.394v5.213c0 2.974 2.42 5.394 5.394 5.394h118.213c2.974 0 5.394-2.42 5.394-5.394v-5.213c-.001-2.974-2.421-5.394-5.395-5.394zm.394 10.606c0 .217-.177.394-.394.394h-118.212c-.217 0-.394-.177-.394-.394v-5.213c0-.217.177-.394.394-.394h118.213c.217 0 .394.177.394.394v5.213z"/></g></g></g><g><g><path d="m184.344 212.063c-1.381 0-2.5 1.119-2.5 2.5v37.687c0 1.381 1.119 2.5 2.5 2.5s2.5-1.119 2.5-2.5v-37.687c0-1.38-1.119-2.5-2.5-2.5z"/></g></g><g><g><path d="m172.656 212c-1.381 0-2.5 1.119-2.5 2.5v38.083c0 1.381 1.119 2.5 2.5 2.5s2.5-1.119 2.5-2.5v-38.083c0-1.381-1.119-2.5-2.5-2.5z"/></g></g><g><g><path d="m83.344 212.25c-1.381 0-2.5 1.119-2.5 2.5v37.292c0 1.381 1.119 2.5 2.5 2.5s2.5-1.119 2.5-2.5v-37.292c0-1.381-1.119-2.5-2.5-2.5z"/></g></g><g><g><path d="m71.656 212.188c-1.381 0-2.5 1.119-2.5 2.5v37.604c0 1.381 1.119 2.5 2.5 2.5s2.5-1.119 2.5-2.5v-37.604c0-1.381-1.119-2.5-2.5-2.5z"/></g></g><g><g><path d="m184.344 168.126c-1.381 0-2.5 1.119-2.5 2.5v8.687c0 1.381 1.119 2.5 2.5 2.5s2.5-1.119 2.5-2.5v-8.687c0-1.381-1.119-2.5-2.5-2.5z"/></g></g><g><g><path d="m172.656 168.25c-1.381 0-2.5 1.119-2.5 2.5v8.563c0 1.381 1.119 2.5 2.5 2.5s2.5-1.119 2.5-2.5v-8.563c0-1.381-1.119-2.5-2.5-2.5z"/></g></g><g><g><path d="m184.344 190.208c-1.381 0-2.5 1.119-2.5 2.5v8.375c0 1.381 1.119 2.5 2.5 2.5s2.5-1.119 2.5-2.5v-8.375c0-1.381-1.119-2.5-2.5-2.5z"/></g></g><g><g><path d="m172.656 190.25c-1.381 0-2.5 1.119-2.5 2.5v8.333c0 1.381 1.119 2.5 2.5 2.5s2.5-1.119 2.5-2.5v-8.333c0-1.381-1.119-2.5-2.5-2.5z"/></g></g><g><g><path d="m83.344 168.083c-1.381 0-2.5 1.119-2.5 2.5v8.584c0 1.381 1.119 2.5 2.5 2.5s2.5-1.119 2.5-2.5v-8.584c0-1.381-1.119-2.5-2.5-2.5z"/></g></g><g><g><path d="m71.656 168.083c-1.381 0-2.5 1.119-2.5 2.5v8.584c0 1.381 1.119 2.5 2.5 2.5s2.5-1.119 2.5-2.5v-8.584c0-1.381-1.119-2.5-2.5-2.5z"/></g></g><g><g><path d="m83.344 190.688c-1.381 0-2.5 1.119-2.5 2.5v8.063c0 1.381 1.119 2.5 2.5 2.5s2.5-1.119 2.5-2.5v-8.063c0-1.381-1.119-2.5-2.5-2.5z"/></g></g><g><g><path d="m71.656 190.563c-1.381 0-2.5 1.119-2.5 2.5v8.188c0 1.381 1.119 2.5 2.5 2.5s2.5-1.119 2.5-2.5v-8.188c0-1.381-1.119-2.5-2.5-2.5z"/></g></g></g></g></svg>