<svg id="Pond" enable-background="new 0 0 400 400" height="512" viewBox="0 0 400 400" width="512" xmlns="http://www.w3.org/2000/svg"><g><path d="m84.318 176.979h25.529c-.284-1.315-.575-2.585-.887-3.855-3.784-15.708-9.187-28.587-15.147-38.881-15.779-27.384-35.832-34.909-38.477-32.174s9.976 26.246 15.59 63.501c1.025 6.792 6.425 11.409 13.392 11.409z" fill="#45c941"/><path d="m117.703 176.979h26.69c6.111 0 10.796-4.093 11.459-9.985 4.539-40.31 20.275-65.035 16.501-67.666s-23.018 5.001-38.67 32.491c-6.45 11.345-12.193 25.798-15.686 43.689-.106.478-.209.975-.294 1.471z" fill="#45c941"/><path d="m88.778 176.98h48.449c-2.194-16.806-2.404-31.847-1.572-45.16 2.717-43.707 14.174-73.441 9.889-76.198s-33.834 16.328-48.43 66.802c-4.255 14.673-7.291 31.792-8.206 51.375-.051 1.048-.101 2.096-.13 3.181z" fill="#5ce259"/><path d="m39.477 186.917c-10.658 15.911 23.25 15.894 20.055 28.463-3.34 13.135-55.632 25.17-54.961 53.757.773 32.945 68.291 70.981 191.391 68.095 123.1-2.887 200.475-39.785 199.468-82.751-2.763-117.815-324.36-114.729-355.953-67.564z" fill="#5ab5ff"/><path d="m395.427 254.483c1.02 42.958-76.356 79.862-199.462 82.762-19.599.446-37.764-.127-54.495-1.53 144.868-29.668 177.707-137.871 128.875-171.005 67.655 12.684 123.935 40.76 125.082 89.773z" opacity=".1"/><ellipse cx="164.41" cy="283.626" fill="#7af476" rx="57.344" ry="22.421"/><path d="m221.745 283.61c0 12.397-25.653 22.435-57.33 22.435-8.605 0-16.763-.733-24.093-2.072 34.768-6.246 55.291-23.774 48.152-40.696 19.663 3.539 33.271 11.315 33.271 20.333z" opacity=".1"/><path d="m384.391 329.102v.163c-.029 8.576-7.325 15.368-15.901 15.368h-72.088c-8.534 0-15.856-6.726-15.902-15.259 0-.091-.001-.181-.001-.272 0-27.661 23.251-50.039 51.969-50.039 28.672 0 51.923 22.377 51.923 50.039z" fill="#5e5e5e"/><path d="m319.177 333.861v.113c-.02 5.948-5.081 10.659-11.028 10.659h-49.997c-5.919 0-10.997-4.665-11.029-10.583 0-.063-.001-.126-.001-.188 0-19.185 16.125-34.704 36.043-34.704 19.886-.001 36.012 15.519 36.012 34.703z" fill="#777776"/><path d="m319.166 333.866v.096c0 5.959-5.067 10.676-11.026 10.676h-39.326c20.746-5.991 34.322-26.196 20.492-44.966 16.954 2.804 29.86 17.017 29.86 34.194z" opacity=".1"/><path d="m399.989 254.369c0 .001 0 .001 0 0zm-22.841 41.382c7.723 9.641 11.8 21.155 11.8 33.347v.168c-.031 10.988-9.209 19.925-20.458 19.925l-110.339.005c-6.65 0-12.629-4.222-14.76-10.341-15.087 1.568-31.001 2.56-47.315 2.946-4.329.101-8.841.153-13.408.153-64.888 0-106.514-11.48-130.008-21.111-33.01-13.527-52.201-32.332-52.652-51.597-.484-20.356 20.608-32.466 37.555-42.196l.168-.096c7.384-4.258 16.574-9.558 17.375-12.694.463-1.804-2.344-3.606-8.412-6.724-5.893-3.033-11.951-6.151-13.513-12.205-.894-3.447-.054-7.133 2.499-10.954 4.843-7.232 15.154-13.531 30.651-18.728-3.221-20.931-8.619-37.284-12.203-48.142-3.722-11.26-5.114-15.473-2.072-18.618 1.502-1.553 3.703-2.16 6.538-1.81 7.99.981 21.76 9.574 33.549 26.139.193-.69.39-1.378.593-2.065 12.194-42.186 35.67-65.02 47.604-69.503 3.136-1.173 5.717-1.128 7.676.132 4.634 2.972 3.417 9 .167 25.111l-.022.111c-1.812 8.92-4.256 20.957-6.041 34.996 8.165-9.211 17.362-15.625 24.934-17.321 3.32-.752 5.98-.445 7.907.912 4.409 3.058 2.605 8.079-1.346 19.079-3.281 9.139-7.74 21.558-10.834 37.393 4.248-.096 8.448-.144 12.498-.144 47.614 0 93.828 5.818 130.132 16.382 60.98 17.752 93.685 47.515 94.579 86.068.353 14.647-7.541 28.943-22.842 41.382zm-246.499-150.846c.015-4.33.164-8.83.444-13.37.107-1.595.214-3.155.337-4.715 1.68-21.533 5.353-39.649 7.784-51.637 1.134-5.59 2.182-10.878 2.576-14.2-7.984 4.387-28.755 22.798-40.29 62.713-1.05 3.635-1.936 7.057-2.707 10.463l-.001.004c-.883 3.813-1.687 7.872-2.388 12.063-.626 3.685-1.176 7.718-1.678 12.302 11.005-2.047 23.124-3.646 36.051-4.759-.105-3.284-.147-6.191-.128-8.864zm9.239 8.162c4.267-.284 8.817-.522 13.546-.71 3.3-17.719 8.277-31.571 11.582-40.771.93-2.582 1.962-5.447 2.639-7.634-5.54 1.932-16.793 9.106-27.282 25.579l-.171 2.573c-.428 6.913-.532 13.779-.314 20.963zm183.852 180.793v.114c-.007 2.095-.46 4.176-1.319 6.089h46.069c6.233 0 11.316-4.851 11.331-10.814v-.151c0-25.073-21.241-45.471-47.35-45.471-12.783 0-25.113 5.04-34.015 13.866 15.172 5.997 25.284 20.47 25.284 36.367zm-72.054 0 .001.164c.018 3.332 2.917 6.043 6.464 6.043h49.996c3.554 0 6.453-2.74 6.464-6.108v-.099c0-16.618-14.106-30.139-31.446-30.139-17.357 0-31.479 13.521-31.479 30.139zm-209.523-98.934c-14.903 8.573-33.382 19.202-33.026 34.103.359 15.245 17.926 31.46 46.992 43.376 24.784 10.155 69.142 21.917 139.729 20.268 16.154-.383 31.94-1.368 46.929-2.925 2.143-19.763 19.756-35.155 40.378-35.155 1.722 0 3.492.114 5.267.338 10.818-12.99 26.844-20.432 44.038-20.432 14.303 0 27.919 5.19 38.415 14.628 13.355-10.655 20.259-22.588 19.973-34.537-1.012-43.207-48.416-66.005-88.006-77.522-35.787-10.428-81.374-16.117-126.693-16.117-11.137 0-22.248.343-33.205 1.044-51.588 3.298-90.715 14.077-99.682 27.46-1.308 1.954-1.406 3.032-1.257 3.592.551 2.136 5.35 4.58 8.854 6.365 6.907 3.565 15.41 7.955 13.089 17.096-1.753 6.891-10.598 11.978-21.795 18.418zm47.002-99.552c-10.467-17.66-22.449-25.932-28.836-28.46.614 2.093 1.494 4.771 2.352 7.378l.12.365c3.586 10.862 8.981 27.204 12.338 48.316 3.305-.911 6.729-1.763 10.198-2.539.86-8.728 2.148-17.155 3.828-25.06zm13.337 148.252c0-17.527 31.897-26.985 61.909-26.985s61.909 9.458 61.909 26.985c0 17.528-31.897 26.986-61.909 26.986s-61.909-9.458-61.909-26.986zm114.689 0c0-8.257-23.056-17.856-52.78-17.856-29.725 0-52.781 9.599-52.781 17.856 0 8.258 23.056 17.857 52.781 17.857 29.724 0 52.78-9.599 52.78-17.857zm-19.865-59.116h22.946c2.517 0 4.564-2.048 4.564-4.565s-2.047-4.564-4.564-4.564h-22.946c-2.517 0-4.564 2.047-4.564 4.564s2.047 4.565 4.564 4.565zm-39.107-24.862h22.945c2.516 0 4.564-2.048 4.564-4.564s-2.048-4.564-4.564-4.564h-22.945c-2.517 0-4.564 2.048-4.564 4.564s2.048 4.564 4.564 4.564zm84.702 3.135h22.945c2.517 0 4.564-2.048 4.564-4.564 0-2.517-2.047-4.564-4.564-4.564h-22.945c-2.517 0-4.565 2.048-4.565 4.564s2.048 4.564 4.565 4.564zm31.052 29.16h22.945c2.517 0 4.565-2.048 4.565-4.565s-2.048-4.564-4.565-4.564h-22.945c-2.517 0-4.564 2.047-4.564 4.564s2.047 4.565 4.564 4.565z" fill="#0f0f0f"/></g></svg>