<svg height="512" viewBox="0 0 256 256" width="512" xmlns="http://www.w3.org/2000/svg"><g id="Layer_1"><g><path d="m113.995 28.286v10.34c0 1.91.39 3.74 1.08 5.4 2.12 5.05 7.11 8.6 12.92 8.6 5.82 0 10.81-3.55 12.92-8.6.7-1.66 1.08-3.49 1.08-5.4v-10.34c0-7.64-6.18-14-14-14-7.78 0-14 6.321-14 14z" fill="#ffb69f"/><path d="m158.76 59.021v7.15c-7.82 0-14 6.35-14 14v10.33c0 1.92.38 3.74 1.08 5.4h-2.84c-8.28 0-15 6.72-15 15 0-8.28-6.72-15-15-15h-2.83c.69-1.66 1.08-3.48 1.08-5.4v-10.33c0-7.68-6.22-14-14-14h-.01v-7.15c0-8.17 6.64-15 15-15h2.84c2.12 5.05 7.1 8.6 12.91 8.6 5.82 0 10.81-3.55 12.93-8.6h2.84c8.28 0 15 6.72 15 15z" fill="#f0c020"/><path d="m158.76 59.171v7c-7.82 0-14 6.35-14 14v10.33c0 1.92.38 3.74 1.08 5.4h-2.84c-8.28 0-15 6.72-15 15 0-8.28-6.72-15-15-15h-2.83c.69-1.66 1.08-3.48 1.08-5.4v-10.33c0-7.68-6.22-14-14-14h-.01v-7c11.6.01 21.01 9.42 21.01 21v9.37c3.71.91 7.05 2.76 9.75 5.29 2.71-2.53 6.05-4.38 9.76-5.29v-9.37c0-11.58 9.42-21 21-21z" fill="#e8a61e"/><g><path d="m230.422 97.808c-3.729-1.228-6.641-2.022-8.591-10.421-.635-2.737-4.548-2.729-5.181 0-1.907 8.213-4.566 9.092-8.591 10.422-2.424.801-2.43 4.248 0 5.051 6.686 2.209 7.444 5.476 8.591 10.421.637 2.743 4.545 2.742 5.182 0 1.905-8.212 4.709-9.139 8.591-10.421 2.423-.802 2.428-4.25-.001-5.052z"/><path d="m223.29 100.417c-1.47 1.04-2.79 2.42-3.93 4.44-.95-1.59-2.25-3.09-4.17-4.4 1.55-1.06 2.94-2.51 4.12-4.64 1.2 2.16 2.57 3.59 3.98 4.6z" fill="#f0c020"/></g><g><path d="m47.942 97.808c-3.729-1.228-6.641-2.022-8.591-10.421-.635-2.737-4.548-2.729-5.181 0-1.907 8.213-4.566 9.092-8.591 10.422-2.424.801-2.43 4.248 0 5.051 6.686 2.209 7.444 5.476 8.591 10.421.637 2.743 4.545 2.742 5.182 0 1.905-8.212 4.709-9.139 8.591-10.421 2.423-.802 2.429-4.25-.001-5.052z"/><path d="m40.81 100.417c-1.47 1.04-2.79 2.42-3.93 4.44-.95-1.59-2.25-3.09-4.17-4.4 1.55-1.06 2.94-2.51 4.12-4.64 1.2 2.16 2.57 3.59 3.98 4.6z" fill="#f0c020"/></g><path d="m111.25 80.171v10.33c0 1.92-.39 3.74-1.08 5.4-2.12 5.05-7.11 8.6-12.92 8.6h-.01c-5.82 0-10.8-3.55-12.91-8.6-.7-1.66-1.08-3.48-1.08-5.4v-10.33c0-7.65 6.17-13.99 13.99-14h.01c7.78 0 14 6.32 14 14z" fill="#ffb69f"/><path d="m128 110.901v7.64c-7.78 0-14 6.32-14 14v10.33c0 1.92.38 3.74 1.08 5.4h-2.84c-8.27 0-15 6.72-15 15 0-8.28-6.71-15-15-15h-2.84c.7-1.66 1.08-3.48 1.08-5.4v-10.33c0-7.65-6.17-13.99-13.99-14v-7.64c0-8.28 6.72-15 15-15h2.84c2.11 5.05 7.09 8.6 12.91 8.6h.01c5.81 0 10.8-3.55 12.92-8.6h2.83c8.28 0 15 6.72 15 15z" fill="#72c2e9"/><path d="m172.76 80.171v10.33c0 1.92-.39 3.74-1.08 5.4-2.12 5.05-7.11 8.6-12.92 8.6-5.82 0-10.81-3.55-12.92-8.6-.7-1.66-1.08-3.48-1.08-5.4v-10.33c0-7.65 6.18-14 14-14 7.78 0 14 6.32 14 14z" fill="#ffb69f"/><path d="m189.51 110.901v7.64c-7.79 0-14 6.32-14 14v10.33c0 1.92.39 3.74 1.08 5.4h-2.83c-8.29 0-15 6.72-15 15 0-8.28-6.72-15-15-15h-2.84c.7-1.66 1.08-3.48 1.08-5.4v-10.33c0-7.65-6.18-14-14-14v-7.64c0-8.28 6.72-15 15-15h2.84c2.11 5.05 7.1 8.6 12.92 8.6 5.81 0 10.8-3.55 12.92-8.6h2.83c8.28 0 15 6.72 15 15z" fill="#efefef"/><path d="m189.51 111.541v7c-7.79 0-14 6.32-14 14v10.33c0 1.92.39 3.74 1.08 5.4h-2.83c-8.29 0-15 6.72-15 15 0-8.28-6.72-15-15-15h-2.84c.7-1.66 1.08-3.48 1.08-5.4v-10.33c0-7.65-6.18-14-14-14v-7c11.58 0 21 9.42 21 21v9.36c3.71.91 7.06 2.76 9.77 5.29 2.7-2.52 6.04-4.37 9.74-5.28v-9.37c0-11.58 9.42-21 21-21z" fill="#afafaf"/><path d="m203.51 132.541v10.33c0 1.92-.38 3.74-1.09 5.4-2.1 5.05-7.09 8.6-12.91 8.6-5.81 0-10.8-3.55-12.92-8.6-.69-1.66-1.08-3.48-1.08-5.4v-10.33c0-7.68 6.21-14 14-14 7.82 0 14 6.351 14 14z" fill="#ffb69f"/><path d="m220.27 163.271v7.15c-7.82 0-14 6.35-14 14v10.33c0 1.92.38 3.74 1.08 5.4h-2.84c-8.307 0-15 6.758-15 15 0-8.242-6.693-15-15-15h-2.83c.69-1.66 1.08-3.48 1.08-5.4v-10.33c0-7.68-6.22-14-14-14v-7.15c0-8.28 6.71-15 15-15h2.83c2.12 5.05 7.11 8.6 12.92 8.6 5.82 0 10.81-3.55 12.91-8.6h2.85c8.27 0 15 6.72 15 15z" fill="#72c2e9"/><path d="m220.27 163.421v7c-7.82 0-14 6.35-14 14v10.33c0 1.92.38 3.74 1.08 5.4h-2.84c-8.307 0-15 6.758-15 15 0-8.242-6.693-15-15-15h-2.83c.69-1.66 1.08-3.48 1.08-5.4v-10.33c0-7.68-6.22-14-14-14v-7c11.58 0 21 9.42 21 21v9.38c3.69.9 7.03 2.74 9.75 5.27 2.71-2.53 6.06-4.37 9.76-5.27v-9.38c0-11.58 9.42-21 21-21z" fill="#4ba5c8"/><path d="m97.24 163.271v7.15c-7.82.01-13.99 6.35-13.99 14v10.33c0 1.92.38 3.74 1.08 5.4h-2.84c-8.307 0-15 6.758-15 15 0-8.242-6.693-15-15-15h-2.83c.69-1.66 1.08-3.48 1.08-5.4v-10.33c0-7.68-6.22-14-14-14h-.01v-7.15c0-8.28 6.73-15 15-15h2.84c2.12 5.05 7.1 8.6 12.91 8.6h.01c5.82 0 10.81-3.56 12.91-8.6h2.84c8.29 0 15 6.72 15 15z" fill="#fc5d3d"/><path d="m49.74 184.421v10.33c0 1.92-.39 3.74-1.08 5.4-2.12 5.05-7.11 8.6-12.92 8.6h-.01c-5.82 0-10.8-3.55-12.91-8.6-.7-1.66-1.08-3.48-1.08-5.4v-10.33c0-7.65 6.17-13.99 13.99-14h.01c7.78 0 14 6.32 14 14z" fill="#ffb69f"/><path d="m66.49 215.151v26.56h-61.51v-26.56c0-8.242 6.693-15 15-15h2.84c2.11 5.05 7.09 8.6 12.91 8.6h.01c5.81 0 10.8-3.55 12.92-8.6h2.83c8.307 0 15 6.758 15 15z" fill="#efefef"/><path d="m111.25 184.421v10.33c0 1.92-.39 3.74-1.08 5.4-2.12 5.05-7.11 8.6-12.92 8.6h-.01c-5.82 0-10.8-3.55-12.91-8.6-.7-1.66-1.08-3.48-1.08-5.4v-10.33c0-7.65 6.17-13.99 13.99-14h.01c7.78 0 14 6.32 14 14z" fill="#ffb69f"/><path d="m128 215.146v26.565h-61.51v-26.56c0-8.242 6.693-15 15-15h2.84c2.11 5.05 7.09 8.6 12.91 8.6h.01c5.81 0 10.8-3.55 12.92-8.6l2.83-.007c8.307.001 15 6.76 15 15.002z" fill="#72c2e9"/><path d="m172.76 184.421v10.33c0 1.92-.39 3.74-1.08 5.4-2.12 5.05-7.11 8.6-12.92 8.6-5.82 0-10.81-3.56-12.92-8.61-.7-1.66-1.08-3.47-1.08-5.39v-10.33c0-7.65 6.18-14 14-14 7.78 0 14 6.32 14 14z" fill="#ffb69f"/><path d="m189.51 215.151v26.56h-61.51v-26.565c0-8.243 6.695-15.002 15-15.002l2.84-.003c2.11 5.05 7.1 8.61 12.92 8.61 5.81 0 10.8-3.55 12.92-8.6h2.83c8.307 0 15 6.758 15 15z" fill="#f0c020"/><path d="m234.27 184.421v10.33c0 1.92-.39 3.74-1.08 5.4-2.12 5.05-7.11 8.6-12.92 8.6-5.82 0-10.81-3.55-12.92-8.6-.7-1.66-1.08-3.48-1.08-5.4v-10.33c0-7.65 6.18-14 14-14 7.78 0 14 6.32 14 14z" fill="#ffb69f"/><path d="m251.02 215.151v26.56h-61.51v-26.56c0-8.242 6.693-15 15-15h2.84c2.11 5.05 7.1 8.6 12.92 8.6 5.81 0 10.8-3.55 12.92-8.6h2.83c8.307 0 15 6.758 15 15z" fill="#fc5d3d"/><path d="m80.48 132.541v10.33c0 1.92-.38 3.74-1.08 5.4-2.1 5.04-7.09 8.6-12.91 8.6h-.01c-5.81 0-10.79-3.55-12.91-8.6-.69-1.66-1.09-3.48-1.09-5.4v-10.33c0-7.68 6.22-14 14-14h.01c7.82.01 13.99 6.351 13.99 14z" fill="#ffb69f"/><path d="m158.76 163.262v7.16c-7.82 0-14 6.34-14 14v10.33c0 1.92.38 3.74 1.08 5.39l-2.84.003c-8.296 0-15 6.762-15 15.002 0-8.23-6.696-15.002-15-15.002l-2.83-.003c.69-1.65 1.08-3.47 1.08-5.39v-10.33c0-7.68-6.22-14-14-14h-.01v-7.16c0-8.27 6.73-15 15-15h2.84c2.12 5.06 7.12 8.607 12.92 8.607 6.02 0 10.93-3.788 12.91-8.607h2.85c8.28 0 15 6.729 15 15z" fill="#8b72e9"/><path d="m142 132.536v10.33c0 1.92-.38 3.74-1.08 5.4h-.01c-1.98 4.82-6.89 8.603-12.91 8.603-5.8 0-10.8-3.543-12.92-8.603-.7-1.66-1.08-3.48-1.08-5.4v-10.33c0-7.68 6.22-14 14-14 7.82 0 14 6.351 14 14z" fill="#ffb69f"/><path d="m97.24 163.421v7c-7.82.01-13.99 6.35-13.99 14v10.33c0 1.92.38 3.74 1.08 5.4h-2.84c-8.307 0-15 6.758-15 15 0-8.242-6.693-15-15-15h-2.83c.69-1.66 1.08-3.48 1.08-5.4v-10.33c0-7.68-6.22-14-14-14h-.01v-7c11.6.01 21.01 9.42 21.01 21v9.38c3.69.9 7.03 2.74 9.74 5.27 2.72-2.53 6.07-4.37 9.77-5.27v-9.38c0-11.56 9.41-20.98 20.98-21z" fill="#b25035"/><path d="m158.76 163.421v7c-7.82 0-14 6.34-14 14v10.33c0 1.92.38 3.74 1.08 5.39l-2.84.003c-8.296 0-15 6.762-15 15.002 0-8.23-6.696-15.002-15-15.002l-2.83-.003c.69-1.65 1.08-3.47 1.08-5.39v-10.33c0-7.68-6.22-14-14-14h-.01v-7c11.6.01 21.01 9.42 21.01 21v9.38c3.69.9 7.03 2.74 9.75 5.27 2.71-2.53 6.06-4.37 9.76-5.27v-9.38c0-11.58 9.42-21 21-21z" fill="#7256e1"/><path d="m128 111.541v7c-7.78 0-14 6.32-14 14v10.33c0 1.92.38 3.74 1.08 5.4h-2.84c-8.27 0-15 6.72-15 15 0-8.28-6.71-15-15-15h-2.84c.7-1.66 1.08-3.48 1.08-5.4v-10.33c0-7.65-6.17-13.99-13.99-14v-7c11.59.02 20.99 9.44 20.99 21v9.37c3.71.91 7.05 2.76 9.75 5.28 2.71-2.53 6.06-4.38 9.77-5.29v-9.36c0-11.58 9.42-21 21-21z" fill="#4ba5c8"/><g><path d="m66.49 236.847h-25.99c-1.381 0-2.5-1.119-2.5-2.5s1.119-2.5 2.5-2.5h25.99c1.381 0 2.5 1.119 2.5 2.5s-1.119 2.5-2.5 2.5zm-35.99 0h-3c-1.381 0-2.5-1.119-2.5-2.5s1.119-2.5 2.5-2.5h3c1.381 0 2.5 1.119 2.5 2.5s-1.119 2.5-2.5 2.5z" fill="#fff"/></g><g><path d="m128 236.847h-61.51c-1.381 0-2.5-1.119-2.5-2.5s1.119-2.5 2.5-2.5h61.51c1.381 0 2.5 1.119 2.5 2.5s-1.119 2.5-2.5 2.5z" fill="#c5e5fe"/></g><g><path d="m189.51 236.847h-61.51c-1.381 0-2.5-1.119-2.5-2.5s1.119-2.5 2.5-2.5h61.51c1.381 0 2.5 1.119 2.5 2.5s-1.119 2.5-2.5 2.5z" fill="#f8e5b0"/></g><g><path d="m227.667 236.847h-3c-1.381 0-2.5-1.119-2.5-2.5s1.119-2.5 2.5-2.5h3c1.381 0 2.5 1.119 2.5 2.5s-1.12 2.5-2.5 2.5zm-13 0h-25.157c-1.381 0-2.5-1.119-2.5-2.5s1.119-2.5 2.5-2.5h25.156c1.381 0 2.5 1.119 2.5 2.5s-1.119 2.5-2.499 2.5z" fill="#ffcbc3"/></g><path d="m114.12 19.37c-.75 1.15-.41 2.7.75 3.45 1.142.742 2.698.428 3.45-.75 0 0 0 0 0-.01.74-1.15.41-2.7-.75-3.44-1.13-.73-2.73-.37-3.45.75z"/><path d="m18.97 224.47c-1.38 0-2.5 1.13-2.5 2.5v14.74c0 1.38 1.12 2.5 2.5 2.5s2.5-1.12 2.5-2.5v-14.74c0-1.37-1.12-2.5-2.5-2.5z"/><path d="m50 226.97v14.74c0 1.38 1.12 2.5 2.5 2.5s2.5-1.12 2.5-2.5v-14.74c0-1.37-1.12-2.5-2.5-2.5s-2.5 1.13-2.5 2.5z"/><path d="m82.98 241.71v-14.74c0-1.37-1.12-2.5-2.5-2.5s-2.5 1.13-2.5 2.5v14.74c0 1.38 1.12 2.5 2.5 2.5s2.5-1.12 2.5-2.5z"/><path d="m116.51 241.71v-14.74c0-1.38-1.12-2.5-2.5-2.5s-2.5 1.12-2.5 2.5v14.74c0 1.38 1.12 2.5 2.5 2.5s2.5-1.12 2.5-2.5z"/><path d="m144.49 241.71v-14.74c0-1.37-1.12-2.5-2.5-2.5s-2.5 1.13-2.5 2.5v14.74c0 1.38 1.12 2.5 2.5 2.5s2.5-1.12 2.5-2.5z"/><path d="m178.02 241.71v-14.74c0-1.37-1.12-2.5-2.5-2.5s-2.5 1.13-2.5 2.5v14.74c0 1.38 1.12 2.5 2.5 2.5s2.5-1.12 2.5-2.5z"/><path d="m203.5 224.47c-1.38 0-2.5 1.12-2.5 2.5v14.74c0 1.38 1.12 2.5 2.5 2.5s2.5-1.12 2.5-2.5v-14.74c0-1.38-1.12-2.5-2.5-2.5z"/><path d="m234.53 226.97v14.74c0 1.38 1.12 2.5 2.5 2.5s2.5-1.12 2.5-2.5v-14.74c0-1.38-1.12-2.5-2.5-2.5s-2.5 1.12-2.5 2.5z"/><path d="m5.96 209.27c1.13.71 2.73.35 3.44-.77l.01-.01c2.31-3.66 6.26-5.84 10.57-5.84h1.27c2.839 5.211 8.355 8.602 14.49 8.602 6.041 0 11.584-3.312 14.49-8.602h1.27c6.896 0 12.49 5.578 12.49 12.5v.001 26.559.001c0 1.381 1.119 2.5 2.5 2.5s2.5-1.119 2.5-2.5v-.001-26.559c0-6.902 5.588-12.5 12.5-12.5h1.27c2.916 5.367 8.536 8.6 14.491 8.6 6.13 0 11.651-3.396 14.488-8.6h1.261c6.934 0 12.5 5.629 12.5 12.5v26.56c0 1.381 1.119 2.5 2.5 2.5s2.5-1.119 2.5-2.5v-26.56c0-6.903 5.588-12.5 12.5-12.5h1.269c2.931 5.389 8.557 8.6 14.491 8.6 5.914 0 11.548-3.206 14.489-8.6h1.261c6.934 0 12.5 5.629 12.5 12.5v26.56c0 1.381 1.119 2.5 2.5 2.5s2.5-1.119 2.5-2.5v-26.56c0-6.902 5.588-12.5 12.5-12.5h1.27c2.929 5.388 8.564 8.6 14.491 8.6 6.052 0 11.615-3.329 14.488-8.6h1.262c6.934 0 12.5 5.629 12.5 12.5v26.56c0 1.381 1.119 2.5 2.5 2.5s2.5-1.119 2.5-2.5v-26.56c0-9.481-7.544-17.221-17.022-17.479.172-.961.272-1.935.272-2.921v-10.33c0-8.246-6.087-15.079-14-16.29v-4.86c0-9.491-7.6-17.225-17.032-17.476.171-.955.271-1.929.271-2.924v-.001s0-.001 0-.001v-8.33c0-1.38-1.12-2.5-2.5-2.5s-2.5 1.12-2.5 2.5v8.33.001s0 .001 0 .001c0 6.253-5.036 11.5-11.5 11.5-6.383 0-11.5-5.176-11.5-11.5v-10.33c0-6.341 5.159-11.5 11.5-11.5.005 0 .009-.001.013-.001 1.099 0 2.188.16 3.227.46 1.289.391 2.708-.36 3.1-1.7.39-1.32-.37-2.71-1.69-3.1-.703-.206-1.422-.359-2.15-.469v-5.329c0-9.488-7.595-17.219-17.022-17.476.173-.961.272-1.936.272-2.924v-10.33c0-8.246-6.087-15.079-14-16.29v-4.86c0-9.492-7.601-17.226-17.034-17.476.17-.956.269-1.928.269-2.919v-10.34c0-9.098-7.402-16.5-16.5-16.5-1.544 0-3.148.224-4.646.663-1.381.41-2.074 1.838-1.7 3.1.353 1.206 1.618 2.087 3.1 1.7 1.721-.508 3.264-.462 3.264-.462 6.333.01 11.481 5.164 11.481 11.499v10.34c0 6.369-5.158 11.495-11.505 11.495-5.953 0-11.36-4.614-11.5-11.548v-8.284c0-1.38-1.12-2.5-2.49-2.5-1.38 0-2.51 1.12-2.51 2.5v8.34c0 .819.101 1.935.277 2.916-9.43.254-17.027 7.986-17.027 17.476v4.863c-7.907 1.219-13.99 8.051-13.99 16.287v10.33c0 .993.099 1.967.27 2.924-9.431.252-17.03 7.985-17.03 17.476v5.349c-7.918 1.207-14.01 8.042-14.01 16.291v10.33c0 .984.101 1.959.276 2.924-9.429.254-17.026 7.986-17.026 17.476v4.863c-7.907 1.219-13.99 8.051-13.99 16.287v10.33c0 .989.099 1.96.268 2.913-5.855.155-11.183 3.179-14.328 8.155-.729 1.16-.389 2.71.781 3.45zm91.28-3.019c-6.377 0-11.49-5.164-11.49-11.5v-10.33c0-6.333 5.156-11.492 11.5-11.5 6.341 0 11.5 5.159 11.5 11.5v10.33c0 6.332-5.123 11.5-11.51 11.5zm30.758-.117c-3.009-5.006-8.422-8.296-14.52-8.462.172-.961.272-1.935.272-2.921v-10.33c0-8.246-6.087-15.079-14.01-16.29v-4.86-.01c0-6.893 5.607-12.5 12.5-12.5h1.271c2.878 5.287 8.463 8.61 14.489 8.61 5.95 0 11.639-3.377 14.485-8.61h1.274c6.893 0 12.5 5.607 12.5 12.5v.01 4.86c-7.913 1.211-14 8.044-14 16.29v10.33c0 .992.099 1.965.269 2.921-6.103.164-11.523 3.459-14.53 8.462zm-.03-85.096c.011 0 .021.003.032.003s.021-.003.032-.003c6.326.018 11.468 5.168 11.468 11.498v10.33c0 6.271-5.152 11.5-11.5 11.5-6.373 0-11.5-5.164-11.5-11.5v-10.33c0-6.33 5.141-11.48 11.468-11.498zm19.292 73.713v-10.33c0-6.341 5.159-11.5 11.5-11.5s11.5 5.159 11.5 11.5v10.33c0 6.329-5.12 11.5-11.5 11.5-6.336 0-11.5-5.111-11.5-11.5zm84.51-10.33v10.33c0 6.316-5.108 11.5-11.5 11.5-6.323 0-11.5-5.098-11.5-11.5v-10.33c0-6.341 5.159-11.5 11.5-11.5s11.5 5.159 11.5 11.5zm-27.777-33.65h1.277c6.893 0 12.5 5.607 12.5 12.5v4.86c-7.913 1.211-14 8.044-14 16.29v10.33c0 .992.099 1.965.269 2.921-6.104.163-11.524 3.458-14.532 8.462-3.009-5.006-8.422-8.296-14.52-8.462.172-.96.272-1.934.272-2.921v-10.33c0-8.246-6.087-15.079-14-16.29v-4.86c0-6.893 5.607-12.5 12.5-12.5h1.262c2.824 5.18 8.335 8.6 14.488 8.6 6.171.001 11.68-3.426 14.484-8.6zm-16.983-39.87v5.35c-7.913 1.211-14 8.044-14 16.29v10.33c0 .987.099 1.962.273 2.924-6.167.168-11.535 3.535-14.52 8.504-2.984-4.976-8.359-8.348-14.532-8.514.17-.955.269-1.928.269-2.919v-10.33c0-8.246-6.087-15.079-14-16.29v-5.345c0-6.893 5.607-12.5 12.5-12.5h1.269c2.844 5.23 8.386 8.6 14.491 8.6 6.035 0 11.597-3.296 14.489-8.6h1.261c6.892 0 12.5 5.608 12.5 12.5zm-16.75-30.73v10.33c0 6.329-5.12 11.5-11.5 11.5-6.365 0-11.5-5.142-11.5-11.5v-10.33c0-6.341 5.159-11.5 11.5-11.5s11.5 5.159 11.5 11.5zm-58.02-33.65h1.272c2.893 5.306 8.458 8.605 14.483 8.605 6.072 0 11.622-3.341 14.493-8.605h1.271c6.893 0 12.5 5.607 12.5 12.5v4.86c-7.913 1.211-14 8.044-14 16.29v10.33c0 .993.099 1.967.27 2.924-6.172.165-11.545 3.535-14.53 8.509-2.984-4.972-8.354-8.341-14.522-8.509.173-.962.272-1.937.272-2.924v-10.33c0-8.246-6.087-15.079-14.01-16.29v-4.86c.001-6.892 5.608-12.5 12.501-12.5zm-26.49 33.65c0-6.333 5.156-11.492 11.5-11.5 6.341 0 11.5 5.159 11.5 11.5v10.33c0 6.332-5.123 11.5-11.51 11.5-6.38 0-11.49-5.167-11.49-11.5zm-4.26 18.23h1.27c2.822 5.195 8.359 8.6 14.491 8.6 6.113 0 11.647-3.389 14.488-8.6h1.261c6.893 0 12.5 5.607 12.5 12.5v5.345c-7.913 1.211-14 8.044-14 16.29v10.33c0 .991.099 1.964.269 2.919-6.174.165-11.548 3.537-14.532 8.514-2.986-4.971-8.357-8.339-14.527-8.504.171-.957.27-1.931.27-2.924v-10.33c0-8.233-6.078-15.063-13.99-16.286v-5.354c0-6.892 5.607-12.5 12.5-12.5zm-26.51 34.141c0-6.341 5.159-11.5 11.507-11.5 6.337.008 11.493 5.167 11.493 11.5v10.33c0 6.33-5.093 11.5-11.5 11.5-6.461 0-11.5-5.283-11.5-11.5zm-4.25 18.229h1.271c2.885 5.292 8.452 8.6 14.488 8.6 6.066 0 11.631-3.345 14.482-8.6h1.268c6.893 0 12.5 5.607 12.5 12.5v4.863c-7.907 1.219-13.99 8.051-13.99 16.287v10.33c0 .992.099 1.965.269 2.921-6.106.163-11.527 3.46-14.534 8.466-3.008-5.005-8.42-8.294-14.517-8.467.172-.96.272-1.934.272-2.92v-10.33c0-8.246-6.087-15.079-14.01-16.29v-4.86c.001-6.892 5.608-12.5 12.501-12.5zm-26.49 33.65c0-6.333 5.156-11.492 11.5-11.5 6.341 0 11.5 5.159 11.5 11.5v10.33c0 6.33-5.12 11.499-11.5 11.499h-.01c-6.342 0-11.49-5.144-11.49-11.499z"/><circle cx="4.98" cy="216.71" r="2.5"/><path d="m4.98 244.21c1.38 0 2.5-1.12 2.5-2.5v-15c0-1.38-1.12-2.5-2.5-2.5s-2.5 1.12-2.5 2.5v15c0 1.38 1.12 2.5 2.5 2.5z"/><path d="m202.64 127.07c1.16-.74 1.49-2.29.75-3.45-.72-1.12-2.33-1.48-3.45-.75-1.142.721-1.523 2.254-.76 3.44v.01c.755 1.157 2.272 1.504 3.46.75z"/></g></g></svg>