<svg id="Capa_1" enable-background="new 0 0 512 512" height="512" viewBox="0 0 512 512" width="512" xmlns="http://www.w3.org/2000/svg"><g><g><g><g><path d="m256 274.081v-44.346c0-11.158-9.045-20.203-20.203-20.203h-50.508c-11.158 0-20.203 9.045-20.203 20.203v44.346z" fill="#62dbfb"/><circle cx="210.543" cy="185.289" fill="#fed2a4" r="24.244"/><path d="m219.03 162.576c.988 2.642 1.531 5.501 1.531 8.488 0 13.39-10.854 24.244-24.244 24.244-2.987 0-5.846-.543-8.488-1.531 3.441 9.203 12.31 15.756 22.713 15.756 13.39 0 24.244-10.854 24.244-24.244.001-10.403-6.553-19.273-15.756-22.713z" fill="#ffbd86"/></g><g><path d="m346.915 274.081v-44.346c0-11.158-9.045-20.203-20.203-20.203h-50.508c-11.158 0-20.203 9.045-20.203 20.203v44.346z" fill="#fe646f"/><circle cx="301.457" cy="185.289" fill="#fed2a4" r="24.244"/><path d="m309.945 162.576c.988 2.642 1.531 5.501 1.531 8.488 0 13.39-10.854 24.244-24.244 24.244-2.987 0-5.846-.543-8.488-1.531 3.441 9.203 12.31 15.756 22.713 15.756 13.39 0 24.244-10.854 24.244-24.244 0-10.403-6.554-19.273-15.756-22.713z" fill="#ffbd86"/></g><g><path d="m210.543 318.63v-34.346c0-11.158-9.045-20.203-20.203-20.203h-50.508c-11.158 0-20.203 9.045-20.203 20.203v34.346z" fill="#ffe177"/><path d="m190.339 264.081h-30.305c11.158 0 20.203 9.045 20.203 20.203v34.346h30.305v-34.346c.001-11.157-9.045-20.203-20.203-20.203z" fill="#ffc344"/><circle cx="165.085" cy="239.837" fill="#fed2a4" r="24.244"/><path d="m173.573 217.124c.988 2.642 1.531 5.501 1.531 8.488 0 13.39-10.854 24.244-24.244 24.244-2.987 0-5.846-.543-8.488-1.531 3.441 9.203 12.31 15.756 22.713 15.756 13.39 0 24.244-10.854 24.244-24.244 0-10.403-6.553-19.272-15.756-22.713z" fill="#ffbd86"/></g><g><path d="m301.457 318.63v-34.346c0-11.158-9.045-20.203-20.203-20.203h-50.508c-11.158 0-20.203 9.045-20.203 20.203v34.346z" fill="#a2e62e"/><path d="m281.254 264.081h-30.305c11.158 0 20.203 9.045 20.203 20.203v34.346h30.305v-34.346c0-11.157-9.045-20.203-20.203-20.203z" fill="#97d729"/><circle cx="256" cy="239.837" fill="#fed2a4" r="24.244"/><path d="m264.488 217.124c.988 2.642 1.531 5.501 1.531 8.488 0 13.39-10.854 24.244-24.244 24.244-2.987 0-5.846-.543-8.488-1.531 3.441 9.203 12.31 15.756 22.713 15.756 13.39 0 24.244-10.854 24.244-24.244 0-10.403-6.554-19.272-15.756-22.713z" fill="#ffbd86"/></g><g><path d="m392.372 318.63v-34.346c0-11.158-9.045-20.203-20.203-20.203h-50.508c-11.158 0-20.203 9.045-20.203 20.203v34.346z" fill="#528fd8"/><path d="m372.169 264.081h-30.305c11.158 0 20.203 9.045 20.203 20.203v34.346h30.305v-34.346c0-11.157-9.045-20.203-20.203-20.203z" fill="#0573ce"/><circle cx="346.915" cy="239.837" fill="#fed2a4" r="24.244"/><path d="m355.402 217.124c.988 2.642 1.531 5.501 1.531 8.488 0 13.39-10.854 24.244-24.244 24.244-2.987 0-5.846-.543-8.488-1.531 3.441 9.203 12.31 15.756 22.713 15.756 13.39 0 24.244-10.854 24.244-24.244.001-10.403-6.553-19.272-15.756-22.713z" fill="#ffbd86"/></g></g><g><path d="m256 504.5c102.653 0 185.87-83.217 185.87-185.87h-371.74c0 102.653 83.217 185.87 185.87 185.87z" fill="#62dbfb"/><path d="m200.676 449.176c-37.171 0-71.788-10.918-100.834-29.711 33.109 51.168 90.676 85.035 156.158 85.035 102.653 0 185.87-83.217 185.87-185.87h-63.697c-23.55 75.635-94.111 130.546-177.497 130.546z" fill="#01d0fb"/><path d="m191.365 457.216c-2.669-2.535-4.299-5.972-4.574-9.642l-2.771-36.949c-.19-2.535.275-5.077 1.35-7.38l10.381-22.246c2.572-5.511 1.518-12.033-2.657-16.454l-8.464-8.962c-2.801-2.966-6.701-4.647-10.781-4.647h-18.499c-6.61 0-12.421-4.374-14.251-10.726l-.762-2.646c-2.73-9.48 4.385-18.934 14.251-18.934h-74.468c4.836 0 9.401 2.232 12.371 6.049l7.765 9.981c2.708 3.481 3.825 7.942 3.075 12.288l-3.793 21.994c-.462 2.68-1.614 5.194-3.342 7.294l-11.681 14.198c19.944 47.568 59.099 85.087 107.765 102.846 8.435 3.078 16.829-1.513 18.069-10.406.595-4.263-.917-8.494-3.982-11.405z" fill="#a2e62e"/><g fill="#97d729"><path d="m191.365 457.216c-2.401-2.281-3.951-5.293-4.441-8.547-31.941-2.336-61.637-12.744-87.064-29.192 21.79 33.666 54.163 59.843 92.421 73.804 8.435 3.078 16.829-1.513 18.069-10.406.595-4.263-.917-8.494-3.982-11.405z"/><path d="m397.067 324.018 3.686 13.362c.978 3.544.978 7.287 0 10.831l-5.245 19.015c-1.623 5.884-5.8 10.73-11.381 13.203l-13.247 5.87c-5.875 2.603-10.177 7.827-11.605 14.093l-11.25 49.358c-1.008 4.423.1 9.064 2.998 12.555 5.037 6.067 14.017 7.073 20.201 2.181 43.034-34.042 70.648-86.723 70.648-145.855h-47.172c1.027 1.64 1.832 3.448 2.367 5.387z"/></g></g></g><g><path d="m397.903 7.5-43.967 58.623h24.426v114.925h39.082v-114.925h24.426z" fill="#fe646f"/><path d="m378.362 125.6v55.448h39.082v-69.979c-11.316 7.866-24.655 13.025-39.082 14.531z" fill="#fd4755"/></g><g><path d="m114.097 7.5-43.967 58.623h24.426v114.925h39.082v-114.925h24.426z" fill="#fe646f"/><path d="m94.556 125.6v55.448h39.082v-69.979c-11.316 7.866-24.654 13.025-39.082 14.531z" fill="#fd4755"/></g><g><path d="m256 7.5-43.967 58.623h24.426v74.519h39.082v-74.519h24.426z" fill="#fe646f"/><path d="m236.459 85.193v55.448h39.082v-69.979c-11.316 7.867-24.655 13.025-39.082 14.531z" fill="#fd4755"/></g><g><path d="m441.87 311.13h-41.998v-26.845c0-14.717-11.537-26.786-26.041-27.649 3.054-4.876 4.827-10.633 4.827-16.798 0-17.504-14.24-31.744-31.743-31.744-.929 0-1.847.049-2.756.127-4.477-3.623-10.004-5.785-15.783-6.135 3.053-4.876 4.826-10.632 4.826-16.796 0-17.503-14.24-31.744-31.744-31.744-17.503 0-31.743 14.24-31.743 31.744 0 6.165 1.772 11.921 4.825 16.796-5.775.35-11.3 2.512-15.778 6.136-.911-.079-1.83-.128-2.761-.128s-1.85.049-2.761.128c-4.478-3.624-10.003-5.786-15.778-6.136 3.053-4.876 4.825-10.631 4.825-16.796 0-17.503-14.24-31.744-31.743-31.744-17.504 0-31.744 14.24-31.744 31.744 0 6.165 1.772 11.921 4.826 16.796-5.779.35-11.306 2.512-15.783 6.135-.909-.079-1.827-.127-2.756-.127-17.503 0-31.743 14.24-31.743 31.744 0 6.166 1.773 11.922 4.827 16.798-14.504.863-26.041 12.932-26.041 27.649v26.845h-42c-4.143 0-7.5 3.358-7.5 7.5 0 106.624 86.745 193.37 193.37 193.37 17.47 0 34.787-2.332 51.473-6.93 3.993-1.101 6.339-5.23 5.238-9.223s-5.232-6.339-9.223-5.238c-15.387 4.241-31.365 6.391-47.488 6.391-14.168 0-27.951-1.673-41.173-4.81 1.511-2.458 2.531-5.264 2.952-8.279.922-6.606-1.413-13.29-6.244-17.879l-15.004-14.254c-1.321-1.255-2.124-2.947-2.261-4.765l-2.771-36.95c-.094-1.25.138-2.511.667-3.647l10.383-22.246c3.896-8.352 2.325-18.076-4.001-24.774l-8.465-8.962c-4.2-4.447-10.117-6.998-16.233-6.998h-18.498c-3.248 0-6.146-2.18-7.044-5.3l-.762-2.648c-.644-2.233-.211-4.579 1.187-6.436s3.532-2.922 5.856-2.922h235.281l3.653 13.244c.618 2.238.618 4.604.001 6.842l-5.245 19.014c-1.03 3.732-3.651 6.772-7.19 8.341l-13.248 5.87c-7.998 3.544-13.934 10.753-15.879 19.283l-11.25 49.358c-1.516 6.653.181 13.76 4.54 19.012 1.165 1.403 2.477 2.618 3.892 3.656-4.634 2.841-9.394 5.496-14.293 7.915-3.714 1.833-5.238 6.331-3.405 10.045 1.834 3.714 6.329 5.239 10.046 3.405 31.882-15.738 58.82-39.955 77.902-70.03 19.611-30.908 29.978-66.683 29.978-103.456-.002-4.141-3.359-7.499-7.502-7.499zm-78.212-71.293c0 9.232-7.511 16.744-16.743 16.744s-16.744-7.511-16.744-16.744 7.512-16.744 16.744-16.744 16.743 7.511 16.743 16.744zm-62.201-71.292c9.232 0 16.744 7.511 16.744 16.744 0 9.213-7.481 16.71-16.686 16.741h-.116c-9.206-.032-16.685-7.528-16.685-16.741 0-9.233 7.511-16.744 16.743-16.744zm23.412 48.485c-5.973 5.776-9.698 13.862-9.698 22.808 0 6.166 1.773 11.922 4.827 16.798-7.296.434-13.838 3.705-18.541 8.723-4.703-5.017-11.244-8.288-18.54-8.723 3.054-4.876 4.827-10.633 4.827-16.799 0-8.945-3.725-17.032-9.698-22.808h46.823zm-52.125 22.807c0 9.232-7.512 16.744-16.744 16.744s-16.744-7.511-16.744-16.744 7.512-16.744 16.744-16.744 16.744 7.511 16.744 16.744zm-62.201-71.292c9.232 0 16.743 7.511 16.743 16.744 0 9.213-7.48 16.71-16.685 16.741h-.116c-9.206-.032-16.686-7.528-16.686-16.741 0-9.233 7.512-16.744 16.744-16.744zm23.411 48.485c-5.973 5.776-9.698 13.862-9.698 22.808 0 6.166 1.773 11.922 4.827 16.799-7.296.434-13.837 3.705-18.54 8.723-4.703-5.017-11.245-8.289-18.541-8.723 3.054-4.876 4.827-10.633 4.827-16.798 0-8.945-3.725-17.032-9.698-22.808h46.823zm-68.869 6.063c9.232 0 16.744 7.511 16.744 16.744 0 9.232-7.512 16.744-16.744 16.744s-16.743-7.511-16.743-16.744 7.511-16.744 16.743-16.744zm-84.965 103.037c2.54 0 4.892 1.15 6.452 3.155l7.765 9.98c1.409 1.812 1.993 4.147 1.604 6.409l-3.793 21.995c-.241 1.395-.843 2.709-1.743 3.803l-3.422 4.159c-5.293-15.65-8.48-32.261-9.198-49.501zm53.011 13.508.762 2.648c2.738 9.509 11.562 16.15 21.458 16.15h18.498c2.008 0 3.95.837 5.328 2.297l8.465 8.962c2.076 2.199 2.592 5.391 1.313 8.132l-10.383 22.246c-1.615 3.462-2.317 7.305-2.031 11.113l2.771 36.949c.415 5.538 2.861 10.694 6.887 14.519l15.004 14.254c1.331 1.264 1.974 3.108 1.72 4.931-.264 1.884-1.127 3.316-2.499 4.141-1.331.8-3.005.97-4.777.505-45.593-16.445-82.615-50.97-102.384-94.876l8.724-10.604c2.551-3.1 4.26-6.829 4.941-10.786l3.793-21.993c1.106-6.411-.55-13.033-4.546-18.169l-3.054-3.925h30.364c-1.503 4.293-1.66 8.974-.354 13.506zm-6.003-28.508v-26.845c0-7.004 5.698-12.703 12.703-12.703h50.509c7.005 0 12.703 5.699 12.703 12.703v26.845zm90.915-26.845c0-7.004 5.698-12.703 12.703-12.703h50.508c7.005 0 12.703 5.699 12.703 12.703v26.845h-75.914zm90.914 26.845v-26.845c0-7.004 5.698-12.703 12.703-12.703h50.509c7.005 0 12.703 5.699 12.703 12.703v26.845zm97.771 102.919c-10.862 17.119-24.489 32.171-40.234 44.607-2.952 2.268-7.284 1.768-9.701-1.143-1.397-1.685-1.942-3.964-1.456-6.098l11.25-49.357c.897-3.938 3.639-7.267 7.331-8.903l13.247-5.87c7.666-3.396 13.343-9.98 15.573-18.065l5.246-19.015c1.337-4.847 1.337-9.972-.001-14.819l-2.553-9.255h28.785c-1.303 31.271-10.739 61.522-27.487 87.918z"/><path d="m353.94 73.62h16.92v28.4c0 4.142 3.357 7.5 7.5 7.5s7.5-3.358 7.5-7.5v-35.9c0-4.142-3.357-7.5-7.5-7.5h-9.421l28.962-38.62 28.968 38.62h-9.429c-4.143 0-7.5 3.358-7.5 7.5v107.43h-24.08v-36.53c0-4.142-3.357-7.5-7.5-7.5s-7.5 3.358-7.5 7.5v44.03c0 4.142 3.357 7.5 7.5 7.5h39.08c4.143 0 7.5-3.358 7.5-7.5v-107.43h16.93c2.841 0 5.438-1.605 6.708-4.146s.996-5.582-.708-7.854l-43.97-58.62c-1.417-1.888-3.64-3-6-3-2.361 0-4.584 1.112-6 3l-43.96 58.62c-1.704 2.272-1.979 5.313-.708 7.854s3.868 4.146 6.708 4.146z"/><path d="m70.13 73.62h16.93v107.43c0 4.142 3.357 7.5 7.5 7.5h39.08c4.143 0 7.5-3.358 7.5-7.5v-44.03c0-4.142-3.357-7.5-7.5-7.5s-7.5 3.358-7.5 7.5v36.53h-24.08v-107.43c0-4.142-3.357-7.5-7.5-7.5h-9.429l28.968-38.62 28.962 38.62h-9.421c-4.143 0-7.5 3.358-7.5 7.5v35.9c0 4.142 3.357 7.5 7.5 7.5s7.5-3.358 7.5-7.5v-28.4h16.92c2.841 0 5.438-1.605 6.708-4.146 1.271-2.541.996-5.582-.708-7.854l-43.96-58.62c-1.416-1.889-3.639-3-6-3-2.36 0-4.583 1.111-6 3l-43.97 58.62c-1.704 2.273-1.979 5.313-.708 7.854s3.867 4.146 6.708 4.146z"/><path d="m212.033 73.623h16.926v67.019c0 4.142 3.357 7.5 7.5 7.5h39.082c4.143 0 7.5-3.358 7.5-7.5v-67.019h16.926c2.841 0 5.438-1.605 6.708-4.146 1.271-2.541.996-5.582-.708-7.854l-43.967-58.623c-1.416-1.889-3.64-3-6-3s-4.584 1.111-6 3l-43.967 58.623c-1.704 2.272-1.979 5.313-.708 7.854s3.867 4.146 6.708 4.146zm43.967-53.623 28.967 38.623h-9.426c-4.143 0-7.5 3.358-7.5 7.5v67.019h-24.082v-67.019c0-4.142-3.357-7.5-7.5-7.5h-9.426z"/></g></g></svg>