<svg
              xmlns="http://www.w3.org/2000/svg"
              viewBox="0 0 800 125"
              width="800"
              height="125"
              preserveAspectRatio="xMidYMid meet"
              style="width: 100%; height: 100%; transform: translate3d(0px, 0px, 0px);"
            >
              <g clip-path="url(#animationMask_GoIzYquAqC)">
                <g
                  transform="matrix(1,0,0,1,0,0)"
                  opacity="1"
                  style="display: block;"
                >
                  <rect width="800" height="125" fill="#fd9d24"></rect>
                </g>
                <g
                  transform="matrix(0.32695358991622925,0,0,0.32695358991622925,572.4141845703125,23.96913719177246)"
                  opacity="1"
                  style="display: block;"
                ></g>
                <g
                  clip-path="url(#MqVZPsnKot)"
                  transform="matrix(0.9999973177909851,0,0,0.9999973177909851,568.459716796875,-58.41288375854492)"
                  opacity="1"
                  style="display: block;"
                >
                  <g
                    opacity="1"
                    transform="matrix(1,0,0,1,46.005001068115234,156.66400146484375)"
                  >
                    <path
                      fill="rgb(255,255,255)"
                      fill-opacity="1"
                      d=" M14.111000061035156,-11.734999656677246 C14.111000061035156,-11.734999656677246 -14.111000061035156,-11.734999656677246 -14.111000061035156,-11.734999656677246 C-14.493000030517578,-11.734999656677246 -14.800999641418457,-11.425000190734863 -14.800999641418457,-11.043999671936035 C-14.800999641418457,-11.043999671936035 -14.800999641418457,11.041000366210938 -14.800999641418457,11.041000366210938 C-14.800999641418457,11.42300033569336 -14.493000030517578,11.734999656677246 -14.111000061035156,11.734999656677246 C-14.111000061035156,11.734999656677246 -5.0269999504089355,11.734999656677246 -5.0269999504089355,11.734999656677246 C-5.0269999504089355,11.734999656677246 -5.0269999504089355,-2.1600000858306885 -5.0269999504089355,-2.1600000858306885 C-5.0269999504089355,-2.5450000762939453 -4.718999862670898,-2.8510000705718994 -4.335999965667725,-2.8510000705718994 C-4.335999965667725,-2.8510000705718994 4.09499979019165,-2.8510000705718994 4.09499979019165,-2.8510000705718994 C4.4770002365112305,-2.8510000705718994 4.785999774932861,-2.5450000762939453 4.785999774932861,-2.1600000858306885 C4.785999774932861,-2.1600000858306885 4.785999774932861,11.734999656677246 4.785999774932861,11.734999656677246 C4.785999774932861,11.734999656677246 14.111000061035156,11.734999656677246 14.111000061035156,11.734999656677246 C14.491000175476074,11.734999656677246 14.800999641418457,11.42300033569336 14.800999641418457,11.041000366210938 C14.800999641418457,11.041000366210938 14.800999641418457,-11.043999671936035 14.800999641418457,-11.043999671936035 C14.800999641418457,-11.425000190734863 14.491000175476074,-11.734999656677246 14.111000061035156,-11.734999656677246z M-13.970000267028809,-14.291999816894531 C-13.970000267028809,-14.291999816894531 -13.680000305175781,-14.291999816894531 -13.680000305175781,-14.291999816894531 C-13.680000305175781,-14.291999816894531 14.196000099182129,-14.291999816894531 14.196000099182129,-14.291999816894531 C14.57699966430664,-14.291999816894531 14.88599967956543,-14.602999687194824 14.88599967956543,-14.984000205993652 C14.88599967956543,-15.161999702453613 14.8149995803833,-15.321000099182129 14.704999923706055,-15.444000244140625 C14.704999923706055,-15.444000244140625 14.666999816894531,-15.484000205993652 14.666999816894531,-15.484000205993652 C14.666999816894531,-15.484000205993652 0.652999997138977,-33.6150016784668 0.652999997138977,-33.6150016784668 C0.652999997138977,-33.6150016784668 0.5170000195503235,-33.76599884033203 0.5170000195503235,-33.76599884033203 C0.38999998569488525,-33.90399932861328 0.20999999344348907,-33.9900016784668 0.007000000216066837,-33.9900016784668 C-0.16699999570846558,-33.9900016784668 -0.3230000138282776,-33.917999267578125 -0.44699999690055847,-33.8129997253418 C-0.44699999690055847,-33.8129997253418 -0.531000018119812,-33.715999603271484 -0.531000018119812,-33.715999603271484 C-0.531000018119812,-33.715999603271484 -0.6620000004768372,-33.56800079345703 -0.6620000004768372,-33.56800079345703 C-0.6620000004768372,-33.56800079345703 -14.333000183105469,-15.628000259399414 -14.333000183105469,-15.628000259399414 C-14.333000183105469,-15.628000259399414 -14.543000221252441,-15.371000289916992 -14.543000221252441,-15.371000289916992 C-14.618000030517578,-15.262999534606934 -14.66100025177002,-15.128000259399414 -14.66100025177002,-14.984000205993652 C-14.66100025177002,-14.602999687194824 -14.35200023651123,-14.291999816894531 -13.970000267028809,-14.291999816894531z"
                    ></path>
                  </g>
                  <g
                    opacity="1"
                    transform="matrix(1,0,0,1,143.68600463867188,153.91299438476562)"
                  >
                    <path
                      fill="rgb(255,255,255)"
                      fill-opacity="1"
                      d=" M-1.63,3.56 C-1.63,3.93 -1.94,4.23 -2.31,4.23 C-2.31,4.23 -10.66,4.23 -10.66,4.23 C-11.04,4.23 -11.34,3.93 -11.34,3.56 C-11.34,3.56 -11.34,-1.51 -11.34,-1.51 C-11.34,-1.88 -11.04,-2.18 -10.66,-2.18 C-10.66,-2.18 -2.31,-2.18 -2.31,-2.18 C-1.94,-2.18 -1.63,-1.88 -1.63,-1.51 C-1.63,-1.51 -1.63,3.56 -1.63,3.56z M-1.63,-5.81 C-1.63,-5.45 -1.94,-5.15 -2.31,-5.15 C-2.31,-5.15 -10.66,-5.15 -10.66,-5.15 C-11.04,-5.15 -11.34,-5.45 -11.34,-5.81 C-11.34,-5.81 -11.34,-10.89 -11.34,-10.89 C-11.34,-11.25 -11.04,-11.55 -10.66,-11.55 C-10.66,-11.55 -2.31,-11.55 -2.31,-11.55 C-1.94,-11.55 -1.63,-11.25 -1.63,-10.89 C-1.63,-10.89 -1.63,-5.81 -1.63,-5.81z M11.12,3.56 C11.12,3.93 10.82,4.23 10.44,4.23 C10.44,4.23 2.1,4.23 2.1,4.23 C1.72,4.23 1.41,3.93 1.41,3.56 C1.41,3.56 1.41,-1.51 1.41,-1.51 C1.41,-1.88 1.72,-2.18 2.1,-2.18 C2.1,-2.18 10.44,-2.18 10.44,-2.18 C10.82,-2.18 11.12,-1.88 11.12,-1.51 C11.12,-1.51 11.12,3.56 11.12,3.56z M11.12,-5.81 C11.12,-5.45 10.82,-5.15 10.44,-5.15 C10.44,-5.15 2.1,-5.15 2.1,-5.15 C1.72,-5.15 1.41,-5.45 1.41,-5.81 C1.41,-5.81 1.41,-10.89 1.41,-10.89 C1.41,-11.25 1.72,-11.55 2.1,-11.55 C2.1,-11.55 10.44,-11.55 10.44,-11.55 C10.82,-11.55 11.12,-11.25 11.12,-10.89 C11.12,-10.89 11.12,-5.81 11.12,-5.81z M13.96500015258789,-14.765999794006348 C13.96500015258789,-14.765999794006348 -13.967000007629395,-14.765999794006348 -13.967000007629395,-14.765999794006348 C-14.343999862670898,-14.765999794006348 -14.64900016784668,-14.472999572753906 -14.64900016784668,-14.10200023651123 C-14.64900016784668,-14.10200023651123 -14.64900016784668,14.102999687194824 -14.64900016784668,14.102999687194824 C-14.64900016784668,14.468000411987305 -14.343999862670898,14.765999794006348 -13.967000007629395,14.765999794006348 C-13.967000007629395,14.765999794006348 13.96500015258789,14.765999794006348 13.96500015258789,14.765999794006348 C14.343999862670898,14.765999794006348 14.64900016784668,14.468000411987305 14.64900016784668,14.102999687194824 C14.64900016784668,14.102999687194824 14.64900016784668,-14.10200023651123 14.64900016784668,-14.10200023651123 C14.64900016784668,-14.472999572753906 14.343999862670898,-14.765999794006348 13.96500015258789,-14.765999794006348z M14.618000030517578,-17.604999542236328 C14.618000030517578,-17.291000366210938 14.368000030517578,-17.041000366210938 14.055999755859375,-17.041000366210938 C14.055999755859375,-17.041000366210938 -14.057999610900879,-17.041000366210938 -14.057999610900879,-17.041000366210938 C-14.366999626159668,-17.041000366210938 -14.619000434875488,-17.291000366210938 -14.619000434875488,-17.604999542236328 C-14.619000434875488,-17.604999542236328 -14.619000434875488,-23.226999282836914 -14.619000434875488,-23.226999282836914 C-14.619000434875488,-23.535999298095703 -14.366999626159668,-23.788999557495117 -14.057999610900879,-23.788999557495117 C-14.057999610900879,-23.788999557495117 14.055999755859375,-23.788999557495117 14.055999755859375,-23.788999557495117 C14.368000030517578,-23.788999557495117 14.618000030517578,-23.535999298095703 14.618000030517578,-23.226999282836914 C14.618000030517578,-23.226999282836914 14.618000030517578,-17.604999542236328 14.618000030517578,-17.604999542236328z"
                    ></path>
                    <g opacity="1" transform="matrix(1,0,0,1,-144,-196)"></g>
                  </g>
                  <g
                    opacity="1"
                    transform="matrix(1,0,0,1,79.05599975585938,121.05599975585938)"
                  >
                    <path
                      fill="rgb(255,255,255)"
                      fill-opacity="1"
                      d=" M-2.91,36.92 C-2.91,37.12 -3.08,37.28 -3.27,37.28 C-3.27,37.28 -9.53,37.28 -9.53,37.28 C-9.73,37.28 -9.89,37.12 -9.89,36.92 C-9.89,36.92 -9.89,29.94 -9.89,29.94 C-9.89,29.74 -9.73,29.59 -9.53,29.59 C-9.53,29.59 -3.27,29.59 -3.27,29.59 C-3.08,29.59 -2.91,29.74 -2.91,29.94 C-2.91,29.94 -2.91,36.92 -2.91,36.92z M-2.91,20.9 C-2.91,21.1 -3.08,21.26 -3.27,21.26 C-3.27,21.26 -9.53,21.26 -9.53,21.26 C-9.73,21.26 -9.89,21.1 -9.89,20.9 C-9.89,20.9 -9.89,13.93 -9.89,13.93 C-9.89,13.72 -9.73,13.57 -9.53,13.57 C-9.53,13.57 -3.27,13.57 -3.27,13.57 C-3.08,13.57 -2.91,13.72 -2.91,13.93 C-2.91,13.93 -2.91,20.9 -2.91,20.9z M-2.91,4.88 C-2.91,5.08 -3.08,5.24 -3.27,5.24 C-3.27,5.24 -9.53,5.24 -9.53,5.24 C-9.73,5.24 -9.89,5.08 -9.89,4.88 C-9.89,4.88 -9.89,-2.09 -9.89,-2.09 C-9.89,-2.29 -9.73,-2.45 -9.53,-2.45 C-9.53,-2.45 -3.27,-2.45 -3.27,-2.45 C-3.08,-2.45 -2.91,-2.29 -2.91,-2.09 C-2.91,-2.09 -2.91,4.88 -2.91,4.88z M-2.91,-11.14 C-2.91,-10.94 -3.08,-10.78 -3.27,-10.78 C-3.27,-10.78 -9.53,-10.78 -9.53,-10.78 C-9.73,-10.78 -9.89,-10.94 -9.89,-11.14 C-9.89,-11.14 -9.89,-18.11 -9.89,-18.11 C-9.89,-18.31 -9.73,-18.47 -9.53,-18.47 C-9.53,-18.47 -3.27,-18.47 -3.27,-18.47 C-3.08,-18.47 -2.91,-18.31 -2.91,-18.11 C-2.91,-18.11 -2.91,-11.14 -2.91,-11.14z M-2.91,-27.15 C-2.91,-26.96 -3.08,-26.79 -3.27,-26.79 C-3.27,-26.79 -9.53,-26.79 -9.53,-26.79 C-9.73,-26.79 -9.89,-26.96 -9.89,-27.15 C-9.89,-27.15 -9.89,-34.13 -9.89,-34.13 C-9.89,-34.33 -9.73,-34.49 -9.53,-34.49 C-9.53,-34.49 -3.27,-34.49 -3.27,-34.49 C-3.08,-34.49 -2.91,-34.33 -2.91,-34.13 C-2.91,-34.13 -2.91,-27.15 -2.91,-27.15z M9.36,36.92 C9.36,37.12 9.2,37.28 9,37.28 C9,37.28 2.74,37.28 2.74,37.28 C2.54,37.28 2.38,37.12 2.38,36.92 C2.38,36.92 2.38,29.94 2.38,29.94 C2.38,29.74 2.54,29.59 2.74,29.59 C2.74,29.59 9,29.59 9,29.59 C9.2,29.59 9.36,29.74 9.36,29.94 C9.36,29.94 9.36,36.92 9.36,36.92z M9.36,20.9 C9.36,21.1 9.2,21.26 9,21.26 C9,21.26 2.74,21.26 2.74,21.26 C2.54,21.26 2.38,21.1 2.38,20.9 C2.38,20.9 2.38,13.93 2.38,13.93 C2.38,13.72 2.54,13.57 2.74,13.57 C2.74,13.57 9,13.57 9,13.57 C9.2,13.57 9.36,13.72 9.36,13.93 C9.36,13.93 9.36,20.9 9.36,20.9z M9.36,4.88 C9.36,5.08 9.2,5.24 9,5.24 C9,5.24 2.74,5.24 2.74,5.24 C2.54,5.24 2.38,5.08 2.38,4.88 C2.38,4.88 2.38,-2.09 2.38,-2.09 C2.38,-2.29 2.54,-2.45 2.74,-2.45 C2.74,-2.45 9,-2.45 9,-2.45 C9.2,-2.45 9.36,-2.29 9.36,-2.09 C9.36,-2.09 9.36,4.88 9.36,4.88z M9.36,-11.14 C9.36,-10.94 9.2,-10.78 9,-10.78 C9,-10.78 2.74,-10.78 2.74,-10.78 C2.54,-10.78 2.38,-10.94 2.38,-11.14 C2.38,-11.14 2.38,-18.11 2.38,-18.11 C2.38,-18.31 2.54,-18.47 2.74,-18.47 C2.74,-18.47 9,-18.47 9,-18.47 C9.2,-18.47 9.36,-18.31 9.36,-18.11 C9.36,-18.11 9.36,-11.14 9.36,-11.14z M9.36,-27.15 C9.36,-26.96 9.2,-26.79 9,-26.79 C9,-26.79 2.74,-26.79 2.74,-26.79 C2.54,-26.79 2.38,-26.96 2.38,-27.15 C2.38,-27.15 2.38,-34.13 2.38,-34.13 C2.38,-34.33 2.54,-34.49 2.74,-34.49 C2.74,-34.49 9,-34.49 9,-34.49 C9.2,-34.49 9.36,-34.33 9.36,-34.13 C9.36,-34.13 9.36,-27.15 9.36,-27.15z M13.664999961853027,-47.37799835205078 C13.664999961853027,-47.37799835205078 -13.670000076293945,-47.37799835205078 -13.670000076293945,-47.37799835205078 C-14.03499984741211,-47.37799835205078 -14.338000297546387,-47.08000183105469 -14.338000297546387,-46.70800018310547 C-14.338000297546387,-46.70800018310547 -14.338000297546387,46.709999084472656 -14.338000297546387,46.709999084472656 C-14.338000297546387,47.077999114990234 -14.03499984741211,47.37799835205078 -13.670000076293945,47.37799835205078 C-13.670000076293945,47.37799835205078 13.664999961853027,47.37799835205078 13.664999961853027,47.37799835205078 C14.031999588012695,47.37799835205078 14.338000297546387,47.077999114990234 14.338000297546387,46.709999084472656 C14.338000297546387,46.709999084472656 14.338000297546387,-46.70800018310547 14.338000297546387,-46.70800018310547 C14.338000297546387,-47.08000183105469 14.031999588012695,-47.37799835205078 13.664999961853027,-47.37799835205078z"
                    ></path>
                    <g
                      opacity="1"
                      transform="matrix(1,0,0,1,-79.375,-217.875)"
                    ></g>
                  </g>
                  <g
                    opacity="1"
                    transform="matrix(1,0,0,1,143.68600463867188,133.4980010986328)"
                  >
                    <path
                      fill="rgb(255,255,255)"
                      fill-opacity="1"
                      d="M0 0"
                    ></path>
                  </g>
                  <g
                    opacity="1"
                    transform="matrix(1,0,0,1,111.4800033569336,129.68499755859375)"
                  >
                    <path
                      fill="rgb(255,255,255)"
                      fill-opacity="1"
                      d=" M3.05,-20.05 C3.05,-20.05 3.24,-20.29 3.24,-20.29 C5.08,-22.65 8.18,-26.46 9.69,-28.31 C9.69,-28.31 9.89,-28.55 9.89,-28.55 C10.03,-28.72 10.25,-28.83 10.49,-28.83 C10.86,-28.83 11.16,-28.56 11.24,-28.21 C11.24,-28.21 11.24,-27.91 11.24,-27.91 C11.24,-27.91 11.24,-27.66 11.24,-27.66 C11.24,-27.66 11.24,-19.59 11.24,-19.59 C11.24,-19.17 10.9,-18.84 10.49,-18.82 C10.48,-18.82 10.47,-18.81 10.46,-18.81 C10.45,-18.81 10.44,-18.82 10.43,-18.82 C10.43,-18.82 4.04,-18.82 4.04,-18.82 C4.04,-18.82 3.71,-18.82 3.71,-18.82 C3.7,-18.82 3.69,-18.81 3.68,-18.81 C3.67,-18.81 3.66,-18.82 3.64,-18.82 C3.23,-18.84 2.9,-19.17 2.9,-19.59 C2.9,-19.76 2.96,-19.92 3.05,-20.05z M-1.2,27.68 C-1.2,28.05 -1.5,28.35 -1.87,28.35 C-1.87,28.35 -10.01,28.35 -10.01,28.35 C-10.38,28.35 -10.68,28.05 -10.68,27.68 C-10.68,27.68 -10.68,22.58 -10.68,22.58 C-10.68,22.21 -10.38,21.91 -10.01,21.91 C-10.01,21.91 -1.87,21.91 -1.87,21.91 C-1.5,21.91 -1.2,22.21 -1.2,22.58 C-1.2,22.58 -1.2,27.68 -1.2,27.68z M-1.2,18.26 C-1.2,18.63 -1.5,18.93 -1.87,18.93 C-1.87,18.93 -10.01,18.93 -10.01,18.93 C-10.38,18.93 -10.68,18.63 -10.68,18.26 C-10.68,18.26 -10.68,13.16 -10.68,13.16 C-10.68,12.79 -10.38,12.49 -10.01,12.49 C-10.01,12.49 -1.87,12.49 -1.87,12.49 C-1.5,12.49 -1.2,12.79 -1.2,13.16 C-1.2,13.16 -1.2,18.26 -1.2,18.26z M-1.2,8.84 C-1.2,9.2 -1.5,9.5 -1.87,9.5 C-1.87,9.5 -10.01,9.5 -10.01,9.5 C-10.38,9.5 -10.68,9.2 -10.68,8.84 C-10.68,8.84 -10.68,3.73 -10.68,3.73 C-10.68,3.36 -10.38,3.07 -10.01,3.07 C-10.01,3.07 -1.87,3.07 -1.87,3.07 C-1.5,3.07 -1.2,3.36 -1.2,3.73 C-1.2,3.73 -1.2,8.84 -1.2,8.84z M-1.18,-11.81 C-1.18,-11.81 -1.18,-11.57 -1.18,-11.57 C-1.18,-11.57 -1.18,-0.58 -1.18,-0.58 C-1.18,-0.21 -1.48,0.09 -1.84,0.09 C-1.84,0.09 -9.99,0.09 -9.99,0.09 C-10.36,0.09 -10.66,-0.21 -10.66,-0.58 C-10.66,-0.58 -10.66,-1.94 -10.66,-1.94 C-10.66,-1.94 -10.66,-1.99 -10.66,-1.99 C-10.66,-2.08 -10.64,-2.16 -10.61,-2.24 C-10.6,-2.27 -10.6,-2.28 -10.57,-2.32 C-10.55,-2.35 -10.53,-2.38 -10.51,-2.41 C-10.49,-2.44 -10.46,-2.48 -10.43,-2.52 C-9.39,-4.01 -4.69,-9.8 -2.72,-12.22 C-2.72,-12.22 -2.52,-12.46 -2.52,-12.46 C-2.38,-12.63 -2.16,-12.74 -1.92,-12.74 C-1.55,-12.74 -1.25,-12.47 -1.18,-12.12 C-1.18,-12.12 -1.18,-11.81 -1.18,-11.81z M11.26,27.68 C11.26,28.05 10.95,28.35 10.59,28.35 C10.59,28.35 2.44,28.35 2.44,28.35 C2.07,28.35 1.77,28.05 1.77,27.68 C1.77,27.68 1.77,22.58 1.77,22.58 C1.77,22.21 2.07,21.91 2.44,21.91 C2.44,21.91 10.59,21.91 10.59,21.91 C10.95,21.91 11.26,22.21 11.26,22.58 C11.26,22.58 11.26,27.68 11.26,27.68z M11.26,18.26 C11.26,18.63 10.95,18.93 10.59,18.93 C10.59,18.93 2.44,18.93 2.44,18.93 C2.07,18.93 1.77,18.63 1.77,18.26 C1.77,18.26 1.77,13.16 1.77,13.16 C1.77,12.79 2.07,12.49 2.44,12.49 C2.44,12.49 10.59,12.49 10.59,12.49 C10.95,12.49 11.26,12.79 11.26,13.16 C11.26,13.16 11.26,18.26 11.26,18.26z M11.26,8.84 C11.26,9.2 10.95,9.5 10.59,9.5 C10.59,9.5 2.44,9.5 2.44,9.5 C2.07,9.5 1.77,9.2 1.77,8.84 C1.77,8.84 1.77,3.73 1.77,3.73 C1.77,3.36 2.07,3.07 2.44,3.07 C2.44,3.07 10.59,3.07 10.59,3.07 C10.95,3.07 11.26,3.36 11.26,3.73 C11.26,3.73 11.26,8.84 11.26,8.84z M11.26,-0.59 C11.26,-0.22 10.95,0.08 10.59,0.08 C10.59,0.08 2.44,0.08 2.44,0.08 C2.07,0.08 1.77,-0.22 1.77,-0.59 C1.77,-0.59 1.77,-5.69 1.77,-5.69 C1.77,-6.06 2.07,-6.36 2.44,-6.36 C2.44,-6.36 10.59,-6.36 10.59,-6.36 C10.95,-6.36 11.26,-6.06 11.26,-5.69 C11.26,-5.69 11.26,-0.59 11.26,-0.59z M11.26,-10.01 C11.26,-9.64 10.95,-9.35 10.59,-9.35 C10.59,-9.35 2.44,-9.35 2.44,-9.35 C2.07,-9.35 1.77,-9.64 1.77,-10.01 C1.77,-10.01 1.77,-15.11 1.77,-15.11 C1.77,-15.49 2.07,-15.78 2.44,-15.78 C2.44,-15.78 10.59,-15.78 10.59,-15.78 C10.95,-15.78 11.26,-15.49 11.26,-15.11 C11.26,-15.11 11.26,-10.01 11.26,-10.01z M14.258000373840332,-38.36600112915039 C14.168000221252441,-38.66600036621094 13.901000022888184,-38.88800048828125 13.571999549865723,-38.88800048828125 C13.423999786376953,-38.88800048828125 13.295999526977539,-38.83399963378906 13.180999755859375,-38.75899887084961 C13.164999961853027,-38.74800109863281 13.147000312805176,-38.73899841308594 13.130000114440918,-38.724998474121094 C13.130000114440918,-38.724998474121094 12.89900016784668,-38.435001373291016 12.89900016784668,-38.435001373291016 C12.89900016784668,-38.435001373291016 -13.965999603271484,-4.354000091552734 -13.965999603271484,-4.354000091552734 C-13.965999603271484,-4.354000091552734 -14.09000015258789,-4.189000129699707 -14.09000015258789,-4.189000129699707 C-14.229000091552734,-4.052000045776367 -14.317999839782715,-3.867000102996826 -14.322999954223633,-3.6579999923706055 C-14.322999954223633,-3.6579999923706055 -14.322999954223633,-3.6110000610351562 -14.322999954223633,-3.6110000610351562 C-14.322999954223633,-3.6110000610351562 -14.322999954223633,38.222999572753906 -14.322999954223633,38.222999572753906 C-14.322999954223633,38.590999603271484 -14.02299976348877,38.88800048828125 -13.652999877929688,38.88800048828125 C-13.652999877929688,38.88800048828125 13.654999732971191,38.88800048828125 13.654999732971191,38.88800048828125 C14.024999618530273,38.88800048828125 14.322999954223633,38.590999603271484 14.322999954223633,38.222999572753906 C14.322999954223633,38.222999572753906 14.322999954223633,-38.08599853515625 14.322999954223633,-38.08599853515625 C14.322999954223633,-38.18600082397461 14.29699993133545,-38.28200149536133 14.258000373840332,-38.36600112915039z"
                    ></path>
                    <g
                      opacity="1"
                      transform="matrix(1,0,0,1,-111.375,-210.875)"
                    ></g>
                  </g>
                </g>
                <g
                  transform="matrix(1.0000029802322388,0,0,1.0000029802322388,141.87490844726562,55.96988296508789)"
                  opacity="1"
                  style="display: block;"
                >
                  <g opacity="1" transform="matrix(1,0,0,1,0,0)">
                    <path
                      fill="rgb(255,255,255)"
                      fill-opacity="1"
                      d=" M209.4739990234375,45.387001037597656 C214.52099609375,45.387001037597656 216.6959991455078,42.196998596191406 216.6959991455078,37.70100021362305 C216.6959991455078,37.70100021362305 216.6959991455078,36.10499954223633 216.6959991455078,36.10499954223633 C216.6959991455078,32.47999954223633 215.39100646972656,30.64299964904785 212.69400024414062,27.597999572753906 C212.69400024414062,27.597999572753906 209.51800537109375,24.117000579833984 209.51800537109375,24.117000579833984 C208.08200073242188,22.56999969482422 207.16799926757812,21.506999969482422 207.16799926757812,19.670000076293945 C207.16799926757812,19.670000076293945 207.16799926757812,18.993000030517578 207.16799926757812,18.993000030517578 C207.16799926757812,17.1560001373291 208.12600708007812,16.285999298095703 209.51800537109375,16.285999298095703 C211.08399963378906,16.285999298095703 211.86700439453125,17.204999923706055 211.86700439453125,19.09000015258789 C211.86700439453125,19.09000015258789 211.86700439453125,21.941999435424805 211.86700439453125,21.941999435424805 C211.86700439453125,21.941999435424805 216.39199829101562,21.941999435424805 216.39199829101562,21.941999435424805 C216.39199829101562,21.941999435424805 216.39199829101562,19.283000946044922 216.39199829101562,19.283000946044922 C216.39199829101562,14.545999526977539 214.4340057373047,11.83899974822998 209.4739990234375,11.83899974822998 C204.64500427246094,11.83899974822998 202.51300048828125,14.980999946594238 202.51300048828125,19.04199981689453 C202.51300048828125,19.04199981689453 202.51300048828125,20.152999877929688 202.51300048828125,20.152999877929688 C202.51300048828125,23.923999786376953 203.8179931640625,25.80900001525879 206.64599609375,28.902999877929688 C206.64599609375,28.902999877929688 209.56100463867188,32.141998291015625 209.56100463867188,32.141998291015625 C211.08399963378906,33.73699951171875 211.77999877929688,34.89699935913086 211.77999877929688,36.78200149536133 C211.77999877929688,36.78200149536133 211.77999877929688,38.03900146484375 211.77999877929688,38.03900146484375 C211.77999877929688,39.77899932861328 211.08399963378906,40.93899917602539 209.51800537109375,40.93899917602539 C207.8209991455078,40.93899917602539 207.08099365234375,39.875999450683594 207.08099365234375,38.03900146484375 C207.08099365234375,38.03900146484375 207.08099365234375,33.542999267578125 207.08099365234375,33.542999267578125 C207.08099365234375,33.542999267578125 202.47000122070312,33.542999267578125 202.47000122070312,33.542999267578125 C202.47000122070312,33.542999267578125 202.47000122070312,37.94200134277344 202.47000122070312,37.94200134277344 C202.47000122070312,42.24399948120117 204.427001953125,45.387001037597656 209.4739990234375,45.387001037597656z"
                    ></path>
                  </g>
                  <g opacity="1" transform="matrix(1,0,0,1,0,0)">
                    <path
                      fill="rgb(255,255,255)"
                      fill-opacity="1"
                      d=" M189.17100524902344,45 C189.17100524902344,45 201.00399780273438,45 201.00399780273438,45 C201.00399780273438,45 201.00399780273438,40.50400161743164 201.00399780273438,40.50400161743164 C201.00399780273438,40.50400161743164 194.1300048828125,40.50400161743164 194.1300048828125,40.50400161743164 C194.1300048828125,40.50400161743164 194.1300048828125,30.54599952697754 194.1300048828125,30.54599952697754 C194.1300048828125,30.54599952697754 199.0469970703125,30.54599952697754 199.0469970703125,30.54599952697754 C199.0469970703125,30.54599952697754 199.0469970703125,26.099000930786133 199.0469970703125,26.099000930786133 C199.0469970703125,26.099000930786133 194.1300048828125,26.099000930786133 194.1300048828125,26.099000930786133 C194.1300048828125,26.099000930786133 194.1300048828125,16.72100067138672 194.1300048828125,16.72100067138672 C194.1300048828125,16.72100067138672 201.00399780273438,16.72100067138672 201.00399780273438,16.72100067138672 C201.00399780273438,16.72100067138672 201.00399780273438,12.22599983215332 201.00399780273438,12.22599983215332 C201.00399780273438,12.22599983215332 189.17100524902344,12.22599983215332 189.17100524902344,12.22599983215332 C189.17100524902344,12.22599983215332 189.17100524902344,45 189.17100524902344,45z"
                    ></path>
                  </g>
                  <g opacity="1" transform="matrix(1,0,0,1,0,0)">
                    <path
                      fill="rgb(255,255,255)"
                      fill-opacity="1"
                      d=" M182.26300048828125,45 C182.26300048828125,45 187.22300720214844,45 187.22300720214844,45 C187.22300720214844,45 187.22300720214844,12.22599983215332 187.22300720214844,12.22599983215332 C187.22300720214844,12.22599983215332 182.26300048828125,12.22599983215332 182.26300048828125,12.22599983215332 C182.26300048828125,12.22599983215332 182.26300048828125,45 182.26300048828125,45z"
                    ></path>
                  </g>
                  <g opacity="1" transform="matrix(1,0,0,1,0,0)">
                    <path
                      fill="rgb(255,255,255)"
                      fill-opacity="1"
                      d=" M167.59300231933594,16.72100067138672 C167.59300231933594,16.72100067138672 171.68299865722656,16.72100067138672 171.68299865722656,16.72100067138672 C171.68299865722656,16.72100067138672 171.68299865722656,45 171.68299865722656,45 C171.68299865722656,45 176.68600463867188,45 176.68600463867188,45 C176.68600463867188,45 176.68600463867188,16.72100067138672 176.68600463867188,16.72100067138672 C176.68600463867188,16.72100067138672 180.7760009765625,16.72100067138672 180.7760009765625,16.72100067138672 C180.7760009765625,16.72100067138672 180.7760009765625,12.22599983215332 180.7760009765625,12.22599983215332 C180.7760009765625,12.22599983215332 167.59300231933594,12.22599983215332 167.59300231933594,12.22599983215332 C167.59300231933594,12.22599983215332 167.59300231933594,16.72100067138672 167.59300231933594,16.72100067138672z"
                    ></path>
                  </g>
                  <g opacity="1" transform="matrix(1,0,0,1,0,0)">
                    <path
                      fill="rgb(255,255,255)"
                      fill-opacity="1"
                      d=" M161.13900756835938,45 C161.13900756835938,45 166.0989990234375,45 166.0989990234375,45 C166.0989990234375,45 166.0989990234375,12.22599983215332 166.0989990234375,12.22599983215332 C166.0989990234375,12.22599983215332 161.13900756835938,12.22599983215332 161.13900756835938,12.22599983215332 C161.13900756835938,12.22599983215332 161.13900756835938,45 161.13900756835938,45z"
                    ></path>
                  </g>
                  <g opacity="1" transform="matrix(1,0,0,1,0,0)">
                    <path
                      fill="rgb(255,255,255)"
                      fill-opacity="1"
                      d=" M154.88600158691406,45 C154.88600158691406,45 159.23599243164062,45 159.23599243164062,45 C159.23599243164062,45 159.23599243164062,12.22599983215332 159.23599243164062,12.22599983215332 C159.23599243164062,12.22599983215332 155.10299682617188,12.22599983215332 155.10299682617188,12.22599983215332 C155.10299682617188,12.22599983215332 155.10299682617188,31.030000686645508 155.10299682617188,31.030000686645508 C155.10299682617188,31.030000686645508 149.7519989013672,12.22599983215332 149.7519989013672,12.22599983215332 C149.7519989013672,12.22599983215332 144.87899780273438,12.22599983215332 144.87899780273438,12.22599983215332 C144.87899780273438,12.22599983215332 144.87899780273438,45 144.87899780273438,45 C144.87899780273438,45 149.05599975585938,45 149.05599975585938,45 C149.05599975585938,45 149.05599975585938,24.406999588012695 149.05599975585938,24.406999588012695 C149.05599975585938,24.406999588012695 154.88600158691406,45 154.88600158691406,45z"
                    ></path>
                  </g>
                  <g opacity="1" transform="matrix(1,0,0,1,0,0)">
                    <path
                      fill="rgb(255,255,255)"
                      fill-opacity="1"
                      d=" M138.42100524902344,12.22599983215332 C138.42100524902344,12.22599983215332 138.42100524902344,37.555999755859375 138.42100524902344,37.555999755859375 C138.42100524902344,39.4900016784668 137.72500610351562,40.79399871826172 135.98500061035156,40.79399871826172 C134.2449951171875,40.79399871826172 133.54800415039062,39.4900016784668 133.54800415039062,37.555999755859375 C133.54800415039062,37.555999755859375 133.54800415039062,12.22599983215332 133.54800415039062,12.22599983215332 C133.54800415039062,12.22599983215332 128.58900451660156,12.22599983215332 128.58900451660156,12.22599983215332 C128.58900451660156,12.22599983215332 128.58900451660156,37.02399826049805 128.58900451660156,37.02399826049805 C128.58900451660156,42.099998474121094 130.76400756835938,45.387001037597656 135.98500061035156,45.387001037597656 C141.03199768066406,45.387001037597656 142.98899841308594,42.099998474121094 142.98899841308594,37.02399826049805 C142.98899841308594,37.02399826049805 142.98899841308594,12.22599983215332 142.98899841308594,12.22599983215332 C142.98899841308594,12.22599983215332 138.42100524902344,12.22599983215332 138.42100524902344,12.22599983215332z"
                    ></path>
                  </g>
                  <g opacity="1" transform="matrix(1,0,0,1,0,0)">
                    <path
                      fill="rgb(255,255,255)"
                      fill-opacity="1"
                      d=" M122.17900085449219,45 C122.17900085449219,45 126.7040023803711,45 126.7040023803711,45 C126.7040023803711,45 126.7040023803711,12.22599983215332 126.7040023803711,12.22599983215332 C126.7040023803711,12.22599983215332 120.43900299072266,12.22599983215332 120.43900299072266,12.22599983215332 C120.43900299072266,12.22599983215332 117.56800079345703,30.69099998474121 117.56800079345703,30.69099998474121 C117.56800079345703,30.69099998474121 117.52400207519531,30.69099998474121 117.52400207519531,30.69099998474121 C117.52400207519531,30.69099998474121 114.30500030517578,12.22599983215332 114.30500030517578,12.22599983215332 C114.30500030517578,12.22599983215332 108.51899719238281,12.22599983215332 108.51899719238281,12.22599983215332 C108.51899719238281,12.22599983215332 108.51899719238281,45 108.51899719238281,45 C108.51899719238281,45 112.60800170898438,45 112.60800170898438,45 C112.60800170898438,45 112.60800170898438,23.729999542236328 112.60800170898438,23.729999542236328 C112.60800170898438,23.729999542236328 112.69499969482422,23.729999542236328 112.69499969482422,23.729999542236328 C112.69499969482422,23.729999542236328 116.39299774169922,45 116.39299774169922,45 C116.39299774169922,45 118.6989974975586,45 118.6989974975586,45 C118.6989974975586,45 122.04900360107422,23.729999542236328 122.04900360107422,23.729999542236328 C122.04900360107422,23.729999542236328 122.17900085449219,23.729999542236328 122.17900085449219,23.729999542236328 C122.17900085449219,23.729999542236328 122.17900085449219,45 122.17900085449219,45z"
                    ></path>
                  </g>
                  <g opacity="1" transform="matrix(1,0,0,1,0,0)">
                    <path
                      fill="rgb(255,255,255)"
                      fill-opacity="1"
                      d=" M102.08799743652344,45 C102.08799743652344,45 106.61199951171875,45 106.61199951171875,45 C106.61199951171875,45 106.61199951171875,12.22599983215332 106.61199951171875,12.22599983215332 C106.61199951171875,12.22599983215332 100.34700012207031,12.22599983215332 100.34700012207031,12.22599983215332 C100.34700012207031,12.22599983215332 97.47599792480469,30.69099998474121 97.47599792480469,30.69099998474121 C97.47599792480469,30.69099998474121 97.43299865722656,30.69099998474121 97.43299865722656,30.69099998474121 C97.43299865722656,30.69099998474121 94.21299743652344,12.22599983215332 94.21299743652344,12.22599983215332 C94.21299743652344,12.22599983215332 88.427001953125,12.22599983215332 88.427001953125,12.22599983215332 C88.427001953125,12.22599983215332 88.427001953125,45 88.427001953125,45 C88.427001953125,45 92.51599884033203,45 92.51599884033203,45 C92.51599884033203,45 92.51599884033203,23.729999542236328 92.51599884033203,23.729999542236328 C92.51599884033203,23.729999542236328 92.60299682617188,23.729999542236328 92.60299682617188,23.729999542236328 C92.60299682617188,23.729999542236328 96.3010025024414,45 96.3010025024414,45 C96.3010025024414,45 98.60700225830078,45 98.60700225830078,45 C98.60700225830078,45 101.95700073242188,23.729999542236328 101.95700073242188,23.729999542236328 C101.95700073242188,23.729999542236328 102.08799743652344,23.729999542236328 102.08799743652344,23.729999542236328 C102.08799743652344,23.729999542236328 102.08799743652344,45 102.08799743652344,45z"
                    ></path>
                  </g>
                  <g opacity="1" transform="matrix(1,0,0,1,0,0)">
                    <path
                      fill="rgb(255,255,255)"
                      fill-opacity="1"
                      d=" M79.07499694824219,45.387001037597656 C84.33899688720703,45.387001037597656 86.60199737548828,41.617000579833984 86.60199737548828,36.54100036621094 C86.60199737548828,36.54100036621094 86.60199737548828,20.684999465942383 86.60199737548828,20.684999465942383 C86.60199737548828,15.560999870300293 84.33899688720703,11.83899974822998 79.07499694824219,11.83899974822998 C73.85399627685547,11.83899974822998 71.59200286865234,15.560999870300293 71.59200286865234,20.684999465942383 C71.59200286865234,20.684999465942383 71.59200286865234,36.54100036621094 71.59200286865234,36.54100036621094 C71.59200286865234,41.617000579833984 73.85399627685547,45.387001037597656 79.07499694824219,45.387001037597656z M79.07499694824219,40.79399871826172 C77.33499908447266,40.79399871826172 76.552001953125,39.393001556396484 76.552001953125,37.4109992980957 C76.552001953125,37.4109992980957 76.552001953125,19.815000534057617 76.552001953125,19.815000534057617 C76.552001953125,17.83300018310547 77.33499908447266,16.430999755859375 79.07499694824219,16.430999755859375 C80.85900115966797,16.430999755859375 81.64199829101562,17.83300018310547 81.64199829101562,19.815000534057617 C81.64199829101562,19.815000534057617 81.64199829101562,37.4109992980957 81.64199829101562,37.4109992980957 C81.64199829101562,39.393001556396484 80.85900115966797,40.79399871826172 79.07499694824219,40.79399871826172z"
                    ></path>
                  </g>
                  <g opacity="1" transform="matrix(1,0,0,1,0,0)">
                    <path
                      fill="rgb(255,255,255)"
                      fill-opacity="1"
                      d=" M62.926998138427734,45.387001037597656 C68.19100189208984,45.387001037597656 69.93099975585938,41.90599822998047 69.93099975585938,37.21699905395508 C69.93099975585938,37.21699905395508 69.93099975585938,31.562000274658203 69.93099975585938,31.562000274658203 C69.93099975585938,31.562000274658203 65.40699768066406,31.562000274658203 65.40699768066406,31.562000274658203 C65.40699768066406,31.562000274658203 65.40699768066406,37.604000091552734 65.40699768066406,37.604000091552734 C65.40699768066406,39.53799819946289 64.7979965209961,40.79399871826172 63.013999938964844,40.79399871826172 C61.22999954223633,40.79399871826172 60.49100112915039,39.393001556396484 60.49100112915039,37.4109992980957 C60.49100112915039,37.4109992980957 60.49100112915039,19.815000534057617 60.49100112915039,19.815000534057617 C60.49100112915039,17.83300018310547 61.22999954223633,16.430999755859375 63.013999938964844,16.430999755859375 C64.7979965209961,16.430999755859375 65.40699768066406,17.591999053955078 65.40699768066406,19.621999740600586 C65.40699768066406,19.621999740600586 65.40699768066406,23.923999786376953 65.40699768066406,23.923999786376953 C65.40699768066406,23.923999786376953 69.93099975585938,23.923999786376953 69.93099975585938,23.923999786376953 C69.93099975585938,23.923999786376953 69.93099975585938,20.05699920654297 69.93099975585938,20.05699920654297 C69.93099975585938,15.222999572753906 68.40899658203125,11.83899974822998 62.926998138427734,11.83899974822998 C57.70600128173828,11.83899974822998 55.53099822998047,15.560999870300293 55.53099822998047,20.684999465942383 C55.53099822998047,20.684999465942383 55.53099822998047,36.54100036621094 55.53099822998047,36.54100036621094 C55.53099822998047,41.617000579833984 57.70600128173828,45.387001037597656 62.926998138427734,45.387001037597656z"
                    ></path>
                  </g>
                  <g opacity="1" transform="matrix(1,0,0,1,0,0)">
                    <path
                      fill="rgb(255,255,255)"
                      fill-opacity="1"
                      d=" M42.409000396728516,12.22599983215332 C42.409000396728516,12.22599983215332 34.75199890136719,12.22599983215332 34.75199890136719,12.22599983215332 C34.75199890136719,12.22599983215332 34.75199890136719,45 34.75199890136719,45 C34.75199890136719,45 42.409000396728516,45 42.409000396728516,45 C47.71699905395508,45 49.5880012512207,41.229000091552734 49.5880012512207,36.20199966430664 C49.5880012512207,36.20199966430664 49.5880012512207,21.023000717163086 49.5880012512207,21.023000717163086 C49.5880012512207,15.946999549865723 47.71699905395508,12.22599983215332 42.409000396728516,12.22599983215332z M39.71200180053711,40.50400161743164 C39.71200180053711,40.50400161743164 39.71200180053711,16.72100067138672 39.71200180053711,16.72100067138672 C39.71200180053711,16.72100067138672 41.79999923706055,16.72100067138672 41.79999923706055,16.72100067138672 C43.845001220703125,16.72100067138672 44.62799835205078,18.073999404907227 44.62799835205078,20.007999420166016 C44.62799835205078,20.007999420166016 44.62799835205078,37.16899871826172 44.62799835205078,37.16899871826172 C44.62799835205078,39.1510009765625 43.845001220703125,40.50400161743164 41.79999923706055,40.50400161743164 C41.79999923706055,40.50400161743164 39.71200180053711,40.50400161743164 39.71200180053711,40.50400161743164z"
                    ></path>
                  </g>
                  <g opacity="1" transform="matrix(1,0,0,1,0,0)">
                    <path
                      fill="rgb(255,255,255)"
                      fill-opacity="1"
                      d=" M28.489999771118164,45 C28.489999771118164,45 32.840999603271484,45 32.840999603271484,45 C32.840999603271484,45 32.840999603271484,12.22599983215332 32.840999603271484,12.22599983215332 C32.840999603271484,12.22599983215332 28.70800018310547,12.22599983215332 28.70800018310547,12.22599983215332 C28.70800018310547,12.22599983215332 28.70800018310547,31.030000686645508 28.70800018310547,31.030000686645508 C28.70800018310547,31.030000686645508 23.356000900268555,12.22599983215332 23.356000900268555,12.22599983215332 C23.356000900268555,12.22599983215332 18.483999252319336,12.22599983215332 18.483999252319336,12.22599983215332 C18.483999252319336,12.22599983215332 18.483999252319336,45 18.483999252319336,45 C18.483999252319336,45 22.65999984741211,45 22.65999984741211,45 C22.65999984741211,45 22.65999984741211,24.406999588012695 22.65999984741211,24.406999588012695 C22.65999984741211,24.406999588012695 28.489999771118164,45 28.489999771118164,45z"
                    ></path>
                  </g>
                  <g opacity="1" transform="matrix(1,0,0,1,0,0)">
                    <path
                      fill="rgb(255,255,255)"
                      fill-opacity="1"
                      d=" M8.484000205993652,21.45800018310547 C8.484000205993652,21.45800018310547 8.527000427246094,21.45800018310547 8.527000427246094,21.45800018310547 C8.527000427246094,21.45800018310547 10.484999656677246,34.606998443603516 10.484999656677246,34.606998443603516 C10.484999656677246,34.606998443603516 6.526000022888184,34.606998443603516 6.526000022888184,34.606998443603516 C6.526000022888184,34.606998443603516 8.484000205993652,21.45800018310547 8.484000205993652,21.45800018310547z M5.002999782562256,45 C5.002999782562256,45 5.873000144958496,39.00600051879883 5.873000144958496,39.00600051879883 C5.873000144958496,39.00600051879883 11.13700008392334,39.00600051879883 11.13700008392334,39.00600051879883 C11.13700008392334,39.00600051879883 12.050999641418457,45 12.050999641418457,45 C12.050999641418457,45 17.141000747680664,45 17.141000747680664,45 C17.141000747680664,45 11.529000282287598,12.22599983215332 11.529000282287598,12.22599983215332 C11.529000282287598,12.22599983215332 5.873000144958496,12.22599983215332 5.873000144958496,12.22599983215332 C5.873000144958496,12.22599983215332 0.3050000071525574,45 0.3050000071525574,45 C0.3050000071525574,45 5.002999782562256,45 5.002999782562256,45z"
                    ></path>
                  </g>
                  <g opacity="1" transform="matrix(1,0,0,1,0,0)">
                    <path
                      fill="rgb(255,255,255)"
                      fill-opacity="1"
                      d=" M229.63099670410156,0.3869999945163727 C234.67799377441406,0.3869999945163727 236.85299682617188,-2.802999973297119 236.85299682617188,-7.298999786376953 C236.85299682617188,-7.298999786376953 236.85299682617188,-8.895000457763672 236.85299682617188,-8.895000457763672 C236.85299682617188,-12.520000457763672 235.5469970703125,-14.357000350952148 232.85000610351562,-17.402000427246094 C232.85000610351562,-17.402000427246094 229.6739959716797,-20.882999420166016 229.6739959716797,-20.882999420166016 C228.23800659179688,-22.43000030517578 227.3249969482422,-23.493000030517578 227.3249969482422,-25.329999923706055 C227.3249969482422,-25.329999923706055 227.3249969482422,-26.006999969482422 227.3249969482422,-26.006999969482422 C227.3249969482422,-27.8439998626709 228.28199768066406,-28.714000701904297 229.6739959716797,-28.714000701904297 C231.24000549316406,-28.714000701904297 232.0240020751953,-27.795000076293945 232.0240020751953,-25.90999984741211 C232.0240020751953,-25.90999984741211 232.0240020751953,-23.058000564575195 232.0240020751953,-23.058000564575195 C232.0240020751953,-23.058000564575195 236.54800415039062,-23.058000564575195 236.54800415039062,-23.058000564575195 C236.54800415039062,-23.058000564575195 236.54800415039062,-25.716999053955078 236.54800415039062,-25.716999053955078 C236.54800415039062,-30.45400047302246 234.59100341796875,-33.1609992980957 229.63099670410156,-33.1609992980957 C224.802001953125,-33.1609992980957 222.6699981689453,-30.018999099731445 222.6699981689453,-25.95800018310547 C222.6699981689453,-25.95800018310547 222.6699981689453,-24.847000122070312 222.6699981689453,-24.847000122070312 C222.6699981689453,-21.076000213623047 223.97500610351562,-19.19099998474121 226.80299377441406,-16.097000122070312 C226.80299377441406,-16.097000122070312 229.71800231933594,-12.857999801635742 229.71800231933594,-12.857999801635742 C231.24099731445312,-11.262999534606934 231.93699645996094,-10.102999687194824 231.93699645996094,-8.218000411987305 C231.93699645996094,-8.218000411987305 231.93699645996094,-6.960999965667725 231.93699645996094,-6.960999965667725 C231.93699645996094,-5.2210001945495605 231.24000549316406,-4.060999870300293 229.6739959716797,-4.060999870300293 C227.9770050048828,-4.060999870300293 227.23800659179688,-5.124000072479248 227.23800659179688,-6.960999965667725 C227.23800659179688,-6.960999965667725 227.23800659179688,-11.456999778747559 227.23800659179688,-11.456999778747559 C227.23800659179688,-11.456999778747559 222.62600708007812,-11.456999778747559 222.62600708007812,-11.456999778747559 C222.62600708007812,-11.456999778747559 222.62600708007812,-7.058000087738037 222.62600708007812,-7.058000087738037 C222.62600708007812,-2.75600004196167 224.58399963378906,0.3869999945163727 229.63099670410156,0.3869999945163727z"
                    ></path>
                  </g>
                  <g opacity="1" transform="matrix(1,0,0,1,0,0)">
                    <path
                      fill="rgb(255,255,255)"
                      fill-opacity="1"
                      d=" M209.32699584960938,0 C209.32699584960938,0 221.16099548339844,0 221.16099548339844,0 C221.16099548339844,0 221.16099548339844,-4.495999813079834 221.16099548339844,-4.495999813079834 C221.16099548339844,-4.495999813079834 214.28700256347656,-4.495999813079834 214.28700256347656,-4.495999813079834 C214.28700256347656,-4.495999813079834 214.28700256347656,-14.454000473022461 214.28700256347656,-14.454000473022461 C214.28700256347656,-14.454000473022461 219.2030029296875,-14.454000473022461 219.2030029296875,-14.454000473022461 C219.2030029296875,-14.454000473022461 219.2030029296875,-18.900999069213867 219.2030029296875,-18.900999069213867 C219.2030029296875,-18.900999069213867 214.28700256347656,-18.900999069213867 214.28700256347656,-18.900999069213867 C214.28700256347656,-18.900999069213867 214.28700256347656,-28.27899932861328 214.28700256347656,-28.27899932861328 C214.28700256347656,-28.27899932861328 221.16099548339844,-28.27899932861328 221.16099548339844,-28.27899932861328 C221.16099548339844,-28.27899932861328 221.16099548339844,-32.77399826049805 221.16099548339844,-32.77399826049805 C221.16099548339844,-32.77399826049805 209.32699584960938,-32.77399826049805 209.32699584960938,-32.77399826049805 C209.32699584960938,-32.77399826049805 209.32699584960938,0 209.32699584960938,0z"
                    ></path>
                  </g>
                  <g opacity="1" transform="matrix(1,0,0,1,0,0)">
                    <path
                      fill="rgb(255,255,255)"
                      fill-opacity="1"
                      d=" M202.4199981689453,0 C202.4199981689453,0 207.3800048828125,0 207.3800048828125,0 C207.3800048828125,0 207.3800048828125,-32.77399826049805 207.3800048828125,-32.77399826049805 C207.3800048828125,-32.77399826049805 202.4199981689453,-32.77399826049805 202.4199981689453,-32.77399826049805 C202.4199981689453,-32.77399826049805 202.4199981689453,0 202.4199981689453,0z"
                    ></path>
                  </g>
                  <g opacity="1" transform="matrix(1,0,0,1,0,0)">
                    <path
                      fill="rgb(255,255,255)"
                      fill-opacity="1"
                      d=" M187.75,-28.27899932861328 C187.75,-28.27899932861328 191.83999633789062,-28.27899932861328 191.83999633789062,-28.27899932861328 C191.83999633789062,-28.27899932861328 191.83999633789062,0 191.83999633789062,0 C191.83999633789062,0 196.84300231933594,0 196.84300231933594,0 C196.84300231933594,0 196.84300231933594,-28.27899932861328 196.84300231933594,-28.27899932861328 C196.84300231933594,-28.27899932861328 200.9320068359375,-28.27899932861328 200.9320068359375,-28.27899932861328 C200.9320068359375,-28.27899932861328 200.9320068359375,-32.77399826049805 200.9320068359375,-32.77399826049805 C200.9320068359375,-32.77399826049805 187.75,-32.77399826049805 187.75,-32.77399826049805 C187.75,-32.77399826049805 187.75,-28.27899932861328 187.75,-28.27899932861328z"
                    ></path>
                  </g>
                  <g opacity="1" transform="matrix(1,0,0,1,0,0)">
                    <path
                      fill="rgb(255,255,255)"
                      fill-opacity="1"
                      d=" M181.29600524902344,0 C181.29600524902344,0 186.25599670410156,0 186.25599670410156,0 C186.25599670410156,0 186.25599670410156,-32.77399826049805 186.25599670410156,-32.77399826049805 C186.25599670410156,-32.77399826049805 181.29600524902344,-32.77399826049805 181.29600524902344,-32.77399826049805 C181.29600524902344,-32.77399826049805 181.29600524902344,0 181.29600524902344,0z"
                    ></path>
                  </g>
                  <g opacity="1" transform="matrix(1,0,0,1,0,0)">
                    <path
                      fill="rgb(255,255,255)"
                      fill-opacity="1"
                      d=" M172.61300659179688,0.3869999945163727 C177.8769989013672,0.3869999945163727 179.6179962158203,-3.0940001010894775 179.6179962158203,-7.7829999923706055 C179.6179962158203,-7.7829999923706055 179.6179962158203,-13.437999725341797 179.6179962158203,-13.437999725341797 C179.6179962158203,-13.437999725341797 175.09300231933594,-13.437999725341797 175.09300231933594,-13.437999725341797 C175.09300231933594,-13.437999725341797 175.09300231933594,-7.395999908447266 175.09300231933594,-7.395999908447266 C175.09300231933594,-5.461999893188477 174.48399353027344,-4.205999851226807 172.6999969482422,-4.205999851226807 C170.91600036621094,-4.205999851226807 170.177001953125,-5.60699987411499 170.177001953125,-7.589000225067139 C170.177001953125,-7.589000225067139 170.177001953125,-25.184999465942383 170.177001953125,-25.184999465942383 C170.177001953125,-27.16699981689453 170.91600036621094,-28.569000244140625 172.6999969482422,-28.569000244140625 C174.48399353027344,-28.569000244140625 175.09300231933594,-27.408000946044922 175.09300231933594,-25.378000259399414 C175.09300231933594,-25.378000259399414 175.09300231933594,-21.076000213623047 175.09300231933594,-21.076000213623047 C175.09300231933594,-21.076000213623047 179.6179962158203,-21.076000213623047 179.6179962158203,-21.076000213623047 C179.6179962158203,-21.076000213623047 179.6179962158203,-24.94300079345703 179.6179962158203,-24.94300079345703 C179.6179962158203,-29.777000427246094 178.09500122070312,-33.1609992980957 172.61300659179688,-33.1609992980957 C167.39199829101562,-33.1609992980957 165.2169952392578,-29.43899917602539 165.2169952392578,-24.315000534057617 C165.2169952392578,-24.315000534057617 165.2169952392578,-8.458999633789062 165.2169952392578,-8.458999633789062 C165.2169952392578,-3.382999897003174 167.39199829101562,0.3869999945163727 172.61300659179688,0.3869999945163727z"
                    ></path>
                  </g>
                  <g opacity="1" transform="matrix(1,0,0,1,0,0)">
                    <path
                      fill="rgb(255,255,255)"
                      fill-opacity="1"
                      d=" M147.5919952392578,0 C147.5919952392578,0 159.42599487304688,0 159.42599487304688,0 C159.42599487304688,0 159.42599487304688,-4.495999813079834 159.42599487304688,-4.495999813079834 C159.42599487304688,-4.495999813079834 152.552001953125,-4.495999813079834 152.552001953125,-4.495999813079834 C152.552001953125,-4.495999813079834 152.552001953125,-14.454000473022461 152.552001953125,-14.454000473022461 C152.552001953125,-14.454000473022461 157.46800231933594,-14.454000473022461 157.46800231933594,-14.454000473022461 C157.46800231933594,-14.454000473022461 157.46800231933594,-18.900999069213867 157.46800231933594,-18.900999069213867 C157.46800231933594,-18.900999069213867 152.552001953125,-18.900999069213867 152.552001953125,-18.900999069213867 C152.552001953125,-18.900999069213867 152.552001953125,-28.27899932861328 152.552001953125,-28.27899932861328 C152.552001953125,-28.27899932861328 159.42599487304688,-28.27899932861328 159.42599487304688,-28.27899932861328 C159.42599487304688,-28.27899932861328 159.42599487304688,-32.77399826049805 159.42599487304688,-32.77399826049805 C159.42599487304688,-32.77399826049805 147.5919952392578,-32.77399826049805 147.5919952392578,-32.77399826049805 C147.5919952392578,-32.77399826049805 147.5919952392578,0 147.5919952392578,0z"
                    ></path>
                  </g>
                  <g opacity="1" transform="matrix(1,0,0,1,0,0)">
                    <path
                      fill="rgb(255,255,255)"
                      fill-opacity="1"
                      d=" M135.2550048828125,0 C135.2550048828125,0 146.13099670410156,0 146.13099670410156,0 C146.13099670410156,0 146.13099670410156,-4.495999813079834 146.13099670410156,-4.495999813079834 C146.13099670410156,-4.495999813079834 140.21499633789062,-4.495999813079834 140.21499633789062,-4.495999813079834 C140.21499633789062,-4.495999813079834 140.21499633789062,-32.77399826049805 140.21499633789062,-32.77399826049805 C140.21499633789062,-32.77399826049805 135.2550048828125,-32.77399826049805 135.2550048828125,-32.77399826049805 C135.2550048828125,-32.77399826049805 135.2550048828125,0 135.2550048828125,0z"
                    ></path>
                  </g>
                  <g opacity="1" transform="matrix(1,0,0,1,0,0)">
                    <path
                      fill="rgb(255,255,255)"
                      fill-opacity="1"
                      d=" M124.12300109863281,-28.27899932861328 C124.12300109863281,-28.27899932861328 125.81999969482422,-28.27899932861328 125.81999969482422,-28.27899932861328 C127.4729995727539,-28.27899932861328 128.21200561523438,-27.409000396728516 128.21200561523438,-25.6200008392334 C128.21200561523438,-25.6200008392334 128.21200561523438,-21.607999801635742 128.21200561523438,-21.607999801635742 C128.21200561523438,-19.868000030517578 127.4729995727539,-18.948999404907227 125.86299896240234,-18.948999404907227 C125.86299896240234,-18.948999404907227 124.12300109863281,-18.948999404907227 124.12300109863281,-18.948999404907227 C124.12300109863281,-18.948999404907227 124.12300109863281,-28.27899932861328 124.12300109863281,-28.27899932861328z M126.25499725341797,-14.744000434875488 C127.99500274658203,-14.744000434875488 128.73500061035156,-13.824999809265137 128.73500061035156,-12.085000038146973 C128.73500061035156,-12.085000038146973 128.73500061035156,-7.1539998054504395 128.73500061035156,-7.1539998054504395 C128.73500061035156,-5.414000034332275 127.95099639892578,-4.495999813079834 126.2979965209961,-4.495999813079834 C126.2979965209961,-4.495999813079834 124.12300109863281,-4.495999813079834 124.12300109863281,-4.495999813079834 C124.12300109863281,-4.495999813079834 124.12300109863281,-14.744000434875488 124.12300109863281,-14.744000434875488 C124.12300109863281,-14.744000434875488 126.25499725341797,-14.744000434875488 126.25499725341797,-14.744000434875488z M119.16300201416016,0 C119.16300201416016,0 126.86399841308594,0 126.86399841308594,0 C131.82400512695312,0 133.69400024414062,-2.562000036239624 133.69400024414062,-7.203000068664551 C133.69400024414062,-7.203000068664551 133.69400024414062,-11.553000450134277 133.69400024414062,-11.553000450134277 C133.69400024414062,-14.550000190734863 132.4759979248047,-16.38800048828125 129.99600219726562,-17.016000747680664 C132.04100036621094,-17.740999221801758 132.9550018310547,-19.481000900268555 132.9550018310547,-22.236000061035156 C132.9550018310547,-22.236000061035156 132.9550018310547,-25.57200050354004 132.9550018310547,-25.57200050354004 C132.9550018310547,-30.21299934387207 131.302001953125,-32.77399826049805 126.34200286865234,-32.77399826049805 C126.34200286865234,-32.77399826049805 119.16300201416016,-32.77399826049805 119.16300201416016,-32.77399826049805 C119.16300201416016,-32.77399826049805 119.16300201416016,0 119.16300201416016,0z"
                    ></path>
                  </g>
                  <g opacity="1" transform="matrix(1,0,0,1,0,0)">
                    <path
                      fill="rgb(255,255,255)"
                      fill-opacity="1"
                      d=" M109.16300201416016,-23.54199981689453 C109.16300201416016,-23.54199981689453 109.20700073242188,-23.54199981689453 109.20700073242188,-23.54199981689453 C109.20700073242188,-23.54199981689453 111.16500091552734,-10.392999649047852 111.16500091552734,-10.392999649047852 C111.16500091552734,-10.392999649047852 107.20500183105469,-10.392999649047852 107.20500183105469,-10.392999649047852 C107.20500183105469,-10.392999649047852 109.16300201416016,-23.54199981689453 109.16300201416016,-23.54199981689453z M105.68299865722656,0 C105.68299865722656,0 106.5530014038086,-5.99399995803833 106.5530014038086,-5.99399995803833 C106.5530014038086,-5.99399995803833 111.81700134277344,-5.99399995803833 111.81700134277344,-5.99399995803833 C111.81700134277344,-5.99399995803833 112.73100280761719,0 112.73100280761719,0 C112.73100280761719,0 117.82099914550781,0 117.82099914550781,0 C117.82099914550781,0 112.20899963378906,-32.77399826049805 112.20899963378906,-32.77399826049805 C112.20899963378906,-32.77399826049805 106.5530014038086,-32.77399826049805 106.5530014038086,-32.77399826049805 C106.5530014038086,-32.77399826049805 100.98400115966797,0 100.98400115966797,0 C100.98400115966797,0 105.68299865722656,0 105.68299865722656,0z"
                    ></path>
                  </g>
                  <g opacity="1" transform="matrix(1,0,0,1,0,0)">
                    <path
                      fill="rgb(255,255,255)"
                      fill-opacity="1"
                      d=" M95.28500366210938,0 C95.28500366210938,0 99.63500213623047,0 99.63500213623047,0 C99.63500213623047,0 99.63500213623047,-32.77399826049805 99.63500213623047,-32.77399826049805 C99.63500213623047,-32.77399826049805 95.50199890136719,-32.77399826049805 95.50199890136719,-32.77399826049805 C95.50199890136719,-32.77399826049805 95.50199890136719,-13.970000267028809 95.50199890136719,-13.970000267028809 C95.50199890136719,-13.970000267028809 90.1510009765625,-32.77399826049805 90.1510009765625,-32.77399826049805 C90.1510009765625,-32.77399826049805 85.27799987792969,-32.77399826049805 85.27799987792969,-32.77399826049805 C85.27799987792969,-32.77399826049805 85.27799987792969,0 85.27799987792969,0 C85.27799987792969,0 89.45500183105469,0 89.45500183105469,0 C89.45500183105469,0 89.45500183105469,-20.593000411987305 89.45500183105469,-20.593000411987305 C89.45500183105469,-20.593000411987305 95.28500366210938,0 95.28500366210938,0z"
                    ></path>
                  </g>
                  <g opacity="1" transform="matrix(1,0,0,1,0,0)">
                    <path
                      fill="rgb(255,255,255)"
                      fill-opacity="1"
                      d=" M78.37100219726562,0 C78.37100219726562,0 83.33100128173828,0 83.33100128173828,0 C83.33100128173828,0 83.33100128173828,-32.77399826049805 83.33100128173828,-32.77399826049805 C83.33100128173828,-32.77399826049805 78.37100219726562,-32.77399826049805 78.37100219726562,-32.77399826049805 C78.37100219726562,-32.77399826049805 78.37100219726562,0 78.37100219726562,0z"
                    ></path>
                  </g>
                  <g opacity="1" transform="matrix(1,0,0,1,0,0)">
                    <path
                      fill="rgb(255,255,255)"
                      fill-opacity="1"
                      d=" M68.37100219726562,-23.54199981689453 C68.37100219726562,-23.54199981689453 68.41400146484375,-23.54199981689453 68.41400146484375,-23.54199981689453 C68.41400146484375,-23.54199981689453 70.37200164794922,-10.392999649047852 70.37200164794922,-10.392999649047852 C70.37200164794922,-10.392999649047852 66.41300201416016,-10.392999649047852 66.41300201416016,-10.392999649047852 C66.41300201416016,-10.392999649047852 68.37100219726562,-23.54199981689453 68.37100219726562,-23.54199981689453z M64.88999938964844,0 C64.88999938964844,0 65.76100158691406,-5.99399995803833 65.76100158691406,-5.99399995803833 C65.76100158691406,-5.99399995803833 71.0250015258789,-5.99399995803833 71.0250015258789,-5.99399995803833 C71.0250015258789,-5.99399995803833 71.93800354003906,0 71.93800354003906,0 C71.93800354003906,0 77.02899932861328,0 77.02899932861328,0 C77.02899932861328,0 71.41600036621094,-32.77399826049805 71.41600036621094,-32.77399826049805 C71.41600036621094,-32.77399826049805 65.76100158691406,-32.77399826049805 65.76100158691406,-32.77399826049805 C65.76100158691406,-32.77399826049805 60.19200134277344,0 60.19200134277344,0 C60.19200134277344,0 64.88999938964844,0 64.88999938964844,0z"
                    ></path>
                  </g>
                  <g opacity="1" transform="matrix(1,0,0,1,0,0)">
                    <path
                      fill="rgb(255,255,255)"
                      fill-opacity="1"
                      d=" M48.05500030517578,-28.27899932861328 C48.05500030517578,-28.27899932861328 52.14400100708008,-28.27899932861328 52.14400100708008,-28.27899932861328 C52.14400100708008,-28.27899932861328 52.14400100708008,0 52.14400100708008,0 C52.14400100708008,0 57.14699935913086,0 57.14699935913086,0 C57.14699935913086,0 57.14699935913086,-28.27899932861328 57.14699935913086,-28.27899932861328 C57.14699935913086,-28.27899932861328 61.23699951171875,-28.27899932861328 61.23699951171875,-28.27899932861328 C61.23699951171875,-28.27899932861328 61.23699951171875,-32.77399826049805 61.23699951171875,-32.77399826049805 C61.23699951171875,-32.77399826049805 48.05500030517578,-32.77399826049805 48.05500030517578,-32.77399826049805 C48.05500030517578,-32.77399826049805 48.05500030517578,-28.27899932861328 48.05500030517578,-28.27899932861328z"
                    ></path>
                  </g>
                  <g opacity="1" transform="matrix(1,0,0,1,0,0)">
                    <path
                      fill="rgb(255,255,255)"
                      fill-opacity="1"
                      d=" M39.68199920654297,0.3869999945163727 C44.729000091552734,0.3869999945163727 46.90399932861328,-2.802999973297119 46.90399932861328,-7.298999786376953 C46.90399932861328,-7.298999786376953 46.90399932861328,-8.895000457763672 46.90399932861328,-8.895000457763672 C46.90399932861328,-12.520000457763672 45.5989990234375,-14.357000350952148 42.902000427246094,-17.402000427246094 C42.902000427246094,-17.402000427246094 39.72600173950195,-20.882999420166016 39.72600173950195,-20.882999420166016 C38.290000915527344,-22.43000030517578 37.375999450683594,-23.493000030517578 37.375999450683594,-25.329999923706055 C37.375999450683594,-25.329999923706055 37.375999450683594,-26.006999969482422 37.375999450683594,-26.006999969482422 C37.375999450683594,-27.8439998626709 38.33399963378906,-28.714000701904297 39.72600173950195,-28.714000701904297 C41.29199981689453,-28.714000701904297 42.07500076293945,-27.795000076293945 42.07500076293945,-25.90999984741211 C42.07500076293945,-25.90999984741211 42.07500076293945,-23.058000564575195 42.07500076293945,-23.058000564575195 C42.07500076293945,-23.058000564575195 46.599998474121094,-23.058000564575195 46.599998474121094,-23.058000564575195 C46.599998474121094,-23.058000564575195 46.599998474121094,-25.716999053955078 46.599998474121094,-25.716999053955078 C46.599998474121094,-30.45400047302246 44.641998291015625,-33.1609992980957 39.68199920654297,-33.1609992980957 C34.85300064086914,-33.1609992980957 32.72100067138672,-30.018999099731445 32.72100067138672,-25.95800018310547 C32.72100067138672,-25.95800018310547 32.72100067138672,-24.847000122070312 32.72100067138672,-24.847000122070312 C32.72100067138672,-21.076000213623047 34.0260009765625,-19.19099998474121 36.854000091552734,-16.097000122070312 C36.854000091552734,-16.097000122070312 39.76900100708008,-12.857999801635742 39.76900100708008,-12.857999801635742 C41.29199981689453,-11.262999534606934 41.987998962402344,-10.102999687194824 41.987998962402344,-8.218000411987305 C41.987998962402344,-8.218000411987305 41.987998962402344,-6.960999965667725 41.987998962402344,-6.960999965667725 C41.987998962402344,-5.2210001945495605 41.29199981689453,-4.060999870300293 39.72600173950195,-4.060999870300293 C38.02899932861328,-4.060999870300293 37.28900146484375,-5.124000072479248 37.28900146484375,-6.960999965667725 C37.28900146484375,-6.960999965667725 37.28900146484375,-11.456999778747559 37.28900146484375,-11.456999778747559 C37.28900146484375,-11.456999778747559 32.678001403808594,-11.456999778747559 32.678001403808594,-11.456999778747559 C32.678001403808594,-11.456999778747559 32.678001403808594,-7.058000087738037 32.678001403808594,-7.058000087738037 C32.678001403808594,-2.75600004196167 34.6349983215332,0.3869999945163727 39.68199920654297,0.3869999945163727z"
                    ></path>
                  </g>
                  <g opacity="1" transform="matrix(1,0,0,1,0,0)">
                    <path
                      fill="rgb(255,255,255)"
                      fill-opacity="1"
                      d=" M26.51099967956543,-32.77399826049805 C26.51099967956543,-32.77399826049805 26.51099967956543,-7.443999767303467 26.51099967956543,-7.443999767303467 C26.51099967956543,-5.510000228881836 25.81399917602539,-4.205999851226807 24.073999404907227,-4.205999851226807 C22.333999633789062,-4.205999851226807 21.63800048828125,-5.510000228881836 21.63800048828125,-7.443999767303467 C21.63800048828125,-7.443999767303467 21.63800048828125,-32.77399826049805 21.63800048828125,-32.77399826049805 C21.63800048828125,-32.77399826049805 16.67799949645996,-32.77399826049805 16.67799949645996,-32.77399826049805 C16.67799949645996,-32.77399826049805 16.67799949645996,-7.97599983215332 16.67799949645996,-7.97599983215332 C16.67799949645996,-2.9000000953674316 18.85300064086914,0.3869999945163727 24.073999404907227,0.3869999945163727 C29.121000289916992,0.3869999945163727 31.07900047302246,-2.9000000953674316 31.07900047302246,-7.97599983215332 C31.07900047302246,-7.97599983215332 31.07900047302246,-32.77399826049805 31.07900047302246,-32.77399826049805 C31.07900047302246,-32.77399826049805 26.51099967956543,-32.77399826049805 26.51099967956543,-32.77399826049805z"
                    ></path>
                  </g>
                  <g opacity="1" transform="matrix(1,0,0,1,0,0)">
                    <path
                      fill="rgb(255,255,255)"
                      fill-opacity="1"
                      d=" M7.830999851226807,0.3869999945163727 C12.878000259399414,0.3869999945163727 15.053000450134277,-2.802999973297119 15.053000450134277,-7.298999786376953 C15.053000450134277,-7.298999786376953 15.053000450134277,-8.895000457763672 15.053000450134277,-8.895000457763672 C15.053000450134277,-12.520000457763672 13.746999740600586,-14.357000350952148 11.050000190734863,-17.402000427246094 C11.050000190734863,-17.402000427246094 7.875,-20.882999420166016 7.875,-20.882999420166016 C6.439000129699707,-22.43000030517578 5.525000095367432,-23.493000030517578 5.525000095367432,-25.329999923706055 C5.525000095367432,-25.329999923706055 5.525000095367432,-26.006999969482422 5.525000095367432,-26.006999969482422 C5.525000095367432,-27.8439998626709 6.482999801635742,-28.714000701904297 7.875,-28.714000701904297 C9.440999984741211,-28.714000701904297 10.223999977111816,-27.795000076293945 10.223999977111816,-25.90999984741211 C10.223999977111816,-25.90999984741211 10.223999977111816,-23.058000564575195 10.223999977111816,-23.058000564575195 C10.223999977111816,-23.058000564575195 14.748000144958496,-23.058000564575195 14.748000144958496,-23.058000564575195 C14.748000144958496,-23.058000564575195 14.748000144958496,-25.716999053955078 14.748000144958496,-25.716999053955078 C14.748000144958496,-30.45400047302246 12.791000366210938,-33.1609992980957 7.830999851226807,-33.1609992980957 C3.002000093460083,-33.1609992980957 0.8700000047683716,-30.018999099731445 0.8700000047683716,-25.95800018310547 C0.8700000047683716,-25.95800018310547 0.8700000047683716,-24.847000122070312 0.8700000047683716,-24.847000122070312 C0.8700000047683716,-21.076000213623047 2.174999952316284,-19.19099998474121 5.002999782562256,-16.097000122070312 C5.002999782562256,-16.097000122070312 7.918000221252441,-12.857999801635742 7.918000221252441,-12.857999801635742 C9.440999984741211,-11.262999534606934 10.13700008392334,-10.102999687194824 10.13700008392334,-8.218000411987305 C10.13700008392334,-8.218000411987305 10.13700008392334,-6.960999965667725 10.13700008392334,-6.960999965667725 C10.13700008392334,-5.2210001945495605 9.440999984741211,-4.060999870300293 7.875,-4.060999870300293 C6.177999973297119,-4.060999870300293 5.438000202178955,-5.124000072479248 5.438000202178955,-6.960999965667725 C5.438000202178955,-6.960999965667725 5.438000202178955,-11.456999778747559 5.438000202178955,-11.456999778747559 C5.438000202178955,-11.456999778747559 0.8270000219345093,-11.456999778747559 0.8270000219345093,-11.456999778747559 C0.8270000219345093,-11.456999778747559 0.8270000219345093,-7.058000087738037 0.8270000219345093,-7.058000087738037 C0.8270000219345093,-2.75600004196167 2.7839999198913574,0.3869999945163727 7.830999851226807,0.3869999945163727z"
                    ></path>
                  </g>
                </g>
                <g
                  transform="matrix(2.5647878646850586,0,0,2.5647878646850586,59.000431060791016,101.44825744628906)"
                  opacity="1"
                  style="display: block;"
                >
                  <g opacity="1" transform="matrix(1,0,0,1,0,0)">
                    <path
                      fill="rgb(255,255,255)"
                      fill-opacity="1"
                      d=" M14.9399995803833,-30.72599983215332 C14.9399995803833,-30.72599983215332 10.656999588012695,-25.152000427246094 10.656999588012695,-25.152000427246094 C10.656999588012695,-25.152000427246094 10.656999588012695,-19.759000778198242 10.656999588012695,-19.759000778198242 C10.656999588012695,-19.759000778198242 10.697999954223633,-19.759000778198242 10.697999954223633,-19.759000778198242 C10.697999954223633,-19.759000778198242 13.961000442504883,-23.520000457763672 13.961000442504883,-23.520000457763672 C13.961000442504883,-23.520000457763672 14.001999855041504,-23.520000457763672 14.001999855041504,-23.520000457763672 C14.001999855041504,-23.520000457763672 14.001999855041504,0 14.001999855041504,0 C14.001999855041504,0 18.650999069213867,0 18.650999069213867,0 C18.650999069213867,0 18.650999069213867,-30.72599983215332 18.650999069213867,-30.72599983215332 C18.650999069213867,-30.72599983215332 14.9399995803833,-30.72599983215332 14.9399995803833,-30.72599983215332z"
                    ></path>
                  </g>
                  <g opacity="1" transform="matrix(1,0,0,1,0,0)">
                    <path
                      fill="rgb(255,255,255)"
                      fill-opacity="1"
                      d=" M5.0980000495910645,-30.72599983215332 C5.0980000495910645,-30.72599983215332 0.8159999847412109,-25.152000427246094 0.8159999847412109,-25.152000427246094 C0.8159999847412109,-25.152000427246094 0.8159999847412109,-19.759000778198242 0.8159999847412109,-19.759000778198242 C0.8159999847412109,-19.759000778198242 0.8569999933242798,-19.759000778198242 0.8569999933242798,-19.759000778198242 C0.8569999933242798,-19.759000778198242 4.11899995803833,-23.520000457763672 4.11899995803833,-23.520000457763672 C4.11899995803833,-23.520000457763672 4.159999847412109,-23.520000457763672 4.159999847412109,-23.520000457763672 C4.159999847412109,-23.520000457763672 4.159999847412109,0 4.159999847412109,0 C4.159999847412109,0 8.8100004196167,0 8.8100004196167,0 C8.8100004196167,0 8.8100004196167,-30.72599983215332 8.8100004196167,-30.72599983215332 C8.8100004196167,-30.72599983215332 5.0980000495910645,-30.72599983215332 5.0980000495910645,-30.72599983215332z"
                    ></path>
                  </g>
                </g>
              </g>
              <defs>
                <clipPath id="animationMask_GoIzYquAqC">
                  <rect width="800" height="125" x="0" y="0"></rect>
                </clipPath>
                <clipPath id="MqVZPsnKot">
                  <path
                    fill="#ffffff"
                    clip-rule="nonzero"
                    d=" M31.20400047302246,73.6780014038086 C31.20400047302246,73.6780014038086 31.20400047302246,168.6790008544922 31.20400047302246,168.6790008544922 C31.20400047302246,168.6790008544922 158.3350067138672,168.6790008544922 158.3350067138672,168.6790008544922 C158.3350067138672,168.6790008544922 158.3350067138672,73.6780014038086 158.3350067138672,73.6780014038086 C158.3350067138672,73.6780014038086 31.20400047302246,73.6780014038086 31.20400047302246,73.6780014038086"
                    fill-opacity="1"
                  ></path>
                </clipPath>
              </defs>
            </svg>