<svg id="Layer_1" enable-background="new 0 0 5000 5000" viewBox="0 0 5000 5000" xmlns="http://www.w3.org/2000/svg"><g><g><g><path d="m4444.89 4436.57c-331.55-744.46-1077.34-1263.76-1944.89-1263.76s-1613.34 519.3-1944.89 1263.76z" fill="#cbebe7"/><g fill="#abd49a"><path d="m4273.51 4131.43c-319.68-491.48-833.84-831.32-1410.61-932.35l-88.93-15.58 60.92 66.6c41.22 45.05 65.99 92.38 73.65 140.67 10.6 67.01-12.46 134.37-68.45 200.16-69.86 81.96-94.27 176.59-58.06 224.97 23.75 31.76 69.44 35.61 125.34 10.51 28.43-12.65 51.07-12.17 65.54 1.34 18.31 17.1 20.42 53.05 5.49 93.81-29.78 81.24-124.92 179.07-295.06 187.43-77.04 3.77-97.12 35.88-100.4 62.18-8.35 67.22 90.67 182.69 218.11 221.61 27.23 8.32 53.41 12.43 78.27 12.43 77.85 0 142.88-40.31 187.52-117.9l4.41-7.85c1.5-2.61 3-5.24 4.53-8.26 79.65-157.12 208.24-133.98 311.51-96.12 10.06 3.68 28.85 9.53 51.46 16.56 20.24 6.27 41.19 12.79 54.94 17.58 31.94 11.17 65.33 20.67 101.03 30.82 19.42 5.51 39.12 11.12 59.08 17.16 11.44 3.44 59.92 13.8 89.38 18.33 79.95 12.32 155.52 13.21 229.01 3.05l5.13-.72c97.96-13.9 171.08-53.66 265.56-109.16l36.84-22.1z"/><path d="m2261.92 3388.26c96.37-41.72 209.69 1.18 251.13 65.77 24.68 38.48 20.24 80.15-11.61 108.76-18.93 17-45.14 23.67-73.53 23.67-37.92 0-79.69-11.89-113.12-26.95-24.5-11.03-104.44-51.43-104.04-108.22.13-18.7 9.12-44.81 51.17-63.03z"/><path d="m1816.4 3667.26c-.08 17.42-20.79 25.1-38.2 25.1-.05 0-291.85-2.59-344.01-135.14-5.99-15.23-10.84-49.39-7.37-71.83-222.64 137.89-435.55 327.08-596.68 539.96 35.31-6.36 79.45-2.15 117.93 13.32 55.06 22.12 93.68 70.77 114.76 144.57 33.96 118.85 196.81 180.42 321.65 161.19 32.31-4.96 107.29-23.35 105.63-87.07-3.15-122.1 47.37-228.67 128.72-271.52 52.27-27.55 115.61-39.77 236.84 48.1 41.41 30 109.83 25.2 155.21-9.98 78.26-60.73 125.82-194.37 96.03-269.79-17.84-45.18-66.31-77.94-135.55-71.64-17.42 1.73-50.78 2.06-52.38-15.34z"/></g></g><path d="m3988.95 2031.81c32.23-17.53 58.52-45.96 74.15-80.11 0 0 .01-.01.01-.03l5.91-12.85c2.35-5.21 3.54-10.93 3.44-16.86-.36-21.71-18.13-39.14-39.76-39.14-.23 0-.45 0-.66.01-10.61.17-20.53 4.46-27.91 12.1-7.39 7.62-11.36 17.69-11.19 28.31.42 25.58-8.71 51.4-25.67 72.66-17.96 22.67-43.99 38.94-73.23 45.74-7.9 1.88-15.95 3.06-24.08 3.55 7.07 2.14 14.37 3.75 21.8 4.79 32.21 4.82 67.6-1.87 97.19-18.17z" fill="#dfbc6e"/><circle cx="1408.88" cy="2461.81" fill="#fff" r="44.35"/><path d="m1188.13 2742.96c-39.35-48.62-84.94-124.32-87.1-216.45-2.32-98.97 45.77-193.06 142.9-279.7 91-81.15 134.93-164.23 130.57-246.93-5.77-109.63-94.13-189.44-120.56-210.96-261.11 4.39-472.26 217.83-472.26 479.96.01 239.67 176.64 438.33 406.45 474.08zm-45.37-798.59c57.06 0 103.49 46.43 103.49 103.49s-46.43 103.49-103.49 103.49-103.49-46.43-103.49-103.49 46.44-103.49 103.49-103.49z" fill="#fff"/><circle cx="1142.76" cy="2047.85" fill="#c2d8f0" r="44.35"/><path d="m1433.57 1996.76c5.34 101.51-45.22 200.5-150.28 294.2-83.46 74.43-124.9 153.08-123.15 233.76 2.43 112.05 87.36 199.25 114.02 223.92 259.26-6.5 468.28-218.97 468.28-479.76 0-236.26-171.61-432.78-396.63-472.58 39.54 45.69 83.24 114.71 87.76 200.46zm78.8 465.05c0 57.06-46.43 103.49-103.49 103.49s-103.49-46.43-103.49-103.49 46.43-103.49 103.49-103.49 103.49 46.43 103.49 103.49z" fill="#c2d8f0"/><circle cx="3774.35" cy="1811.31" fill="#f5dd80" r="44.35"/><path d="m1948.89 1206.01c81.15 53.81 184.53 58.13 269.8 11.16l873.35-485.71c50.01-30.52 60.12-43.82 62.13-47.59-.4-.12-1.14-1.67-2.66-4.43-41.38-75.22-207.72-70.43-307.56-29.6l42.05 76.42c7.88 14.31 2.66 32.28-11.65 40.15-4.52 2.5-9.4 3.67-14.22 3.67-10.44 0-20.54-5.53-25.93-15.32l-42.99-78.12-50.42 27.75 42.99 78.13c7.88 14.31 2.66 32.28-11.65 40.15-4.52 2.5-9.4 3.67-14.22 3.67-10.44 0-20.54-5.53-25.93-15.32l-42.99-78.12-206.64 113.72c-.62.35-1.31.32-1.95.62-2.06.96-4.19 1.57-6.43 2.04-1.46.3-2.85.67-4.32.75-.52.03-.99.26-1.52.26-2.02 0-4.09-.2-6.14-.64l-256.72-54.23-188.27-39.78 15.35 27.89 359.76 238.32c13.61 9.01 17.34 27.36 8.32 40.97-5.69 8.59-15.09 13.24-24.67 13.24-5.6 0-11.28-1.59-16.3-4.92l-129.39-85.71-193.54 106.51c-6.19 3.42-13.41 4.48-20.36 3.03l-269.91-57.01 29.09 52.87z" fill="#fff"/><g><g><path d="m3151.51 679.44c-14.09-25.61-42.83-41.76-78.33-50.55 1.42 2.6 2.15 4.12 2.54 4.23-2.01 3.77-12.11 17.07-62.13 47.59l-126.21 70.19c-2.41 6.32-6.65 12-13.05 15.52-4.52 2.5-9.4 3.67-14.22 3.67-1.98 0-3.92-.38-5.84-.77l-69.54 38.67c-2.49 5.96-6.52 11.33-12.61 14.68-4.52 2.5-9.4 3.67-14.22 3.67-1.69 0-3.32-.37-4.97-.66l-357.93 199.05c10.85 9.61 13.67 25.66 5.43 38.1-5.69 8.59-15.09 13.24-24.67 13.24-5.6 0-11.28-1.59-16.3-4.92l-21.87-14.48-197.34 109.75c-80.62 44.4-177.19 42.4-256.09-3.37l64.74 42.96c81.15 53.81 184.53 58.13 269.8 11.16l873.35-485.71c50.01-30.52 60.12-43.82 62.13-47.59-.42-.12-1.15-1.68-2.67-4.43z" fill="#e8f1f3"/></g></g><path d="m3355.83 1888.64c59.43 10.67 109.02 44.38 139.42 94.87 29.84 48.87 36.92 109.84 19.3 167.16-16.24 52.37-53.17 102.94-94.73 130.05 77.46 41.81 130.01 113.41 138.85 193.77 5.63 42.61-1.67 87.91-20.66 126.91-19.9 39.69-48.93 71.06-84.11 91.04-18.23 11.07-37.68 19.17-57.07 23.63-20.6 5.3-39.88 6.55-64.06 6.81-23.89.46-46.19-2.15-69-4.85-5.88-1.13-9.2-1.7-12.53-2.3-8.16-1.44-16.34-2.97-24.11-5.33-9.76-1.85-21.31-5.6-31.95-9.28-44.19-14.89-85.37-40.73-122.17-76.71-10.34-10.06-19.97-20.95-28.98-32.33 3.7 13.73 8.45 27.13 14.24 40.09 22.08 49.13 61.49 93.74 108.14 122.36 45.52 28.76 99.5 46.58 160.75 53.19 29.29 3.22 61.81 2.15 89.25-2.9 28.95-5.76 58-16.99 85.93-33.34 27.63-16.96 51.15-37.15 69.37-59.66 20.21-25.35 35.47-52.22 45.22-79.7 10.18-27.91 15.33-58.53 14.99-88.84.26-15.78-1.88-31.69-3.9-45.42-1.3-5.62-3-13.17-5.01-20.6-2.51-9.37.17-18.58 5.73-25.66 62.19-108.57 160.56-150.16 264.63-112.71 68.81 27.68 110.9 103.06 101.08 179.62-2.84 32.7-16.13 64.03-36.76 90.8 25.9-20.54 47.24-49.67 59.92-83.25 8.74-23 12.97-48.03 12.7-73.58 0-.06-.03-.11-.03-.17 0-41.33-12.84-80.9-37.98-117.69-15.8-22.88-35.55-42.86-57.97-57.83-21.04-14.41-44.35-25.74-69.65-33.86-28.47-8.22-53.07-11.32-78.77-10.14-26.06 1.67-54.39 10.5-77.36 24.2-20.31 12.13-38.91 28.27-55.25 48.01-7.33 9.05-13.77 17.92-19.94 26.71-4.66 6.66-11.87 11.09-19.9 12.27-8.1 1.27-16.21-.98-22.59-6.01l-69.63-54.78c-12.69-9.99-15.03-28.3-5.26-41.15.07-.09 20.18-26.52 48.45-64.85 27.65-37.39 41.81-74.87 43.31-114.64.74-21.6-1.7-43.88-7.23-66.11-6.27-22.44-15.07-43.26-26-61.09-11.35-18.64-25.7-35.99-42.71-51.67-15.64-14.12-34.26-26.62-55.14-36.97-40.31-18.6-84.99-25.4-125.2-18.83-41.54 6.24-79.39 24.65-107 51.89-7.61 7.48-14.39 15.51-20.27 23.88 43.3-17.77 88.32-23.13 131.64-15.01z" fill="#f5dd80"/><path d="m2458.56 1766.95h206.98v-88.71h-206.98c-16.33 0-29.57-13.24-29.57-29.57v-177.41h-88.71v177.41c0 16.33-13.24 29.57-29.57 29.57h-206.98v88.71h206.98c16.33 0 29.57 13.24 29.57 29.57v248.03c0 11.71-6.9 22.31-17.61 27.04l-100.66 44.5v84.71l76.75-33.93c9.17-4.04 19.72-3.19 28.1 2.27 8.37 5.46 13.43 14.77 13.43 24.77v253.12h88.71v-327.79c0-11.71 6.9-22.31 17.61-27.04l100.66-44.5v-84.72l-76.75 33.93c-9.14 4.06-19.69 3.21-28.1-2.27-8.37-5.46-13.43-14.77-13.43-24.78v-173.34c0-16.33 13.24-29.57 29.57-29.57z" fill="#dbcd9f"/><path d="m3244.46 1879.81c27.6-27.24 65.46-45.65 107-51.89 40.21-6.57 84.89.23 125.2 18.83 20.88 10.35 39.5 22.85 55.14 36.97 17.01 15.68 31.36 33.03 42.71 51.67 10.93 17.83 19.74 38.65 26 61.09 5.53 22.23 7.97 44.51 7.23 66.11-1.5 39.76-15.67 77.24-43.31 114.64-28.27 38.33-48.38 64.77-48.45 64.85-9.77 12.85-7.44 31.16 5.26 41.15l69.63 54.78c6.38 5.02 14.5 7.28 22.59 6.01 8.03-1.18 15.23-5.62 19.9-12.27 6.16-8.79 12.6-17.66 19.94-26.71 16.34-19.74 34.94-35.88 55.25-48.01 22.97-13.7 51.3-22.52 77.36-24.2 25.7-1.18 50.3 1.92 78.77 10.14 25.29 8.11 48.61 19.45 69.65 33.86 22.42 14.96 42.17 34.95 57.97 57.83 25.13 36.79 37.98 76.36 37.98 117.69 0 .06.03.11.03.17.28 25.55-3.95 50.58-12.7 73.58-12.68 33.58-34.02 62.7-59.92 83.25 20.63-26.77 33.91-58.1 36.76-90.8 9.82-76.56-32.27-151.94-101.08-179.62-104.07-37.45-202.43 4.14-264.63 112.71-5.57 7.08-8.24 16.29-5.73 25.66 2.01 7.44 3.71 14.99 5.01 20.6 2.02 13.73 4.16 29.64 3.9 45.42.35 30.3-4.81 60.93-14.99 88.84-9.75 27.48-25.01 54.34-45.22 79.7-18.22 22.51-41.74 42.69-69.37 59.66-27.94 16.34-56.99 27.58-85.93 33.34-27.45 5.05-59.96 6.12-89.25 2.9-61.24-6.61-115.23-24.43-160.75-53.19-46.65-28.62-86.06-73.23-108.14-122.36-5.79-12.97-10.54-26.36-14.24-40.09 9.01 11.38 18.64 22.26 28.98 32.33 36.8 35.98 77.98 61.82 122.17 76.71 10.64 3.68 22.19 7.44 31.95 9.28 7.77 2.35 15.95 3.88 24.11 5.33 3.33.59 6.66 1.17 12.53 2.3 22.81 2.7 45.1 5.31 69 4.85 24.18-.26 43.46-1.52 64.06-6.81 19.39-4.46 38.84-12.56 57.07-23.63 35.18-19.98 64.22-51.35 84.11-91.04 18.99-39 26.29-84.3 20.66-126.91-8.84-80.36-61.39-151.96-138.85-193.77 41.55-27.11 78.48-77.69 94.73-130.05 17.61-57.32 10.54-118.29-19.3-167.16-30.41-50.49-80-84.2-139.42-94.87-43.33-8.11-88.34-2.76-131.64 15.06 5.88-8.42 12.66-16.45 20.27-23.93z" fill="#f5dd80"/><path d="m3774.35 1855.66c-24.46 0-44.35-19.9-44.35-44.35 0-24.46 19.9-44.35 44.35-44.35 24.46 0 44.35 19.9 44.35 44.35.01 24.46-19.89 44.35-44.35 44.35z" fill="#dfbc6e"/><path d="m3779.55 4436.57h665.35c-331.56-744.46-1077.35-1263.76-1944.9-1263.76-70.86 0-140.81 3.81-209.89 10.58 713.94 74.01 1298.96 580.68 1489.44 1253.18z" fill="#afd6cb"/><path d="m4273.51 4131.43c-319.68-491.48-833.84-831.32-1410.6-932.35l-88.93-15.58 60.92 66.61c34.13 37.29 56.29 76.2 67.49 115.87 372.38 191.68 666.29 513.82 821.55 906.25 6.84 1.25 13.46 2.4 19.26 3.29 79.95 12.32 155.52 13.21 229.01 3.05l5.13-.72c97.96-13.9 171.08-53.66 265.56-109.16l36.84-22.1z" fill="#94bf81"/><path d="m812.41 2437.6c60.14 159.37 202.85 278.47 375.72 305.36-29.22-36.1-61.81-87.19-77.57-148.79-118.78-12.98-223.79-71.04-298.15-156.57z" fill="#e8f1f3"/><path d="m1551.25 1886.5c45.72 71.73 72.57 156.67 72.57 248.04 0 116.44-43.35 222.53-114.37 303.84 1.76 7.56 2.91 15.34 2.91 23.43 0 57.06-46.43 103.49-103.49 103.49-18.06 0-34.79-5.06-49.59-13.23-56.75 26.97-119.7 42.74-186.31 44.41 25.2 76.48 80.55 133.06 101.17 152.15 259.26-6.5 468.28-218.97 468.28-479.76.01-156.21-75.28-294.72-191.17-382.37z" fill="#9fb9dd"/><path d="m2428.99 1648.68v-177.41h-46.09v975.76h46.09v-327.79c0-11.71 6.9-22.31 17.61-27.04l100.66-44.5v-84.72l-76.75 33.93c-9.14 4.06-19.69 3.21-28.1-2.27-8.37-5.46-13.43-14.77-13.43-24.78v-173.34c0-16.33 13.24-29.57 29.57-29.57h206.98v-88.71h-206.98c-16.32.01-29.56-13.23-29.56-29.56z" fill="#bead80"/><path d="m3571.72 2711.84c20.21-25.35 35.47-52.22 45.22-79.7 10.18-27.91 15.33-58.53 14.99-88.84.26-15.78-1.88-31.69-3.9-45.42-1.3-5.62-3-13.17-5.01-20.6-2.51-9.37.17-18.58 5.73-25.66 62.19-108.57 160.56-150.16 264.63-112.71 68.81 27.68 110.9 103.06 101.08 179.62-2.84 32.7-16.13 64.03-36.76 90.8 25.9-20.54 47.24-49.67 59.92-83.25 8.74-23 12.97-48.03 12.7-73.58 0-.06-.03-.11-.03-.17 0-41.33-12.84-80.9-37.98-117.69-15.8-22.88-35.55-42.86-57.97-57.83-21.04-14.41-44.35-25.74-69.65-33.86-28.47-8.22-53.07-11.32-78.77-10.14-26.06 1.67-54.39 10.5-77.36 24.2-20.31 12.13-38.91 28.27-55.25 48.01-7.33 9.05-13.77 17.92-19.94 26.71-4.66 6.66-11.87 11.09-19.9 12.27-8.1 1.27-16.21-.98-22.59-6.01l-69.63-54.78c-12.69-9.99-15.03-28.3-5.26-41.15.07-.09 20.18-26.52 48.45-64.85 27.65-37.39 41.81-74.87 43.31-114.64.74-21.6-1.7-43.88-7.23-66.11-6.27-22.44-15.07-43.26-26-61.09-11.35-18.64-25.7-35.99-42.71-51.67-15.64-14.12-34.26-26.62-55.14-36.97-5.02-2.32-10.26-3.89-15.4-5.83 137.7 69.15 120.15 290.47 14.29 431.62 73.26 87.91 128.93 146.52 114.28 281.31-13.92 128.07-110.14 218.96-340.86 237.77 24.59 7.53 50.53 13.13 78.19 16.11 29.29 3.22 61.81 2.15 89.25-2.9 28.95-5.76 58-16.99 85.93-33.34 27.63-16.93 51.15-37.12 69.37-59.63z" fill="#dfbc6e"/></g><g><g><g><path d="m3870.46 2697.85c-35.5 0-59.38-8.53-61.1-9.17-13.01-4.78-20.95-17.97-19.09-31.72 1.85-13.74 13.02-24.34 26.84-25.5 61.74-9.82 113.57-60.49 118.56-117.62 7.35-57.58-27.19-103.49-63.35-118.04-103.6-37.25-165.14 38.56-192.48 87.12-2.69 4.78-6.74 12-16.56 15.92-15.16 6.05-32.35-1.33-38.45-16.47-3.77-9.44-2.34-19.66 2.93-27.5 62.14-109.8 161.01-151.97 265.61-114.32 68.81 27.68 110.9 103.06 101.08 179.62-2.84 32.7-16.14 64.02-36.76 90.8 25.9-20.54 47.24-49.67 59.92-83.26 11.85-31.17 15.55-66.07 10.73-100.98-2.24-16.17 9.07-31.1 25.25-33.34 15.95-2.31 31.08 9.05 33.34 25.25 6.18 44.7 1.33 89.66-14.02 130.01-20.26 53.68-57.78 98.81-105.64 127.01-35.89 17.23-69.73 22.19-96.81 22.19z" fill="#363636"/></g><g><path d="m3361.3 2870.31c-13.76 0-27.45-.71-40.56-2.15-70.22-7.58-132.7-28.37-185.6-61.76-57.03-35-103.6-87.77-130.83-148.41-25.11-56.1-34.13-118.88-26.09-181.58 1.63-12.78 11.35-23.03 24.02-25.34 12.65-2.35 25.35 3.84 31.42 15.23 21.14 39.8 47.24 84.89 80.65 117.44 30.43 29.76 64.06 50.95 99.98 63.06 10.31 3.55 18.78 6.24 27.33 7.97 8.23 2.37 14.12 3.33 19.95 4.37 3.96.71 7.9 1.4 11.77 2.22 18.22 2.04 39.01 4.46 58.8 4.01 23.63-.25 36.9-1.59 50.69-5.14 13.96-3.22 27.56-8.94 41.13-17.17 25.34-14.41 46.76-37.78 61.03-66.25 13.82-28.37 19.17-61.72 14.97-93.6-8.33-75.71-68.58-141.34-153.56-167.87-12.37-3.85-20.78-15.32-20.76-28.27.01-11.9 7.15-22.51 17.89-27.11 2.6-1.4 11.06-6.4 38.22-23.52l3.71-2.34c25.76-15.97 58.18-52.86 72.58-99.27 12.62-41.06 7.75-84.46-13.35-119.04-21.6-35.85-56.9-59.73-99.52-67.37-51.82-9.69-107.81 7.07-157.85 47.15-9.14 7.33-21.73 8.58-32.11 3.15-10.4-5.39-16.62-16.4-15.88-28.1 2.97-47.23 25.55-93.86 63.6-131.31 36.43-35.95 85.92-60.18 139.34-68.19 51.28-8.49 108.21.03 159.91 23.88 26.45 13.11 49.58 28.69 69.47 46.65 21.28 19.62 39.14 41.26 53.3 64.54 13.74 22.41 24.78 48.28 32.72 76.82 7.07 28.33 10.08 56.1 9.17 83.32-1.98 52.16-19.92 100.41-54.85 147.65-12.34 16.73-23.14 31.21-31.45 42.29l22.9 18.02c1.34-1.7 2.71-3.42 4.1-5.14 20.85-25.17 44.57-45.71 70.7-61.3 31.21-18.62 68.25-30.15 104.28-32.44 32.54-1.62 63.99 2.38 99.39 12.62 31.56 10.11 60.06 23.97 85.53 41.42 31.29 20.88 59.01 49.42 79.87 82.32 8.75 13.79 4.66 32.07-9.12 40.82-13.79 8.73-32.04 4.66-40.82-9.14-16.47-26-38.29-48.48-63.06-65.03-21.04-14.41-44.37-25.73-69.65-33.84-28.47-8.22-53.07-11.32-78.77-10.14-26.06 1.67-54.39 10.5-77.36 24.2-20.31 12.13-38.91 28.27-55.25 48.01-7.33 9.05-13.77 17.92-19.94 26.71-4.66 6.66-11.87 11.09-19.9 12.27-8.1 1.26-16.21-.98-22.59-6.01l-69.63-54.78c-12.69-9.99-15.03-28.3-5.26-41.15.07-.09 20.18-26.52 48.45-64.85 27.65-37.38 41.81-74.87 43.31-114.64.74-21.6-1.7-43.89-7.23-66.12-6.27-22.45-15.09-43.26-26-61.06-11.35-18.65-25.7-36.01-42.71-51.69-15.65-14.13-34.28-26.65-55.14-36.99-40.32-18.62-85.08-25.4-125.2-18.81-41.54 6.24-79.39 24.65-107 51.89-7.61 7.48-14.39 15.51-20.27 23.88 43.3-17.8 88.32-23.14 131.64-15.06 59.41 10.66 109 44.37 139.42 94.87 29.84 48.87 36.9 109.84 19.3 167.15-16.23 52.37-53.17 102.96-94.73 130.07 77.46 41.81 130.01 113.41 138.85 193.77 5.63 42.61-1.67 87.9-20.66 126.89-19.9 39.7-48.93 71.08-84.11 91.06-18.23 11.07-37.68 19.17-57.07 23.63-20.6 5.3-39.88 6.55-64.06 6.81-23.89.35-46.19-2.15-69-4.85-5.88-1.13-9.2-1.7-12.53-2.3-8.16-1.44-16.34-2.97-24.11-5.33-9.7-1.85-21.27-5.6-31.91-9.27-44.24-14.9-85.41-40.74-122.22-76.72-10.34-10.06-19.97-20.95-28.98-32.33 3.7 13.72 8.45 27.11 14.24 40.06 22.08 49.16 61.49 93.77 108.14 122.39 45.52 28.76 99.5 46.58 160.75 53.19 29.27 3.21 61.78 2.15 89.25-2.9 28.92-5.75 57.97-16.99 85.95-33.34 27.62-16.98 51.15-37.16 69.36-59.67 20.23-25.37 35.47-52.22 45.22-79.68 10.18-27.91 15.33-58.53 14.99-88.84.26-15.78-1.88-31.69-3.9-45.42-1.3-5.62-3-13.17-5.01-20.6-4.23-15.78 5.11-31.99 20.88-36.24 15.81-4.22 31.99 5.13 36.24 20.88 2.24 8.36 4.17 16.81 6.03 25.34 2.73 18.05 5.23 36.82 4.89 56.23.42 36.51-5.98 74.38-18.48 108.66-11.84 33.41-30.3 66.04-54.76 96.7-22.57 27.91-51.15 52.54-85.08 73.36-34.22 20.01-69.42 33.58-105.19 40.7-20.71 3.87-43.55 5.8-66.22 5.8z" fill="#363636"/></g><g><path d="m3913.1 2112.32c-9.98 0-19.92-.71-29.76-2.17-43.01-6.02-83.22-25.86-112.97-55.82-28.38-28.27-47.01-65.04-52.31-103.45-1.95-14.18 6.53-27.72 20.13-32.15 13.59-4.42 28.41 1.5 35.2 14.09 11.23 20.88 28.82 37.48 49.49 46.75 18.54 8.42 38.94 10.55 57.61 6.14 16.42-3.83 30.74-12.68 40.5-24.98 8.36-10.5 13.02-23.19 12.82-34.9-.88-54.55 42.75-99.62 97.28-100.52.53 0 1.08-.01 1.63-.01 53.78 0 97.99 43.31 98.88 97.28.23 14.77-2.71 29.03-8.76 42.4l-5.96 12.96c-20.93 45.71-56.28 83.84-99.52 107.36-32.25 17.75-68.41 27.02-104.26 27.02zm-43.14-65.49c7.09 2.14 14.38 3.75 21.8 4.79 32.2 4.74 67.55-1.88 97.21-18.18 32.21-17.53 58.5-45.96 74.14-80.11 0 0 .01-.01.01-.03l5.91-12.85c2.35-5.21 3.54-10.93 3.44-16.89-.36-21.69-18.13-39.11-39.76-39.11-.23 0-.45 0-.66.01-10.61.17-20.53 4.46-27.91 12.1-7.39 7.62-11.36 17.69-11.19 28.31.4 25.22-8.95 51.7-25.67 72.66-17.96 22.67-43.99 38.94-73.23 45.74-7.89 1.89-15.96 3.07-24.09 3.56z" fill="#363636"/></g><g><path d="m3774.35 1916.43c-57.06 0-103.49-46.43-103.49-103.49s46.43-103.49 103.49-103.49 103.49 46.43 103.49 103.49-46.43 103.49-103.49 103.49zm0-147.84c-24.46 0-44.35 19.9-44.35 44.35 0 24.46 19.9 44.35 44.35 44.35 24.46 0 44.35-19.9 44.35-44.35.01-24.46-19.89-44.35-44.35-44.35z" fill="#363636"/></g></g><g><g><path d="m4324.65 4284.46c-10.5 0-20.65-5.59-26.02-15.45-95.66-176.08-216.52-337.11-359.22-478.59-11.59-11.49-11.68-30.22-.17-41.81 11.46-11.61 30.2-11.69 41.81-.17 146.8 145.55 271.14 311.19 369.56 492.34 7.8 14.35 2.48 32.31-11.87 40.11-4.49 2.41-9.33 3.57-14.09 3.57z" fill="#363636"/></g><g><path d="m3871.49 3716c-6.94 0-13.93-2.44-19.55-7.39-155.91-137.59-330.84-250.21-519.94-334.74-14.9-6.67-21.58-24.15-14.93-39.07 6.67-14.91 24.07-21.6 39.07-14.93 194.56 86.97 374.54 202.85 534.93 344.38 12.24 10.81 13.41 29.5 2.61 41.74-5.85 6.63-14 10.01-22.19 10.01z" fill="#363636"/></g><g><path d="m658.11 4303.34c-4.66 0-9.4-1.1-13.82-3.44-14.42-7.65-19.92-25.55-12.29-39.98 366.98-692.5 1081.38-1122.69 1864.44-1122.69 244.78 0 484.63 41.58 712.9 123.57 15.38 5.52 23.36 22.45 17.83 37.81-5.53 15.38-22.54 23.36-37.81 17.83-221.85-79.68-454.99-120.08-692.92-120.08-761.1 0-1455.49 418.14-1812.18 1091.24-5.31 10.04-15.56 15.74-26.15 15.74z" fill="#363636"/></g><g><path d="m1791.51 3694.4c-.29 0-.59 0-.88-.01-199.54-5.85-336.92-57.46-367.45-138.04-13.07-34.46-13.18-90.08 60.49-159.28 11.88-11.16 30.61-10.6 41.8 1.31 11.17 11.9 10.6 30.62-1.31 41.8-27.52 25.83-57.77 63.32-45.68 95.2 17.3 45.65 121.07 94.23 313.89 99.89 16.33.48 29.16 14.09 28.69 30.42-.47 16.04-13.63 28.71-29.55 28.71z" fill="#363636"/></g><g><path d="m1343.43 4371.15c-135.02 0-282.95-72.29-319.52-200.29-14.76-51.63-39.67-84.86-74.07-98.77-66.44-26.85-151.35 21.5-152.22 21.99-14.13 8.14-32.22 3.35-40.4-10.74-8.19-14.09-3.45-32.14 10.64-40.37 4.46-2.6 110.38-63.41 203.82-25.83 52.32 21.02 89.02 67.28 109.08 137.46 32.46 113.57 187.98 172.33 307.32 154.11 30.97-4.74 102.81-22.39 101.24-83.61-3.02-116.18 45.03-217.59 122.4-258.35 49.67-26.16 133.16-39.85 248.54 43.76 39.69 28.77 81.86 26.26 125.35-7.46 74.8-58.04 120.24-185.8 91.75-257.92-17.12-43.36-59.38-62.1-125.67-56.06-16.14 1.52-30.67-10.45-32.17-26.71-1.52-16.26 10.45-30.67 26.71-32.17 125.3-11.74 170.41 53.42 186.12 93.21 41.64 105.4-23.98 259.24-110.48 326.36-63.92 49.59-135.45 52.73-196.32 8.62-71.84-52.05-136.29-65.62-186.29-39.31-56.73 29.89-93.22 112.07-90.84 204.5 1.95 75.09-54.65 128.77-151.38 143.6-17.42 2.67-35.4 3.98-53.61 3.98z" fill="#363636"/></g><g><path d="m3848.23 4294.29c-55.92 0-113.34-6.01-172.88-17.95-16.01-3.21-26.39-18.78-23.19-34.79 3.21-16.01 18.8-26.42 34.79-23.19 202.1 40.53 378.18 7.49 554.16-103.84 13.79-8.76 32.07-4.63 40.8 9.18 8.72 13.8 4.62 32.07-9.18 40.8-137.82 87.2-275.78 129.79-424.5 129.79z" fill="#363636"/></g><g><path d="m2872.2 4411.06c-27.34 0-56-4.46-85.67-13.51-131.56-40.18-245.6-161.36-234.66-249.34 3.77-30.32 25.19-81.91 126.37-86.89 152.51-7.49 237.07-93.3 263.14-164.47 12.4-33.84 7.94-54.94 2.22-60.29-3.45-3.18-13.85-4.04-32.1 4.1-97.53 43.44-143.45.78-158.68-19.58-44.41-59.38-20.52-165.31 58.11-257.61 49.84-58.52 70.73-117.39 62.07-174.96-16.13-107.07-128.28-179.53-129.41-180.25-13.76-8.75-17.86-27.01-9.12-40.79 8.75-13.77 26.96-17.87 40.73-9.2 5.54 3.49 135.82 87.12 156.22 221.03 11.48 75.38-13.92 150.25-75.47 222.51-64.42 75.62-78.95 152.87-55.77 183.85 20.18 26.98 67.76 9.67 87.28.97 52.63-23.43 83.07-5.82 96.52 6.71 27.2 25.42 32.04 71.71 12.94 123.83-32.3 88.17-134.37 194.3-315.75 203.23-30.41 1.49-67.34 8.79-70.6 35.1-5.99 48.11 78.21 150.35 193.25 185.5 71.71 21.87 170.68 21.6 234.53-104.36 96.96-191.28 252.7-139.58 433.06-79.68l44.11 14.54c15.53 5.05 24.02 21.73 18.99 37.26-5.05 15.52-21.71 24.07-37.26 18.99-15.12-4.92-29.94-9.83-44.47-14.67-194.33-64.51-290.88-89.3-361.66 50.3-48.97 96.53-126.32 147.68-218.92 147.68z" fill="#363636"/></g><g><path d="m2430.62 3601.37c-44.22 0-92.99-13.89-132.03-31.46-28.59-12.86-121.81-59.97-121.35-126.03.16-21.7 10.6-52 59.48-73.18 112.38-48.74 244.62 1.34 292.97 76.71 28.7 44.73 23.52 93.18-13.48 126.43-22.02 19.76-52.54 27.53-85.59 27.53zm-98.07-191.23c-23.78 0-48.38 4.45-72.32 14.81-14.45 6.27-23.81 13.86-23.85 19.35-.09 13.17 27.33 45.06 86.48 71.68 64.25 28.9 130.42 34.88 153.82 13.86 6.19-5.56 22.61-20.31 3.23-50.52-22.97-35.8-82.13-69.18-147.36-69.18z" fill="#363636"/></g></g><g><path d="m2458.56 2507.8h-147.84c-16.33 0-29.57-13.24-29.57-29.57v-237.3l-76.75 33.93c-9.12 4.04-19.71 3.21-28.1-2.27-8.37-5.46-13.43-14.77-13.43-24.78v-149.36c0-11.71 6.9-22.31 17.61-27.04l100.66-44.5v-199.2h-206.98c-16.33 0-29.57-13.24-29.57-29.57v-147.84c0-16.33 13.24-29.57 29.57-29.57h206.98v-177.41c0-16.33 13.24-29.57 29.57-29.57h147.84c16.33 0 29.57 13.24 29.57 29.57v177.41h206.98c16.33 0 29.57 13.24 29.57 29.57v147.84c0 16.33-13.24 29.57-29.57 29.57h-206.98v98.38l76.75-33.93c9.15-4.01 19.71-3.19 28.1 2.27 8.37 5.46 13.43 14.77 13.43 24.78v149.37c0 11.71-6.9 22.31-17.61 27.04l-100.66 44.48v42.43c0 16.33-13.24 29.57-29.57 29.57s-29.57-13.24-29.57-29.57v-61.69c0-11.71 6.9-22.31 17.61-27.04l100.66-44.48v-84.72l-76.75 33.93c-9.14 4.06-19.69 3.21-28.1-2.27-8.37-5.46-13.43-14.77-13.43-24.78v-173.34c0-16.33 13.24-29.57 29.57-29.57h206.98v-88.71h-206.98c-16.33 0-29.57-13.24-29.57-29.57v-177.39h-88.71v177.41c0 16.33-13.24 29.57-29.57 29.57h-206.98v88.71h206.98c16.33 0 29.57 13.24 29.57 29.57v248.03c0 11.71-6.9 22.31-17.61 27.04l-100.66 44.5v84.71l76.75-33.93c9.17-4.01 19.72-3.19 28.1 2.27 8.37 5.46 13.43 14.77 13.43 24.78v253.12h88.71v-118.27c0-16.33 13.24-29.57 29.57-29.57s29.57 13.24 29.57 29.57v147.84c0 16.31-13.24 29.55-29.57 29.55z" fill="#363636"/></g><g><path d="m1275.82 3592.21c-16.33 0-29.57-13.24-29.57-29.57v-177.41c0-16.33 13.24-29.57 29.57-29.57s29.57 13.24 29.57 29.57v177.41c0 16.33-13.24 29.57-29.57 29.57zm0-354.82c-16.33 0-29.57-13.24-29.57-29.57v-177.41c0-16.33 13.24-29.57 29.57-29.57s29.57 13.24 29.57 29.57v177.41c0 16.33-13.24 29.57-29.57 29.57z" fill="#363636"/></g><g><path d="m3700.43 3572.26c-16.33 0-29.57-13.24-29.57-29.57v-177.41c0-16.33 13.24-29.57 29.57-29.57s29.57 13.24 29.57 29.57v177.41c0 16.33-13.24 29.57-29.57 29.57zm0-354.82c-16.33 0-29.57-13.24-29.57-29.57v-177.41c0-16.33 13.24-29.57 29.57-29.57s29.57 13.24 29.57 29.57v177.41c0 16.33-13.24 29.57-29.57 29.57z" fill="#363636"/></g><g><g><path d="m3614.96 1548.44c-10.5 0-20.65-5.59-26-15.45-21.74-39.99-45.88-79.29-71.8-116.84-9.27-13.44-5.89-31.85 7.55-41.13s31.84-5.92 41.13 7.55c27.09 39.26 52.34 80.37 75.06 122.19 7.81 14.35 2.5 32.3-11.85 40.09-4.49 2.44-9.32 3.59-14.09 3.59zm-183.66-258.36c-8.04 0-16.05-3.26-21.9-9.67-38.72-42.62-80.75-83.05-124.9-120.15-12.5-10.51-14.12-29.16-3.61-41.67 10.5-12.49 29.15-14.11 41.67-3.61 46.16 38.81 90.11 81.08 130.62 125.64 10.97 12.08 10.08 30.8-1.99 41.78-5.68 5.14-12.8 7.68-19.89 7.68zm-270.82-227.66c-5.41 0-10.89-1.49-15.79-4.59-48.77-30.9-100.01-58.73-152.27-82.73-14.84-6.8-21.35-24.36-14.54-39.2 6.8-14.84 24.41-21.34 39.2-14.54 54.68 25.09 108.27 54.2 159.26 86.51 13.8 8.73 17.89 27.01 9.15 40.8-5.64 8.89-15.22 13.75-25.01 13.75z" fill="#363636"/></g><g><path d="m1289.24 1560.41c-4.66 0-9.4-1.1-13.82-3.44-14.42-7.65-19.92-25.55-12.29-39.98 28.21-53.22 60.32-105.05 95.45-154.08 9.5-13.28 27.99-16.34 41.26-6.81 13.27 9.51 16.33 27.98 6.81 41.26-33.6 46.88-64.31 96.44-91.26 147.32-5.31 10.03-15.56 15.73-26.15 15.73zm206.05-287.57c-7.28 0-14.57-2.67-20.27-8.04-11.9-11.2-12.45-29.91-1.26-41.8 41.36-43.92 86.05-85.4 132.83-123.33 12.69-10.27 31.3-8.34 41.6 4.35 10.28 12.69 8.33 31.32-4.35 41.59-44.73 36.25-87.48 75.94-127.02 117.93-5.82 6.18-13.68 9.3-21.53 9.3z" fill="#363636"/></g><g><g><g><path d="m2092.91 1310.38c-61.68 0-123.14-17.93-176.7-53.46l-179.6-119.2c-3.98-2.63-7.26-6.19-9.56-10.38l-63.7-115.75c-5.57-10.12-4.74-22.57 2.15-31.86 6.89-9.27 18.49-13.7 29.86-11.32l322.29 68.07 199.6-109.84c14.31-7.88 32.28-2.66 40.15 11.65 7.88 14.29 2.66 32.28-11.65 40.15l-209.22 115.14c-6.19 3.41-13.41 4.48-20.36 3.03l-269.91-57.01 29.09 52.87 173.54 115.17c81.15 53.79 184.53 58.13 269.8 11.16l873.35-485.73c50-30.51 60.12-43.79 62.13-47.57-.4-.12-1.14-1.67-2.66-4.43-19.61-35.63-72.28-56.93-144.49-58.43-67.41-1.26-141.43 14.7-189.26 41.02l-335.4 184.57c-14.26 7.93-32.25 2.69-40.15-11.65-7.88-14.31-2.66-32.28 11.65-40.15l335.4-184.57c56.26-30.97 142.31-49.71 218.99-48.35 95.29 1.99 164.56 33.61 195.07 89.05 28.54 51.86-5.05 85.01-81.52 131.61l-874.48 486.38c-48.38 26.62-101.47 39.83-154.41 39.83z" fill="#363636"/></g><g><path d="m2468.13 851.89c-2.02 0-4.09-.2-6.14-.64l-256.72-54.23c-15.98-3.38-26.2-19.07-22.83-35.04 3.38-15.98 19.07-26.2 35.04-22.83l256.72 54.23c15.98 3.38 26.2 19.07 22.83 35.04-2.94 13.93-15.23 23.47-28.9 23.47z" fill="#363636"/></g><g><path d="m2375.76 1077.7c-5.6 0-11.28-1.59-16.3-4.92l-365.82-242.35c-3.98-2.64-7.28-6.21-9.57-10.4l-49.95-90.77c-5.57-10.12-4.74-22.57 2.15-31.86 6.89-9.28 18.49-13.7 29.86-11.32l139.41 29.44c15.98 3.38 26.19 19.06 22.83 35.04-3.38 15.97-19.09 26.15-35.04 22.83l-76.3-16.11 15.35 27.88 359.76 238.34c13.61 9.01 17.34 27.36 8.32 40.97-5.72 8.58-15.11 13.23-24.7 13.23z" fill="#363636"/></g></g><g><path d="m2860.13 771.69c-10.44 0-20.54-5.53-25.93-15.32l-56.25-102.2c-7.88-14.29-2.66-32.28 11.65-40.15 14.31-7.88 32.28-2.64 40.15 11.65l56.25 102.2c7.88 14.29 2.66 32.28-11.65 40.15-4.52 2.5-9.4 3.67-14.22 3.67z" fill="#363636"/></g><g><path d="m2757.91 827.94c-10.44 0-20.54-5.53-25.93-15.32l-56.25-102.2c-7.88-14.29-2.66-32.28 11.65-40.15 14.32-7.88 32.3-2.66 40.15 11.65l56.25 102.2c7.88 14.29 2.66 32.28-11.65 40.15-4.52 2.5-9.4 3.67-14.22 3.67z" fill="#363636"/></g></g></g><g><g><g><path d="m1263.61 2810.02c-297.49 0-539.51-242.02-539.51-539.51 0-16.33 13.24-29.57 29.57-29.57s29.57 13.24 29.57 29.57c0 264.87 215.5 480.37 480.37 480.37s480.37-215.5 480.37-480.37-215.5-480.37-480.37-480.37c-198.33 0-373.69 119.11-446.75 303.45-6.02 15.16-23.19 22.59-38.39 16.59-15.17-6.02-22.61-23.2-16.59-38.39 82.06-207.02 278.99-340.79 501.72-340.79 297.49 0 539.51 242.02 539.51 539.51s-242.01 539.51-539.5 539.51z" fill="#363636"/></g><g><path d="m1263.57 2810.02c-6.54 0-13.11-2.17-18.58-6.6-5.73-4.65-140.22-115.53-143.96-275.28-2.32-98.97 45.77-193.06 142.9-279.7 90.86-81.02 134.8-163.97 130.6-246.54-6.51-127.82-127.01-216.46-128.22-217.35-13.21-9.56-16.2-28.02-6.67-41.26 9.56-13.22 27.95-16.26 41.22-6.73 5.89 4.23 144.46 105.48 152.71 261.83 5.34 101.51-45.22 200.5-150.28 294.2-83.46 74.43-124.9 153.08-123.15 233.76 2.87 132.23 120.94 230.19 122.14 231.18 12.63 10.31 14.54 28.93 4.24 41.58-5.85 7.17-14.36 10.91-22.95 10.91z" fill="#363636"/></g></g><g><path d="m1142.76 2152.98c-57.06 0-103.49-46.43-103.49-103.49s46.44-103.49 103.49-103.49 103.49 46.43 103.49 103.49-46.43 103.49-103.49 103.49zm0-147.85c-24.46 0-44.35 19.9-44.35 44.35s19.9 44.35 44.35 44.35c24.46 0 44.35-19.9 44.35-44.35s-19.89-44.35-44.35-44.35z" fill="#363636"/></g><g><path d="m1408.88 2566.93c-57.06 0-103.49-46.43-103.49-103.49s46.43-103.49 103.49-103.49 103.49 46.43 103.49 103.49-46.43 103.49-103.49 103.49zm0-147.84c-24.46 0-44.35 19.9-44.35 44.35 0 24.46 19.9 44.35 44.35 44.35 24.46 0 44.35-19.9 44.35-44.35s-19.89-44.35-44.35-44.35z" fill="#363636"/></g></g><g><path d="m2399.42 3187.87c-16.33 0-29.57-13.24-29.57-29.57v-147.84c0-16.33 13.24-29.57 29.57-29.57s29.57 13.24 29.57 29.57v147.84c0 16.33-13.24 29.57-29.57 29.57zm0-325.25c-16.33 0-29.57-13.24-29.57-29.57v-177.41c0-16.33 13.24-29.57 29.57-29.57s29.57 13.24 29.57 29.57v177.41c0 16.33-13.24 29.57-29.57 29.57z" fill="#363636"/></g></g></g></svg>