<svg id="Layer_1" height="512" viewBox="0 0 256 256" width="512" xmlns="http://www.w3.org/2000/svg"><g><g><path d="m15 60.361v151.97h99c0-60.631 0-92.953 0-151.97-27.354-27.148-71.646-27.148-99 0z" fill="#e6e7e8"/><path d="m109 55.846v151.485c-31.333 0-62.667 0-94 0v5h99c0-60.631 0-92.953 0-151.97-1.611-1.599-3.279-3.105-5-4.515z" fill="#d1d3d4"/><g><path d="m98 201.583h-67c-2.761 0-5-2.239-5-5v-125.151c0-1.414.605-2.757 1.645-3.715 20.804-19.158 52.906-19.158 73.71 0 1.04.958 1.645 2.301 1.645 3.715v125.152c0 2.76-2.239 4.999-5 4.999z" fill="#478cf7"/></g><g><path d="m26 105.841c-1.104 0-2-.896-2-2v-14.343c0-1.104.896-2 2-2s2 .896 2 2v14.343c0 1.104-.896 2-2 2z" fill="#414042"/></g><g><path d="m26 176.841c-1.104 0-2-.896-2-2v-14.343c0-1.104.896-2 2-2s2 .896 2 2v14.343c0 1.104-.896 2-2 2z" fill="#414042"/></g><g><path d="m101.355 67.717c-1.205-1.109-2.451-2.147-3.727-3.128.232.582.372 1.202.372 1.842v125.152c0 2.761-2.239 5-5 5h-67c0 2.761 2.239 5 5 5h67c2.761 0 5-2.239 5-5v-125.152c0-1.413-.605-2.756-1.645-3.714z" fill="#377de2"/></g><g><g><path d="m119.5 62.744c-1.919 0-3.839-.732-5.304-2.196-27.402-27.404-71.99-27.404-99.393 0-2.93 2.928-7.678 2.928-10.607 0-2.929-2.93-2.929-7.678 0-10.607 33.252-33.25 87.355-33.25 120.607 0 2.929 2.93 2.929 7.678 0 10.607-1.464 1.463-3.384 2.196-5.303 2.196z" fill="#939598"/></g></g><g><path d="m124.804 49.94c-1.287-1.287-2.615-2.506-3.962-3.694 1.83 2.899 1.488 6.775-1.038 9.301-1.465 1.464-3.385 2.196-5.304 2.196s-3.839-.732-5.304-2.196c-27.402-27.404-71.99-27.404-99.393 0-2.025 2.024-4.919 2.647-7.481 1.873.346 1.144.969 2.223 1.873 3.127 2.93 2.928 7.678 2.928 10.607 0 27.402-27.404 71.99-27.404 99.393 0 1.465 1.464 3.385 2.196 5.304 2.196s3.839-.732 5.304-2.196c2.929-2.929 2.929-7.677.001-10.607z" fill="#808285"/></g><g><path d="m119 212.331h-109c-2.761 0-5 2.239-5 5v8.667c0 2.761 2.239 5 5 5h109c2.761 0 5-2.239 5-5v-8.667c0-2.762-2.239-5-5-5z" fill="#58595b"/></g><g><path d="m119 212.331v8.667c0 2.761-2.239 5-5 5h-109c0 2.761 2.239 5 5 5h109c2.761 0 5-2.239 5-5v-8.667c0-2.762-2.239-5-5-5z" fill="#414042"/></g><g><path d="m85.833 182.293h-42.666c-1.105 0-2-.896-2-2s.895-2 2-2h42.666c1.104 0 2 .896 2 2s-.896 2-2 2z" fill="#2266d3"/></g><g><path d="m85.833 172.293h-42.666c-1.105 0-2-.896-2-2s.895-2 2-2h42.666c1.104 0 2 .896 2 2s-.896 2-2 2z" fill="#2266d3"/></g><g><path d="m85.833 162.293h-42.666c-1.105 0-2-.896-2-2s.895-2 2-2h42.666c1.104 0 2 .896 2 2s-.896 2-2 2z" fill="#2266d3"/></g><g><path d="m88.833 128.498h-2.833c-1.105 0-2-.895-2-2v-13.863c0-1.105.895-2 2-2h2.833c1.105 0 2 .895 2 2v13.863c0 1.104-.895 2-2 2z" fill="#414042"/></g><path d="m80.433 62.389h-7.334c-1.104 0-2 .896-2 2s.896 2 2 2h2.505l-4.839 4.839c-1.796-1.196-3.949-1.897-6.264-1.897-6.249 0-11.333 5.084-11.333 11.333 0 6.25 5.084 11.334 11.333 11.334s11.333-5.084 11.333-11.334c0-2.491-.818-4.79-2.186-6.663l4.785-4.785v2.506c0 1.104.896 2 2 2s2-.896 2-2v-7.333c0-1.105-.896-2-2-2zm-15.933 25.609c-4.043 0-7.333-3.29-7.333-7.334 0-4.043 3.29-7.333 7.333-7.333 1.842 0 3.523.688 4.812 1.813.052.068.101.138.164.2.099.099.205.185.318.258 1.26 1.318 2.04 3.099 2.04 5.061-.001 4.045-3.291 7.335-7.334 7.335z" fill="#fff"/></g><g><path d="m142 60.361v151.97h99c0-60.631 0-92.953 0-151.97-27.354-27.148-71.646-27.148-99 0z" fill="#e6e7e8"/><path d="m236 55.846v151.485c-31.333 0-62.667 0-94 0v5h99c0-60.631 0-92.953 0-151.97-1.611-1.599-3.279-3.105-5-4.515z" fill="#d1d3d4"/><g><path d="m225 201.583h-67c-2.761 0-5-2.239-5-5v-125.151c0-1.414.605-2.757 1.645-3.715 20.804-19.158 52.906-19.158 73.71 0 1.04.958 1.645 2.301 1.645 3.715v125.152c0 2.76-2.239 4.999-5 4.999z" fill="#e63950"/></g><g><path d="m159 154.664c-1.104 0-2-.896-2-2v-34c0-1.104.896-2 2-2s2 .896 2 2v34c0 1.105-.896 2-2 2zm0-42.015c-1.104 0-2-.881-2-1.985v-.029c0-1.104.896-2 2-2s2 .896 2 2-.896 2.014-2 2.014z" fill="#e8566f"/></g><g><path d="m153 105.841c-1.104 0-2-.896-2-2v-14.343c0-1.104.896-2 2-2s2 .896 2 2v14.343c0 1.104-.896 2-2 2z" fill="#414042"/></g><g><path d="m153 176.841c-1.104 0-2-.896-2-2v-14.343c0-1.104.896-2 2-2s2 .896 2 2v14.343c0 1.104-.896 2-2 2z" fill="#414042"/></g><g><path d="m228.355 67.717c-2.622-2.414-5.424-4.523-8.359-6.329 0 .015.005.029.005.043v125.152c0 2.761-2.239 5-5 5h-62v5c0 2.761 2.239 5 5 5h67c2.761 0 5-2.239 5-5v-125.152c-.001-1.413-.606-2.756-1.646-3.714z" fill="#d10028"/></g><g><path d="m228.355 67.717c-1.205-1.109-2.451-2.147-3.727-3.128.232.582.372 1.202.372 1.843v125.152c0 2.761-2.239 5-5 5h-67c0 2.761 2.239 5 5 5h67c2.761 0 5-2.239 5-5v-125.153c0-1.413-.605-2.756-1.645-3.714z" fill="#b7022d"/></g><g><g><path d="m246.5 62.744c-1.919 0-3.839-.732-5.304-2.196-27.402-27.404-71.99-27.404-99.393 0-2.93 2.928-7.678 2.928-10.607 0-2.929-2.93-2.929-7.678 0-10.607 33.252-33.25 87.355-33.25 120.607 0 2.929 2.93 2.929 7.678 0 10.607-1.464 1.463-3.384 2.196-5.303 2.196z" fill="#939598"/></g></g><g><path d="m251.804 49.94c-1.287-1.287-2.615-2.506-3.962-3.694 1.83 2.899 1.488 6.775-1.038 9.301-1.465 1.464-3.385 2.196-5.304 2.196s-3.839-.732-5.304-2.196c-27.402-27.404-71.99-27.404-99.393 0-2.025 2.024-4.919 2.647-7.481 1.873.346 1.144.969 2.223 1.873 3.127 2.93 2.928 7.678 2.928 10.607 0 27.402-27.404 71.99-27.404 99.393 0 1.465 1.464 3.385 2.196 5.304 2.196s3.839-.732 5.304-2.196c2.929-2.929 2.929-7.677.001-10.607z" fill="#808285"/></g><g><path d="m246 212.331h-109c-2.761 0-5 2.239-5 5v8.667c0 2.761 2.239 5 5 5h109c2.761 0 5-2.239 5-5v-8.667c0-2.762-2.239-5-5-5z" fill="#58595b"/></g><g><path d="m246 212.331v8.667c0 2.761-2.239 5-5 5h-109c0 2.761 2.239 5 5 5h109c2.761 0 5-2.239 5-5v-8.667c0-2.762-2.239-5-5-5z" fill="#414042"/></g><g><path d="m212.833 182.293h-42.666c-1.104 0-2-.896-2-2s.896-2 2-2h42.666c1.104 0 2 .896 2 2s-.895 2-2 2z" fill="#b7022d"/></g><g><path d="m212.833 172.293h-42.666c-1.104 0-2-.896-2-2s.896-2 2-2h42.666c1.104 0 2 .896 2 2s-.895 2-2 2z" fill="#b7022d"/></g><g><path d="m212.833 162.293h-42.666c-1.104 0-2-.896-2-2s.896-2 2-2h42.666c1.104 0 2 .896 2 2s-.895 2-2 2z" fill="#b7022d"/></g><g><path d="m215.833 128.498h-2.833c-1.105 0-2-.895-2-2v-13.863c0-1.105.895-2 2-2h2.833c1.105 0 2 .895 2 2v13.863c0 1.104-.895 2-2 2z" fill="#414042"/></g><path d="m202.833 80.664c0-6.249-5.084-11.333-11.333-11.333s-11.333 5.084-11.333 11.333c0 5.566 4.036 10.198 9.333 11.146v4.053h-3.451c-1.104 0-2 .896-2 2s.896 2 2 2h3.451v3.451c0 1.104.896 2 2 2s2-.896 2-2v-3.451h3.451c1.104 0 2-.896 2-2s-.896-2-2-2h-3.451v-4.053c5.297-.948 9.333-5.58 9.333-11.146zm-18.666 0c0-4.043 3.29-7.333 7.333-7.333s7.333 3.29 7.333 7.333c0 4.044-3.29 7.334-7.333 7.334s-7.333-3.29-7.333-7.334z" fill="#fff"/></g></g></svg>