<svg width="512" height="512" viewBox="0 0 512 512" fill="none" xmlns="http://www.w3.org/2000/svg">
<g clip-path="url(#clip0_70_64)">
<path d="M138.71 137H132.29L120.293 197H150.707L138.71 137Z" fill="black"/>
<path d="M467 91H280.717L319.559 402.679C320.246 415.427 316.761 427.429 308.441 436.825L242.663 512H467C491.814 512 512 491.814 512 467V137C512 112.186 491.814 91 467 91ZM467 257H462.994C454.459 284.383 440.924 305.81 426.858 322.702C437.877 332.776 449.66 341.04 461.375 350.296C467.835 355.467 468.89 364.9 463.704 371.375C458.542 377.84 449.072 378.888 442.625 373.704C429.896 363.657 417.948 355.247 406 344.283C394.052 355.247 383.104 363.657 370.375 373.704C363.928 378.888 354.458 377.84 349.296 371.375C344.11 364.9 345.165 355.467 351.625 350.296C363.34 341.04 374.123 332.776 385.142 322.702C371.076 305.811 358.54 284.384 350.006 257H346C337.709 257 331 250.291 331 242C331 233.709 337.709 227 346 227H391V212C391 203.709 397.709 197 406 197C414.291 197 421 203.709 421 212V227H467C475.291 227 482 233.709 482 242C482 250.291 475.291 257 467 257Z" fill="black"/>
<path d="M244.164 39.419C241.366 16.948 222.162 0 199.516 0H45C20.186 0 0 20.186 0 45V377C0 401.814 20.186 422 45 422C134.67 422 199.177 422 281.551 422C285.927 416.998 289.595 413.866 289.75 407.337C289.788 405.7 244.367 41.043 244.164 39.419ZM183.944 286.707C175.99 288.344 167.933 283.18 166.293 274.944L156.706 227H114.295L104.708 274.944C103.097 283.059 95.274 288.391 87.057 286.707C78.942 285.081 73.668 277.186 75.294 269.056L105.293 119.056C106.699 112.054 112.852 107 120 107H151C158.148 107 164.301 112.054 165.707 119.056L195.707 269.056C197.333 277.186 192.06 285.081 183.944 286.707Z" fill="black"/>
<path d="M175.261 452L177.835 472.581C179.551 486.364 188.709 500.419 203.773 507.437C232.201 476.143 215.002 495.075 254.132 452H175.261Z" fill="black"/>
<rect x="324" y="181" width="173" height="201" fill="black"/>
<path d="M489.1 208.684V233.169H470.596V347H441.437V297.842H423.12V299.524C423.12 310.614 419.568 319.461 412.466 326.066C405.363 332.67 395.955 335.972 384.242 335.972C375.519 335.972 367.855 334.352 361.251 331.112C354.647 327.748 349.476 323.075 345.737 317.094C342.124 311.112 340.317 304.259 340.317 296.533H367.793C367.793 300.521 369.102 303.885 371.718 306.627C374.46 309.368 378.011 310.739 382.372 310.739C386.734 310.739 390.161 309.43 392.653 306.813C395.27 304.197 396.578 300.77 396.578 296.533C396.578 292.421 395.083 288.932 392.092 286.066C389.226 283.2 384.927 281.767 379.195 281.767H370.784V258.029H379.195C384.055 258.029 387.918 256.845 390.784 254.478C393.65 251.985 395.083 248.808 395.083 244.945C395.083 240.957 393.837 237.78 391.344 235.412C388.977 233.045 385.924 231.861 382.186 231.861C378.198 231.861 374.896 233.045 372.279 235.412C369.787 237.78 368.541 240.833 368.541 244.571H341.438C341.438 237.219 343.12 230.677 346.485 224.945C349.849 219.213 354.585 214.789 360.69 211.674C366.921 208.559 374.086 207.001 382.186 207.001C394.023 207.001 403.494 210.117 410.596 216.347C417.699 222.453 421.251 230.677 421.251 241.02C421.251 247.749 419.506 253.543 416.017 258.403C412.653 263.262 407.793 266.752 401.438 268.87V269.618C405.176 270.614 408.291 271.985 410.783 273.73H441.437V208.684H489.1Z" fill="white"/>
</g>
<defs>
<clipPath id="clip0_70_64">
<rect width="512" height="512" fill="white"/>
</clipPath>
</defs>
</svg>
