<svg id="Capa_1" enable-background="new 0 0 512 512" height="512" viewBox="0 0 512 512" width="512" xmlns="http://www.w3.org/2000/svg"><g><g><g><g><path d="m78.023 25.929v237.223c0 1.75.745 3.417 2.048 4.585l17.088 15.307c2.887 2.585 2.694 7.164-.4 9.497l-16.289 12.286c-1.542 1.163-2.448 2.983-2.448 4.913v83.137 93.194h355.954v-69.455c0-1.762-.755-3.439-2.073-4.606l-15.096-13.372c-2.76-2.444-2.766-6.751-.012-9.203l15.12-13.466c1.312-1.168 2.061-2.84 2.061-4.596v-298.847-46.597z" fill="#fdf6ec"/></g><g><path d="m433.977 25.926v345.451c0 1.757-.749 3.424-2.066 4.592l-15.112 13.465c-2.755 2.455-2.755 6.758.01 9.203l15.092 13.375c1.318 1.168 2.076 2.845 2.076 4.601v69.462h-21.939v-69.462c0-1.757-.749-3.434-2.066-4.601l-15.102-13.375c-2.755-2.445-2.765-6.748-.01-9.203l15.122-13.465c1.308-1.168 2.056-2.835 2.056-4.592v-345.451z" fill="#fef1da"/></g><g><path d="m433.977 493.559h-355.954c-4.134 0-7.486-3.352-7.486-7.486v-108.114c0-4.135 3.352-7.486 7.486-7.486s7.486 3.352 7.486 7.486v100.627h340.98v-61.369l-14.646-12.975c-2.915-2.582-4.591-6.297-4.596-10.192s1.66-7.615 4.569-10.205l14.673-13.067v-337.362h-340.979v229.142l16.645 14.909c3.05 2.732 4.7 6.645 4.528 10.735s-2.146 7.85-5.414 10.315l-15.759 11.887v32.856c0 4.135-3.352 7.486-7.486 7.486s-7.486-3.352-7.486-7.486v-33.52c0-4.256 2.029-8.327 5.427-10.89l14.997-11.312-15.883-14.227c-2.885-2.583-4.54-6.286-4.54-10.16v-237.222c0-4.134 3.352-7.486 7.486-7.486h355.953c4.135 0 7.486 3.352 7.486 7.486v345.445c0 3.889-1.665 7.601-4.568 10.187l-14.001 12.469 13.974 12.378c2.92 2.585 4.596 6.307 4.596 10.21v69.455c-.002 4.134-3.354 7.486-7.488 7.486z"/></g><g><g><path d="m443.978 58.725h-375.956c-9.711 0-17.583-7.872-17.583-17.583v-16.072c0-9.711 7.872-17.583 17.583-17.583h375.957c9.711 0 17.583 7.872 17.583 17.583v16.073c-.001 9.711-7.874 17.582-17.584 17.582z" fill="#fae2c0"/></g><g><path d="m443.978 504.514h-375.956c-9.711 0-17.583-7.872-17.583-17.583v-16.073c0-9.711 7.872-17.583 17.583-17.583h375.957c9.711 0 17.583 7.872 17.583 17.583v16.073c-.001 9.71-7.874 17.583-17.584 17.583z" fill="#fae2c0"/></g></g><g><g><path d="m461.566 25.068v16.08c0 9.702-7.875 17.577-17.587 17.577h-19.963c9.712 0 17.587-7.875 17.587-17.577v-16.08c0-9.712-7.875-17.577-17.587-17.577h19.963c9.711-.001 17.587 7.864 17.587 17.577z" fill="#fdd79b"/></g><g><path d="m461.566 470.853v16.08c0 9.712-7.875 17.577-17.587 17.577h-19.963c9.712 0 17.587-7.865 17.587-17.577v-16.08c0-9.702-7.875-17.577-17.587-17.577h19.963c9.711 0 17.587 7.875 17.587 17.577z" fill="#fdd79b"/></g></g><g><g><path d="m443.979 66.213h-375.957c-13.823 0-25.07-11.247-25.07-25.07v-16.073c0-13.823 11.247-25.07 25.07-25.07h294.195c4.135 0 7.486 3.352 7.486 7.486s-3.352 7.486-7.486 7.486h-294.195c-5.568 0-10.097 4.529-10.097 10.097v16.073c0 5.568 4.529 10.097 10.097 10.097h375.957c5.567 0 10.097-4.529 10.097-10.097v-16.072c0-5.568-4.529-10.097-10.097-10.097h-46.751c-4.135 0-7.486-3.352-7.486-7.486s3.351-7.487 7.486-7.487h46.751c13.823 0 25.069 11.247 25.069 25.07v16.073c0 13.823-11.246 25.07-25.069 25.07z"/></g><g><path d="m443.979 512h-375.957c-13.823 0-25.07-11.246-25.07-25.069v-16.073c0-13.823 11.247-25.07 25.07-25.07h375.957c13.823 0 25.069 11.247 25.069 25.07v16.073c-.002 13.823-11.248 25.069-25.069 25.069zm-375.957-51.24c-5.568 0-10.097 4.529-10.097 10.098v16.073c0 5.567 4.529 10.097 10.097 10.097h375.957c5.566 0 10.097-4.529 10.097-10.098v-16.072c0-5.568-4.529-10.098-10.097-10.098z"/></g></g></g><g><g><g><g><path d="m332.03 173.459c-3.025 0-5.874-1.847-7.005-4.845l-13.044-34.563-13.172 34.584c-1.473 3.865-5.8 5.802-9.66 4.332-3.864-1.472-5.804-5.797-4.332-9.661l19.127-50.219c.022-.059.046-.117.069-.175 1.336-3.258 4.475-5.364 7.996-5.364h.001c3.521 0 6.657 2.105 7.992 5.363.026.065.053.13.077.196l18.953 50.222c1.46 3.868-.492 8.187-4.36 9.647-.869.328-1.763.483-2.642.483z"/></g><g><path d="m326.161 160.95h-28.383c-4.135 0-7.486-3.352-7.486-7.486s3.352-7.486 7.486-7.486h28.383c4.135 0 7.486 3.352 7.486 7.486s-3.351 7.486-7.486 7.486z"/></g></g><g><g><path d="m207.414 173.225h-21.267c-4.134 0-7.486-3.352-7.486-7.486v-50.473c0-4.134 3.352-7.486 7.486-7.486h21.267c4.134 0 7.486 3.352 7.486 7.486s-3.352 7.486-7.486 7.486h-13.78v35.5h13.78c4.134 0 7.486 3.352 7.486 7.486s-3.352 7.487-7.486 7.487z"/></g><g><path d="m205.846 147.988h-19.698c-4.134 0-7.486-3.352-7.486-7.486s3.352-7.486 7.486-7.486h19.698c4.134 0 7.486 3.352 7.486 7.486s-3.352 7.486-7.486 7.486z"/></g></g><g><g><path d="m235.568 172.654c-4.134 0-7.486-3.352-7.486-7.486v-48.576c0-4.134 3.352-7.486 7.486-7.486s7.486 3.352 7.486 7.486v48.576c0 4.134-3.352 7.486-7.486 7.486z"/></g><g><path d="m235.667 173.458c-1.976 0-3.872-.781-5.274-2.173-1.41-1.399-2.205-3.301-2.212-5.287 0 0-.063-17.923-.063-24.796 0-5.635-.036-24.645-.036-24.646-.003-1.988.784-3.896 2.188-5.303s3.311-2.198 5.298-2.198h14c8.541 0 15.966 3.641 20.91 10.253 4.277 5.722 6.538 13.311 6.538 21.947 0 18.323-11.316 31.819-26.908 32.091-3.997.07-13.989.108-14.412.11-.009.002-.019.002-.029.002zm7.4-49.43c.01 5.977.023 13.871.023 17.174 0 3.937.021 11.508.039 17.243 2.548-.017 5.146-.04 6.717-.067 8.425-.147 12.197-8.706 12.197-17.122 0-5.303-1.264-9.914-3.558-12.983-2.136-2.857-5.053-4.246-8.917-4.245z"/></g></g><g><g><path d="m374.902 173.457c-9.042 0-17.533-3.649-23.298-10.011-2.776-3.064-2.542-7.798.521-10.574s7.798-2.542 10.574.521c2.889 3.188 7.45 5.091 12.202 5.091 4.278 0 7.378-2.527 7.796-4.869.542-3.037-4.428-5.122-5.964-5.688-7.935-2.927-14.981-6.063-15.277-6.196-.36-.161-.708-.35-1.038-.565-5.74-3.742-8.697-10.302-7.719-17.122 1.039-7.24 6.314-13.132 13.769-15.378 14.487-4.364 26.396 5.453 26.895 5.873 3.164 2.66 3.573 7.382.913 10.547-2.647 3.15-7.338 3.57-10.502.952-.218-.172-6.415-5.017-12.987-3.036-2.652.799-3.168 2.482-3.267 3.169-.076.533-.064 1.474.739 2.196 1.935.845 7.593 3.276 13.656 5.513 13.499 4.979 16.869 14.819 15.521 22.367-1.779 9.972-11.256 17.21-22.534 17.21z"/></g></g><g><g><path d="m140.274 173.457c-3.646 0-6.911-2.3-8.136-5.739l-17.436-50.229c-1.356-3.906.711-8.171 4.617-9.527 3.903-1.356 8.171.711 9.527 4.617l11.295 32.541 10.747-32.352c1.304-3.924 5.539-6.048 9.464-4.745 3.924 1.304 6.048 5.541 4.745 9.464l-16.631 50.063c-1.202 3.528-4.463 5.88-8.133 5.906-.019 0-.039.001-.059.001z"/></g></g></g><g><g><path d="m373.758 216.731h-235.512c-4.134 0-7.486-3.352-7.486-7.486s3.352-7.486 7.486-7.486h235.512c4.135 0 7.486 3.352 7.486 7.486s-3.351 7.486-7.486 7.486z"/></g><g><path d="m373.758 254.276h-235.512c-4.134 0-7.486-3.352-7.486-7.486s3.352-7.486 7.486-7.486h235.512c4.135 0 7.486 3.352 7.486 7.486s-3.351 7.486-7.486 7.486z"/></g><g><path d="m373.758 291.819h-235.512c-4.134 0-7.486-3.352-7.486-7.486s3.352-7.486 7.486-7.486h235.512c4.135 0 7.486 3.352 7.486 7.486s-3.351 7.486-7.486 7.486z"/></g><g><path d="m373.758 329.364h-235.512c-4.134 0-7.486-3.352-7.486-7.486s3.352-7.486 7.486-7.486h235.512c4.135 0 7.486 3.352 7.486 7.486s-3.351 7.486-7.486 7.486z"/></g><g><path d="m373.758 366.908h-235.512c-4.134 0-7.486-3.352-7.486-7.486s3.352-7.486 7.486-7.486h235.512c4.135 0 7.486 3.352 7.486 7.486s-3.351 7.486-7.486 7.486z"/></g><g><path d="m373.758 404.453h-235.512c-4.134 0-7.486-3.352-7.486-7.486s3.352-7.486 7.486-7.486h235.512c4.135 0 7.486 3.352 7.486 7.486s-3.351 7.486-7.486 7.486z"/></g></g></g></g></g></svg>