<svg id="Layer_1" height="512" viewBox="0 0 50 50" width="512" xmlns="http://www.w3.org/2000/svg"><g><g><path d="m3.8 48.3 2.8-32.8c0-.5.5-.9 1-.9h6.1c.5 0 1 .4 1 .9l3 32.8" fill="#f3877e"/><path d="m32.3 33.8 1.6-18.4c0-.5.5-.9 1-.9h6.1c.5 0 1 .4 1 .9l1.6 18.4" fill="#2aabf5"/></g><path d="m9.8 48.3v-25.8l13.5 5.1v21" fill="#34cba0"/><path d="m21.1 48.3v-12.5c0-1.1.9-2 2-2h21.1c1.1 0 2 .9 2 2v12.5" fill="#fff"/><g fill="#fff"><path d="m39.7 7.9h4.4c1 0 1.9-.8 1.9-1.9 0-1-.8-1.9-1.9-1.9h-4.4c-1 0-1.9.8-1.9 1.9 0 1.1.9 1.9 1.9 1.9z"/><path d="m35.7 11.7h4.4c1 0 1.9-.8 1.9-1.9 0-1-.8-1.9-1.9-1.9h-4.4c-1 0-1.9.8-1.9 1.9 0 1 .9 1.9 1.9 1.9z"/><path d="m11.4 7.9h4.4c1 0 1.9-.8 1.9-1.9 0-1-.8-1.9-1.9-1.9h-4.4c-1 0-1.9.8-1.9 1.9.1 1.1.9 1.9 1.9 1.9z"/><path d="m8.4 11.7h4.4c1 0 1.9-.8 1.9-1.9 0-1-.8-1.9-1.9-1.9h-4.4c-1 0-1.9.8-1.9 1.9.1 1 .9 1.9 1.9 1.9z"/></g><g fill="none" stroke="#151f81" stroke-linecap="round" stroke-linejoin="round" stroke-width="1.5"><path d="m1.8 48.3h46.5" stroke-miterlimit="10"/><path d="m42.3 19.3h-8.8" stroke-miterlimit="10"/><path d="m15 19.3h-8.8" stroke-miterlimit="10"/><path d="m42.7 24.1h-9.6" stroke-miterlimit="10"/><path d="m9.8 24.1h-4" stroke-miterlimit="10"/><path d="m43.1 29h-10.4" stroke-miterlimit="10"/><path d="m9.8 29h-4.4" stroke-miterlimit="10"/><path d="m9.8 33.8h-4.8" stroke-miterlimit="10"/><path d="m9.8 38.6h-5.2" stroke-miterlimit="10"/><path d="m9.8 43.4h-5.6" stroke-miterlimit="10"/><path d="m3.8 48.3 2.8-32.8c0-.5.5-.9 1-.9h6.1c.5 0 1 .4 1 .9l.8 9.2" stroke-miterlimit="10"/><path d="m32.3 33.8 1.6-18.4c0-.5.5-.9 1-.9h6.1c.5 0 1 .4 1 .9l1.6 18.4" stroke-miterlimit="10"/><path d="m9.8 48.3v-25.8l13.5 5.1v6.2" stroke-miterlimit="10"/><path d="m18.8 25.9v22.4" stroke-dasharray=".955 2.389"/><path d="m14.3 24.2v24.1" stroke-dasharray=".955 2.389"/><path d="m21.1 48.3v-12.5c0-1.1.9-2 2-2h21.1c1.1 0 2 .9 2 2v12.5" stroke-miterlimit="10"/><path d="m46.3 44.6h-25.2" stroke-dasharray=".955 2.389"/><path d="m46.3 41h-25.2" stroke-dasharray=".955 2.389"/><path d="m46.3 37.4h-25.2" stroke-dasharray=".955 2.389"/><path d="m39.7 7.9h4.4c1 0 1.9-.8 1.9-1.9 0-1-.8-1.9-1.9-1.9h-4.4c-1 0-1.9.8-1.9 1.9 0 1.1.9 1.9 1.9 1.9z" stroke-miterlimit="10"/><path d="m35.7 11.7h4.4c1 0 1.9-.8 1.9-1.9 0-1-.8-1.9-1.9-1.9h-4.4c-1 0-1.9.8-1.9 1.9 0 1 .9 1.9 1.9 1.9z" stroke-miterlimit="10"/><path d="m11.4 7.9h4.4c1 0 1.9-.8 1.9-1.9 0-1-.8-1.9-1.9-1.9h-4.4c-1 0-1.9.8-1.9 1.9.1 1.1.9 1.9 1.9 1.9z" stroke-miterlimit="10"/><path d="m8.4 11.7h4.4c1 0 1.9-.8 1.9-1.9 0-1-.8-1.9-1.9-1.9h-4.4c-1 0-1.9.8-1.9 1.9.1 1 .9 1.9 1.9 1.9z" stroke-miterlimit="10"/></g><g><g style="fill:none;stroke:#151f81;stroke-linecap:round;stroke-linejoin:round;stroke-miterlimit:10;stroke-width:1.5"><path d="m21.9 23.1c-1.6-1-2.5-3.1-1.9-5 .6-2 2.4-3.2 4.3-3.2"/><path d="m26.7 15.6c1.6 1 2.5 3.1 1.9 5-.6 2-2.4 3.2-4.3 3.2"/><path d="m20.1 23.2 1.8-.1-.1-1.8"/><path d="m28.4 15.5-1.7.1v1.7"/></g></g><path d="m25.6 1.8c1 0 1.8.8 1.8 1.8 0-1 .8-1.8 1.8-1.8" style="fill:none;stroke:#151f81;stroke-linecap:round;stroke-linejoin:round;stroke-miterlimit:10;stroke-width:1.5"/><path d="m27.7 9.6c1 0 1.8.8 1.8 1.8 0-1 .8-1.8 1.8-1.8" style="fill:none;stroke:#151f81;stroke-linecap:round;stroke-linejoin:round;stroke-miterlimit:10;stroke-width:1.5"/><path d="m20.4 5.7c1 0 1.8.8 1.8 1.8 0-1 .8-1.8 1.8-1.8" style="fill:none;stroke:#151f81;stroke-linecap:round;stroke-linejoin:round;stroke-miterlimit:10;stroke-width:1.5"/></g></svg>