<svg id="&#x421;&#x43B;&#x43E;&#x439;_1" enable-background="new 0 0 300 300" viewBox="0 0 300 300" xmlns="http://www.w3.org/2000/svg"><g><path d="m235.745 167.021c-5.689-5.247-12.766-11.778-23.969-16.682-4.34-1.899-15.864-6.937-31.192-6.066-14.25.824-24.141 6.191-28.363 8.483-6.87 3.725-16.721 10.556-24.648 21.949-4.895 7.038-7.434 13.457-8.512 16.657-4.076 12.117-3.346 22.48-3.035 26.904.252 3.589.774 11.054 4.025 19.641 5.801 15.312 16.412 24.206 19.9 27.129 16.303 13.665 34.099 15.984 40.797 16.857 10.463 1.361 20.988.78 31.371-1.692 26.287-10.859 44.839-36.76 44.839-66.923 0-10.412-2.227-20.309-6.203-29.264-4.417-6.153-9.443-11.858-15.01-16.993zm-40.165 99.063c-.353.596-.953 1.002-1.638 1.109-2.548.395-5.19.596-7.852.596-28.522 0-51.726-23.204-51.726-51.726 0-9.403 2.522-18.53 7.314-26.53l-3.647-2.758c-.76-.575-1.091-1.555-.833-2.473.256-.917 1.048-1.584 1.997-1.681l19.088-1.954c1.199-.113 2.31.708 2.519 1.907l3.304 18.9c.164.938-.262 1.881-1.075 2.378-.813.493-1.847.445-2.605-.13l-4.603-3.48c-2.545 4.864-3.88 10.283-3.88 15.821 0 16.1 10.94 29.787 26.618 33.319.033.006.066.012.098.02 2.41.537 4.91.809 7.431.809.971 0 1.905-.038 2.778-.112 1.025-.08 2.015.534 2.373 1.521l4.524 12.494c.236.651.168 1.374-.185 1.97zm40.675-19.73c-.256.917-1.048 1.584-1.997 1.681l-19.088 1.954c-.08.008-.16.012-.239.012-1.113 0-2.085-.8-2.28-1.919l-3.304-18.9c-.164-.938.262-1.881 1.075-2.378.812-.495 1.845-.447 2.605.13l4.603 3.48c2.545-4.862 3.88-10.283 3.88-15.821 0-16.098-10.94-29.786-26.618-33.318-.033-.006-.066-.012-.1-.02-2.402-.537-4.902-.809-7.43-.809-.996 0-1.905.036-2.778.11-1.047.063-2.017-.536-2.374-1.521l-4.524-12.494c-.235-.652-.167-1.374.186-1.97s.953-1.002 1.638-1.109c2.548-.395 5.19-.596 7.852-.596 28.522 0 51.726 23.204 51.726 51.726 0 9.403-2.522 18.53-7.314 26.53l3.647 2.758c.76.576 1.091 1.557.834 2.474z" fill="#9cf469"/><path d="m180.749 281.893c-6.698-.874-24.494-3.192-40.797-16.857-3.488-2.924-14.099-11.817-19.9-27.129-3.251-8.587-3.773-16.052-4.025-19.641-.311-4.425-1.041-14.787 3.035-26.904 1.077-3.2 3.616-9.619 8.512-16.657 7.926-11.393 17.777-18.224 24.648-21.949 4.223-2.292 14.113-7.659 28.363-8.483 15.327-.87 26.852 4.167 31.192 6.066 11.203 4.904 18.28 11.435 23.969 16.682 5.566 5.135 10.592 10.84 15.011 16.993-11.263-25.37-36.68-43.117-66.179-43.117-39.911 0-72.381 32.47-72.381 72.381s32.47 72.381 72.381 72.381c9.748 0 19.046-1.949 27.542-5.458-10.382 2.472-20.908 3.052-31.371 1.692z" fill="#fff"/><path d="m62.136 116.58c3.508-6.287 5.602-10.27 7.183-13.39-2.498 4.481-4.903 8.958-7.183 13.39z" fill="#48c1d2"/><path d="m121.143 28.307c-11.789 16.015-24.514 35.494-35.83 54.853-5.861 10.026-7.745 13.838-9.928 18.254-2.206 4.462-4.705 9.519-11.746 21.946l-.121.214c-2.675 4.72-8.242 14.544-12.479 27.716-1.732 5.383-2.791 9.946-3.431 14.795-.397 3.001-1.223 9.243-.365 17.053 1.024 9.32 3.871 15.953 5.573 19.917 5.715 13.324 13.62 22.084 16.753 25.231 13.255 13.322 28.001 18.139 34.298 20.196 4.593 1.498 9.326 2.632 14.117 3.409-6.615-11.36-10.423-24.546-10.423-38.612 0-42.467 34.549-77.016 77.016-77.016 5.432 0 10.732.573 15.849 1.648-18.356-44.005-59.219-101.578-72.064-119.191-2.418 3.146-4.842 6.357-7.219 9.587zm-37.053 192.63c-.458.57-1.13.866-1.808.866-.509 0-1.022-.167-1.45-.511-15.907-12.779-25.031-31.8-25.031-52.186 0-8.625 3.591-20.662 10.674-35.778.544-1.157 1.926-1.658 3.081-1.115 1.159.543 1.659 1.923 1.116 3.082-6.792 14.495-10.237 25.871-10.237 33.811 0 18.974 8.492 36.679 23.299 48.574.998.801 1.157 2.26.356 3.257z" fill="#48c1d2"/><path d="m69.57 228.286c-3.133-3.147-11.038-11.907-16.753-25.231-1.702-3.963-4.548-10.596-5.573-19.917-.858-7.81-.032-14.053.365-17.053.64-4.849 1.699-9.412 3.431-14.795 4.238-13.172 9.804-22.996 12.479-27.716l.121-.214c7.041-12.426 9.54-17.483 11.746-21.946 2.183-4.416 4.067-8.228 9.928-18.254 11.316-19.358 24.041-38.838 35.829-54.853 2.377-3.23 4.801-6.441 7.22-9.588-.812-1.113-1.52-2.078-2.095-2.858-7.4 10.041-35.439 48.748-56.949 87.33-1.581 3.121-3.675 7.104-7.183 13.39-11.092 21.569-19.095 42.031-19.095 56.185 0 43.921 34.194 79.983 77.352 83.011-.842-1.268-1.639-2.568-2.407-3.887-4.791-.777-9.525-1.911-14.117-3.409-6.298-2.056-21.045-6.873-34.299-20.195z" fill="#fff"/><path d="m83.735 217.68c-14.807-11.895-23.299-29.6-23.299-48.574 0-7.94 3.444-19.316 10.237-33.811.543-1.159.044-2.539-1.116-3.082-1.155-.543-2.537-.042-3.081 1.115-7.083 15.116-10.674 27.153-10.674 35.778 0 20.386 9.123 39.406 25.031 52.186.428.344.941.511 1.45.511.678 0 1.35-.296 1.808-.866.8-.997.641-2.456-.356-3.257z"/><path d="m177.742 253.945c-.035-.006-.069-.014-.103-.021-17.858-3.975-30.331-19.544-30.331-37.861 0-7.259 2.022-14.342 5.845-20.482.345-.552.905-.935 1.545-1.053.64-.122 1.301.039 1.82.43l2.008 1.519-1.918-10.978-11.078 1.136.637.483c.974.736 1.209 2.101.539 3.121-5.043 7.67-7.708 16.599-7.708 25.824 0 25.966 21.125 47.091 47.091 47.091 1.456 0 2.903-.066 4.328-.196l-2.946-8.136c-3.191.105-6.568-.183-9.729-.877z" fill="#fff"/><path d="m226.747 240.418c5.043-7.67 7.708-16.599 7.708-25.824 0-25.966-21.125-47.091-47.092-47.091-1.455 0-2.903.066-4.328.196l2.946 8.137c.447-.015.907-.023 1.382-.023 2.835 0 5.643.303 8.349.899.035.006.068.014.102.021 17.858 3.975 30.331 19.544 30.331 37.86 0 7.261-2.022 14.344-5.846 20.482-.344.552-.904.935-1.545 1.053-.64.124-1.3-.038-1.819-.43l-2.008-1.519 1.918 10.978 11.078-1.136-.637-.483c-.975-.735-1.21-2.1-.539-3.12z" fill="#fff"/><path d="m220.395 281.427c24.472-12.914 41.198-38.608 41.198-68.149 0-8.571-1.416-16.814-4.012-24.519-.811-2.406-1.74-4.757-2.776-7.05-9.205-20.382-27.024-36.07-48.796-42.39-20.897-52.741-75.059-124.982-77.891-128.74-.875-1.165-2.825-1.162-3.701 0-3.512 4.662-86.011 114.713-86.011 162.187 0 47.65 38.122 86.535 85.461 87.815 14.107 18.065 36.067 29.713 60.711 29.713 10.224 0 19.981-2.02 28.916-5.654 2.361-.96 4.663-2.032 6.901-3.213zm-8.275-1.226c-8.496 3.509-17.794 5.458-27.542 5.458-39.911 0-72.381-32.47-72.381-72.381s32.47-72.381 72.381-72.381c29.499 0 54.916 17.747 66.179 43.117 3.975 8.955 6.203 18.852 6.203 29.264-.001 30.163-18.553 56.065-44.84 66.923zm-27.542-143.939c-42.466 0-77.016 34.549-77.016 77.016 0 14.067 3.808 27.252 10.423 38.612.768 1.319 1.565 2.619 2.407 3.887-43.158-3.029-77.352-39.09-77.352-83.011 0-14.154 8.003-34.617 19.095-56.185 2.279-4.432 4.685-8.91 7.183-13.39 21.51-38.582 49.549-77.289 56.949-87.33.575.78 1.283 1.745 2.095 2.858 12.845 17.613 53.708 75.187 72.064 119.191-5.116-1.075-10.416-1.648-15.848-1.648z"/><path d="m191.241 251.619c-.358-.987-1.348-1.601-2.373-1.521-.873.074-1.807.112-2.778.112-2.521 0-5.021-.272-7.431-.809-.032-.008-.065-.014-.098-.02-15.677-3.532-26.618-17.219-26.618-33.319 0-5.538 1.335-10.957 3.88-15.821l4.603 3.48c.759.575 1.792.623 2.605.13.812-.496 1.239-1.439 1.075-2.378l-3.304-18.9c-.209-1.199-1.321-2.02-2.519-1.907l-19.088 1.954c-.948.097-1.74.763-1.997 1.681-.257.917.074 1.898.833 2.473l3.647 2.758c-4.792 8-7.314 17.127-7.314 26.53 0 28.522 23.204 51.726 51.726 51.726 2.662 0 5.304-.201 7.852-.596.685-.107 1.285-.513 1.638-1.109s.421-1.319.185-1.97zm-5.151 11.535c-25.966 0-47.091-21.125-47.091-47.091 0-9.225 2.666-18.155 7.708-25.824.671-1.02.435-2.385-.539-3.121l-.637-.483 11.078-1.136 1.918 10.978-2.008-1.519c-.519-.391-1.18-.552-1.82-.43-.64.118-1.2.501-1.545 1.053-3.824 6.14-5.845 13.223-5.845 20.482 0 18.317 12.473 33.886 30.331 37.861.034.008.068.015.103.021 3.161.694 6.538.982 9.729.876l2.946 8.136c-1.425.13-2.873.197-4.328.197z"/><path d="m231.775 241.124c4.792-8 7.314-17.127 7.314-26.53 0-28.522-23.205-51.726-51.726-51.726-2.661 0-5.303.201-7.852.596-.685.107-1.285.513-1.638 1.109s-.421 1.319-.186 1.97l4.524 12.494c.357.985 1.327 1.584 2.374 1.521.873-.074 1.782-.11 2.778-.11 2.528 0 5.027.272 7.43.809.033.008.066.014.1.02 15.677 3.532 26.618 17.219 26.618 33.318 0 5.538-1.335 10.958-3.88 15.821l-4.603-3.48c-.76-.576-1.794-.625-2.605-.13-.812.496-1.239 1.439-1.075 2.378l3.304 18.9c.195 1.119 1.167 1.919 2.28 1.919.079 0 .159-.005.239-.012l19.088-1.954c.948-.097 1.74-.763 1.997-1.681.257-.917-.074-1.898-.833-2.473zm-14.93 4.034-1.918-10.978 2.008 1.519c.52.392 1.179.554 1.819.43.64-.118 1.201-.501 1.545-1.053 3.824-6.139 5.846-13.221 5.846-20.482 0-18.316-12.473-33.885-30.331-37.86-.034-.008-.067-.015-.102-.021-2.706-.596-5.514-.899-8.349-.899-.475 0-.935.008-1.382.023l-2.946-8.137c1.426-.13 2.873-.196 4.328-.196 25.967 0 47.092 21.125 47.092 47.091 0 9.225-2.666 18.155-7.708 25.824-.671 1.02-.435 2.385.539 3.121l.637.483z"/></g></svg>