<svg width="1080" height="492" viewBox="0 0 1080 492" fill="none" xmlns="http://www.w3.org/2000/svg">
<path d="M51.2227 181.15C43.2301 181.15 36.0038 179.781 29.544 177.044C23.1937 174.307 18.1573 170.365 14.4347 165.219C10.7121 160.073 8.79601 153.997 8.68652 146.989H33.3214C33.6498 151.697 35.2922 155.42 38.2483 158.157C41.314 160.894 45.4746 162.263 50.73 162.263C56.0949 162.263 60.3102 161.004 63.3759 158.486C66.4416 155.858 67.9744 152.464 67.9744 148.303C67.9744 144.909 66.9343 142.117 64.854 139.927C62.7737 137.738 60.146 136.04 56.9708 134.836C53.9052 133.522 49.6351 132.099 44.1607 130.566C36.7155 128.376 30.6389 126.241 25.9309 124.161C21.3324 121.971 17.3361 118.741 13.942 114.471C10.6573 110.092 9.01498 104.289 9.01498 97.0627C9.01498 90.2744 10.7121 84.362 14.1062 79.3256C17.5003 74.2891 22.2631 70.457 28.3944 67.8293C34.5257 65.0921 41.533 63.7235 49.4161 63.7235C61.2409 63.7235 70.8211 66.6249 78.1568 72.4278C85.602 78.1212 89.7078 86.1138 90.4742 96.4057H65.1825C64.9635 92.4641 63.2664 89.2342 60.0913 86.716C57.0256 84.0883 52.9198 82.7744 47.7738 82.7744C43.2848 82.7744 39.6717 83.9241 36.9345 86.2233C34.3068 88.5226 32.9929 91.862 32.9929 96.2415C32.9929 99.3072 33.9783 101.88 35.9491 103.96C38.0294 105.931 40.5476 107.574 43.5038 108.887C46.5695 110.092 50.8395 111.515 56.3139 113.157C63.7591 115.347 69.8357 117.537 74.5437 119.727C79.2517 121.916 83.3028 125.201 86.6969 129.581C90.091 133.96 91.7881 139.708 91.7881 146.825C91.7881 152.956 90.2005 158.65 87.0254 163.905C83.8502 169.161 79.1969 173.376 73.0656 176.551C66.9343 179.617 59.6533 181.15 51.2227 181.15ZM134.386 65.3658V136.314C134.386 144.088 136.411 150.055 140.462 154.216C144.514 158.267 150.207 160.292 157.543 160.292C164.988 160.292 170.736 158.267 174.787 154.216C178.838 150.055 180.864 144.088 180.864 136.314V65.3658H204.02V136.15C204.02 145.894 201.885 154.161 197.615 160.949C193.455 167.628 187.816 172.664 180.699 176.058C173.692 179.453 165.864 181.15 157.214 181.15C148.674 181.15 140.9 179.453 133.893 176.058C126.995 172.664 121.521 167.628 117.47 160.949C113.419 154.161 111.393 145.894 111.393 136.15V65.3658H134.386ZM265.815 181.15C257.823 181.15 250.597 179.781 244.137 177.044C237.786 174.307 232.75 170.365 229.027 165.219C225.305 160.073 223.389 153.997 223.279 146.989H247.914C248.243 151.697 249.885 155.42 252.841 158.157C255.907 160.894 260.067 162.263 265.323 162.263C270.688 162.263 274.903 161.004 277.969 158.486C281.034 155.858 282.567 152.464 282.567 148.303C282.567 144.909 281.527 142.117 279.447 139.927C277.366 137.738 274.739 136.04 271.564 134.836C268.498 133.522 264.228 132.099 258.753 130.566C251.308 128.376 245.232 126.241 240.524 124.161C235.925 121.971 231.929 118.741 228.535 114.471C225.25 110.092 223.608 104.289 223.608 97.0627C223.608 90.2744 225.305 84.362 228.699 79.3256C232.093 74.2891 236.856 70.457 242.987 67.8293C249.118 65.0921 256.126 63.7235 264.009 63.7235C275.834 63.7235 285.414 66.6249 292.749 72.4278C300.195 78.1212 304.301 86.1138 305.067 96.4057H279.775C279.556 92.4641 277.859 89.2342 274.684 86.716C271.618 84.0883 267.512 82.7744 262.367 82.7744C257.877 82.7744 254.264 83.9241 251.527 86.2233C248.899 88.5226 247.586 91.862 247.586 96.2415C247.586 99.3072 248.571 101.88 250.542 103.96C252.622 105.931 255.14 107.574 258.096 108.887C261.162 110.092 265.432 111.515 270.907 113.157C278.352 115.347 284.428 117.537 289.136 119.727C293.844 121.916 297.895 125.201 301.29 129.581C304.684 133.96 306.381 139.708 306.381 146.825C306.381 152.956 304.793 158.65 301.618 163.905C298.443 169.161 293.79 173.376 287.658 176.551C281.527 179.617 274.246 181.15 265.815 181.15ZM404.325 65.3658V83.9241H373.778V180H350.785V83.9241H320.238V65.3658H404.325ZM491.392 158.157H445.736L438.181 180H414.039L455.261 65.2016H482.031L523.253 180H498.947L491.392 158.157ZM485.152 139.763L468.564 91.8072L451.977 139.763H485.152ZM561.654 65.3658V180H538.662V65.3658H561.654ZM682.418 180H659.425L607.364 101.333V180H584.371V65.2016H607.364L659.425 144.033V65.2016H682.418V180ZM775.431 158.157H729.774L722.22 180H698.078L739.3 65.2016H766.07L807.292 180H782.986L775.431 158.157ZM769.19 139.763L752.603 91.8072L736.015 139.763H769.19ZM887.736 121.205C894.196 122.409 899.506 125.639 903.667 130.895C907.827 136.15 909.908 142.172 909.908 148.96C909.908 155.091 908.375 160.511 905.309 165.219C902.353 169.818 898.028 173.431 892.335 176.058C886.642 178.686 879.908 180 872.134 180H822.7V65.3658H869.999C877.773 65.3658 884.452 66.6249 890.036 69.1432C895.729 71.6614 899.999 75.165 902.846 79.654C905.802 84.143 907.28 89.2342 907.28 94.9276C907.28 101.606 905.473 107.19 901.86 111.679C898.357 116.168 893.649 119.344 887.736 121.205ZM845.693 112.665H866.715C872.189 112.665 876.404 111.46 879.361 109.052C882.317 106.533 883.795 102.975 883.795 98.3765C883.795 93.778 882.317 90.2196 879.361 87.7014C876.404 85.1832 872.189 83.9241 866.715 83.9241H845.693V112.665ZM868.85 161.278C874.434 161.278 878.758 159.964 881.824 157.336C884.999 154.708 886.587 150.986 886.587 146.168C886.587 141.241 884.944 137.409 881.66 134.672C878.375 131.825 873.941 130.402 868.357 130.402H845.693V161.278H868.85ZM951.225 161.77H988.998V180H928.232V65.3658H951.225V161.77ZM1026.61 83.9241V112.665H1065.2V130.895H1026.61V161.278H1070.13V180H1003.61V65.2016H1070.13V83.9241H1026.61ZM203.665 404.157H158.008L150.454 426H126.312L167.534 311.202H194.304L235.526 426H211.22L203.665 404.157ZM197.424 385.763L180.837 337.807L164.249 385.763H197.424ZM342.083 311.366L303.324 386.092V426H280.332V386.092L241.409 311.366H267.358L291.992 363.756L316.463 311.366H342.083ZM551.95 311.366C563.994 311.366 574.56 313.72 583.647 318.428C592.844 323.136 599.906 329.869 604.833 338.628C609.87 347.278 612.388 357.351 612.388 368.847C612.388 380.343 609.87 390.416 604.833 399.066C599.906 407.606 592.844 414.23 583.647 418.938C574.56 423.646 563.994 426 551.95 426H511.878V311.366H551.95ZM551.129 406.456C563.173 406.456 572.48 403.172 579.049 396.602C585.618 390.033 588.903 380.781 588.903 368.847C588.903 356.913 585.618 347.606 579.049 340.928C572.48 334.139 563.173 330.745 551.129 330.745H534.87V406.456H551.129ZM724.69 311.366V426H701.697V377.223H652.592V426H629.599V311.366H652.592V358.5H701.697V311.366H724.69ZM838.469 311.366L799.71 386.092V426H776.718V386.092L737.795 311.366H763.744L788.378 363.756L812.849 311.366H838.469ZM922.021 404.157H876.365L868.81 426H844.668L885.89 311.202H912.66L953.882 426H929.576L922.021 404.157ZM915.78 385.763L899.193 337.807L882.605 385.763H915.78Z" fill="#0698D4"/>
<path d="M421.701 329.046V300C414.091 300.091 406.66 301.475 399.59 304.118L410.086 331.209C413.815 329.858 417.714 329.132 421.701 329.046Z" fill="#495F84"/>
<path d="M408.587 331.79L408.403 331.316L398.091 304.7C391.067 307.519 384.643 311.503 378.977 316.554L398.542 338.019C401.55 335.393 404.922 333.301 408.587 331.79Z" fill="#3A789F"/>
<path d="M397.354 339.102L377.789 317.638C372.245 322.812 367.685 328.841 364.218 335.579L383.602 345.232L390.232 348.533C392.077 345.017 394.468 341.851 397.354 339.102Z" fill="#80C571"/>
<path d="M363.5 337.019C360.204 343.833 358.138 351.104 357.354 358.655L386.283 361.336C386.734 357.371 387.818 353.555 389.514 349.971L363.5 337.019Z" fill="#4197C6"/>
<path d="M458.732 361.336L487.656 358.655C486.871 351.104 484.805 343.833 481.508 337.019L470.809 342.345L455.499 349.967C457.195 353.555 458.28 357.373 458.732 361.336Z" fill="#CC4F5F"/>
<path d="M445.086 304.994L445.425 304.119C438.354 301.476 430.921 300.092 423.308 300.001V329.047C427.297 329.133 431.198 329.859 434.929 331.211L445.086 304.994Z" fill="#EB4D5D"/>
<path d="M454.782 348.528L473.644 339.137L480.79 335.579C477.334 328.852 472.775 322.823 467.224 317.638L447.659 339.102C450.544 341.85 452.936 345.015 454.782 348.528Z" fill="#5CAC6F"/>
<path d="M386.047 365.499C386.047 364.63 386.076 363.771 386.135 362.936L359.128 360.433L357.208 360.256C357.07 362.012 357 363.772 357 365.499C357 371.313 357.763 377.081 359.268 382.658L363.756 381.381L387.217 374.705C386.441 371.712 386.047 368.619 386.047 365.499Z" fill="#6D9065"/>
<path d="M446.472 338.019L466.037 316.555C460.362 311.501 453.939 307.517 446.924 304.7L438.196 327.226L436.428 331.79C440.092 333.301 443.465 335.393 446.472 338.019Z" fill="#D8B060"/>
<path d="M442.381 396.074L457.67 420.773C464.062 416.701 469.647 411.606 474.292 405.614L451.112 388.111C448.642 391.232 445.711 393.905 442.381 396.074Z" fill="#FBC764"/>
<path d="M475.262 404.334C479.767 398.227 483.141 391.464 485.302 384.205L457.359 376.253C456.189 380.046 454.419 383.597 452.082 386.83L475.262 404.334Z" fill="#58C0DD"/>
<path d="M481.632 360.827L458.879 362.936C458.938 363.771 458.967 364.63 458.967 365.499C458.967 368.619 458.574 371.712 457.797 374.706L485.74 382.658C487.246 377.082 488.009 371.315 488.009 365.499C488.009 363.771 487.939 362.01 487.802 360.256L481.632 360.827Z" fill="#EF695C"/>
<path d="M429.995 401.188L435.337 429.751C442.77 428.274 449.816 425.541 456.305 421.621L447.386 407.213L441.016 396.922C437.578 398.95 433.878 400.383 429.995 401.188Z" fill="#A44961"/>
<path d="M403.995 396.919L388.704 421.621C395.19 425.54 402.24 428.273 409.678 429.751L414.286 405.09L415.015 401.188C411.132 400.382 407.432 398.949 403.995 396.919Z" fill="#E44F9B"/>
<path d="M387.656 376.253L359.708 384.205C361.869 391.464 365.243 398.228 369.747 404.334L386.97 391.327L392.932 386.825C390.6 383.599 388.828 380.05 387.656 376.253Z" fill="#D5A05D"/>
<path d="M393.902 388.107L389.499 391.432L370.718 405.616C375.366 411.607 380.952 416.701 387.339 420.774L391.226 414.495L402.629 396.074C399.292 393.899 396.361 391.225 393.902 388.107Z" fill="#F8AF5F"/>
<path d="M416.595 401.482L411.259 430.045C418.673 431.319 426.346 431.318 433.755 430.045L428.413 401.482C424.525 402.12 420.499 402.12 416.595 401.482Z" fill="#F38A5A"/>
</svg>
