<svg width="91" height="42" viewBox="0 0 91 42" fill="none" xmlns="http://www.w3.org/2000/svg">
<path d="M91 0H0V42H91V0Z" fill="#F8AF5F"/>
<path d="M4 8.03932V35.3263H19.8246V4L4 8.03932ZM11.0842 29.3992H7.35344V26.6244H11.0842V29.3992ZM11.0842 22.8804H7.35344V20.1055H11.0842V22.8804ZM11.0842 16.3615H7.35344V13.5867H11.0842V16.3615ZM16.4724 29.3992H12.7416V26.6244H16.4724V29.3992ZM16.4724 22.8804H12.7416V20.1055H16.4724V22.8804ZM16.4724 16.3615H12.7416V13.5867H16.4724V16.3615Z" fill="white"/>
<path d="M37.7382 20.1597V35.325H33.9267V30.9879C33.9267 29.856 33.4686 28.8326 32.7285 28.0925C31.9884 27.3524 30.9638 26.8943 29.8331 26.8943C27.5706 26.8943 25.7384 28.7398 25.7384 30.9879V35.325H21.9136V20.1597H37.7382Z" fill="white"/>
<path d="M21.8618 18.4456L29.7729 10.3657L37.6853 18.4456H21.8618Z" fill="white"/>
<path d="M48.648 15.296V11.48H55.296V29H51.024V15.296H48.648ZM57.6714 15.296V11.48H64.3194V29H60.0474V15.296H57.6714ZM69.4549 29.192C68.7349 29.192 68.1429 28.984 67.6789 28.568C67.2309 28.136 67.0069 27.608 67.0069 26.984C67.0069 26.344 67.2309 25.808 67.6789 25.376C68.1429 24.944 68.7349 24.728 69.4549 24.728C70.1589 24.728 70.7349 24.944 71.1829 25.376C71.6469 25.808 71.8789 26.344 71.8789 26.984C71.8789 27.608 71.6469 28.136 71.1829 28.568C70.7349 28.984 70.1589 29.192 69.4549 29.192ZM82.5643 16.208C82.4363 15.616 82.2123 15.176 81.8923 14.888C81.5723 14.584 81.1163 14.432 80.5243 14.432C79.6123 14.432 78.9563 14.832 78.5563 15.632C78.1563 16.416 77.9483 17.664 77.9323 19.376C78.2843 18.816 78.7883 18.376 79.4443 18.056C80.1163 17.736 80.8523 17.576 81.6523 17.576C83.2203 17.576 84.4763 18.072 85.4203 19.064C86.3803 20.056 86.8603 21.44 86.8603 23.216C86.8603 24.384 86.6203 25.408 86.1403 26.288C85.6763 27.168 84.9883 27.856 84.0763 28.352C83.1803 28.848 82.1163 29.096 80.8843 29.096C78.4203 29.096 76.7083 28.328 75.7483 26.792C74.7883 25.24 74.3083 23.016 74.3083 20.12C74.3083 17.08 74.8123 14.824 75.8203 13.352C76.8443 11.864 78.4763 11.12 80.7163 11.12C81.9163 11.12 82.9243 11.36 83.7403 11.84C84.5723 12.304 85.1963 12.92 85.6123 13.688C86.0443 14.456 86.3003 15.296 86.3803 16.208H82.5643ZM80.6683 20.816C79.9803 20.816 79.4043 21.024 78.9403 21.44C78.4923 21.84 78.2683 22.416 78.2683 23.168C78.2683 23.936 78.4763 24.536 78.8923 24.968C79.3243 25.4 79.9323 25.616 80.7163 25.616C81.4203 25.616 81.9723 25.408 82.3723 24.992C82.7883 24.56 82.9963 23.976 82.9963 23.24C82.9963 22.488 82.7963 21.896 82.3963 21.464C81.9963 21.032 81.4203 20.816 80.6683 20.816Z" fill="white"/>
</svg>
